NunitoSans-CondensedBold.ufo
<glyph name="exclam" format="2">
  <advance width="216.5"/>
  <unicode hex="0021"/>
  <outline>
    <contour>
      <point x="74.0" y="202.5" type="line"/>
      <point x="143.0" y="202.5" type="line"/>
      <point x="179.0" y="705.0" type="line"/>
      <point x="38.0" y="705.0" type="line"/>
    </contour>
    <contour>
      <point x="46.0" y="0.0" type="line"/>
      <point x="171.0" y="0.0" type="line"/>
      <point x="171.0" y="128.5" type="line"/>
      <point x="46.0" y="128.5" type="line"/>
    </contour>
  </outline>
</glyph>
<glyph name="numbersign" format="2">
  <advance width="526.0"/>
  <unicode hex="0023"/>
  <outline>
    <contour>
      <point x="74.0" y="0.0" type="line"/>
      <point x="151.0" y="0.0" type="line"/>
      <point x="179.5" y="174.5" type="line"/>
      <point x="292.0" y="174.5" type="line"/>
      <point x="263.5" y="0.0" type="line"/>
      <point x="341.0" y="0.0" type="line"/>
      <point x="369.0" y="174.5" type="line"/>
      <point x="475.5" y="174.5" type="line"/>
      <point x="475.5" y="249.5" type="line"/>
      <point x="379.5" y="249.5" type="line"/>
      <point x="413.5" y="463.5" type="line"/>
      <point x="492.5" y="463.5" type="line"/>
      <point x="492.5" y="538.5" type="line"/>
      <point x="424.5" y="538.5" type="line"/>
      <point x="452.0" y="705.0" type="line"/>
      <point x="374.5" y="705.0" type="line"/>
      <point x="347.5" y="538.5" type="line"/>
      <point x="235.5" y="538.5" type="line"/>
      <point x="262.5" y="705.0" type="line"/>
      <point x="185.0" y="705.0" type="line"/>
      <point x="158.5" y="538.5" type="line"/>
      <point x="50.5" y="538.5" type="line"/>
      <point x="50.5" y="463.5" type="line"/>
      <point x="147.5" y="463.5" type="line"/>
      <point x="113.5" y="249.5" type="line"/>
      <point x="33.5" y="249.5" type="line"/>
      <point x="33.5" y="174.5" type="line"/>
      <point x="102.0" y="174.5" type="line"/>
    </contour>
    <contour>
      <point x="190.5" y="249.5" type="line"/>
      <point x="225.0" y="463.5" type="line"/>
      <point x="336.0" y="463.5" type="line"/>
      <point x="301.5" y="249.5" type="line"/>
    </contour>
  </outline>
</glyph>
<glyph name="dollar" format="2">
  <advance width="498.0"/>
  <unicode hex="0024"/>
  <outline>
    <contour>
      <point x="212.0" y="-115.0" type="line"/>
      <point x="302.0" y="-115.0" type="line"/>
      <point x="302.0" y="16.5" type="line"/>
      <point x="271.5" y="-5.5" type="line"/>
      <point x="391.0" y="4.5"/>
      <point x="470.0" y="82.5"/>
      <point x="470.0" y="203.5" type="curve" smooth="yes"/>
      <point x="470.0" y="301.0"/>
      <point x="420.5" y="359.0"/>
      <point x="319.0" y="385.5" type="curve" smooth="yes"/>
      <point x="230.5" y="407.5" type="line" smooth="yes"/>
      <point x="184.0" y="420.5"/>
      <point x="158.0" y="450.5"/>
      <point x="158.0" y="502.5" type="curve" smooth="yes"/>
      <point x="158.0" y="568.5"/>
      <point x="202.5" y="611.5"/>
      <point x="266.0" y="611.5" type="curve" smooth="yes"/>
      <point x="321.5" y="611.5"/>
      <point x="378.0" y="588.5"/>
      <point x="417.0" y="543.5" type="curve"/>
      <point x="449.5" y="631.5" type="line"/>
      <point x="408.0" y="679.5"/>
      <point x="347.0" y="705.0"/>
      <point x="287.0" y="709.5" type="curve"/>
      <point x="302.0" y="694.5" type="line"/>
      <point x="302.0" y="820.0" type="line"/>
      <point x="212.0" y="820.0" type="line"/>
      <point x="212.0" y="694.5" type="line"/>
      <point x="225.5" y="708.0" type="line"/>
      <point x="113.5" y="696.5"/>
      <point x="41.0" y="612.0"/>
      <point x="41.0" y="494.5" type="curve" smooth="yes"/>
      <point x="41.0" y="394.0"/>
      <point x="91.5" y="335.0"/>
      <point x="187.5" y="310.0" type="curve" smooth="yes"/>
      <point x="275.0" y="287.0" type="line" smooth="yes"/>
      <point x="332.0" y="271.5"/>
      <point x="354.0" y="242.5"/>
      <point x="354.0" y="191.0" type="curve" smooth="yes"/>
      <point x="354.0" y="131.5"/>
      <point x="316.0" y="93.5"/>
      <point x="245.0" y="93.5" type="curve" smooth="yes"/>
      <point x="177.0" y="93.5"/>
      <point x="113.0" y="118.0"/>
      <point x="63.0" y="164.0" type="curve"/>
      <point x="30.0" y="71.5" type="line"/>
      <point x="82.5" y="23.0"/>
      <point x="155.5" y="-3.0"/>
      <point x="231.0" y="-6.0" type="curve"/>
      <point x="212.0" y="15.5" type="line"/>
    </contour>
  </outline>
</glyph>
<glyph name="ampersand" format="2">
  <advance width="607.5"/>
  <unicode hex="0026"/>
  <outline>
    <contour>
      <point x="247.5" y="-10.0" type="curve" smooth="yes"/>
      <point x="323.5" y="-10.0"/>
      <point x="388.0" y="22.0"/>
      <point x="435.5" y="81.0" type="curve"/>
      <point x="421.0" y="80.5" type="line"/>
      <point x="482.0" y="0.0" type="line"/>
      <point x="619.5" y="0.0" type="line"/>
      <point x="479.0" y="168.0" type="line"/>
      <point x="478.0" y="131.5" type="line"/>
      <point x="521.5" y="203.5"/>
      <point x="547.0" y="303.0"/>
      <point x="549.5" y="420.5" type="curve"/>
      <point x="456.0" y="420.5" type="line"/>
      <point x="453.0" y="333.5"/>
      <point x="439.0" y="262.0"/>
      <point x="417.5" y="206.5" type="curve"/>
      <point x="441.0" y="210.5" type="line"/>
      <point x="300.5" y="391.0" type="line"/>
      <point x="287.0" y="358.0" type="line"/>
      <point x="382.0" y="419.0"/>
      <point x="426.5" y="485.5"/>
      <point x="426.5" y="567.5" type="curve" smooth="yes"/>
      <point x="426.5" y="658.0"/>
      <point x="373.0" y="715.0"/>
      <point x="270.5" y="715.0" type="curve" smooth="yes"/>
      <point x="174.5" y="715.0"/>
      <point x="109.5" y="650.5"/>
      <point x="109.5" y="555.0" type="curve" smooth="yes"/>
      <point x="109.5" y="498.5"/>
      <point x="133.0" y="442.5"/>
      <point x="184.5" y="377.0" type="curve"/>
      <point x="190.5" y="402.0" type="line"/>
      <point x="178.0" y="393.5" type="line" smooth="yes"/>
      <point x="89.0" y="331.0"/>
      <point x="50.0" y="261.5"/>
      <point x="50.0" y="178.5" type="curve" smooth="yes"/>
      <point x="50.0" y="65.0"/>
      <point x="128.0" y="-10.0"/>
    </contour>
    <contour>
      <point x="262.5" y="79.5" type="curve" smooth="yes"/>
      <point x="199.0" y="79.5"/>
      <point x="162.0" y="119.5"/>
      <point x="162.0" y="189.0" type="curve" smooth="yes"/>
      <point x="162.0" y="238.5"/>
      <point x="178.0" y="276.0"/>
      <point x="235.0" y="322.5" type="curve" smooth="yes"/>
      <point x="249.5" y="336.0" type="line"/>
      <point x="218.5" y="336.0" type="line"/>
      <point x="381.0" y="127.0" type="line"/>
      <point x="381.5" y="147.5" type="line"/>
      <point x="352.5" y="101.5"/>
      <point x="313.5" y="79.5"/>
    </contour>
    <contour>
      <point x="273.0" y="634.0" type="curve" smooth="yes"/>
      <point x="308.0" y="634.0"/>
      <point x="328.5" y="609.0"/>
      <point x="328.5" y="563.5" type="curve" smooth="yes"/>
      <point x="328.5" y="497.5"/>
      <point x="300.0" y="472.0"/>
      <point x="234.0" y="426.0" type="curve"/>
      <point x="273.5" y="421.5" type="line"/>
      <point x="237.0" y="469.5"/>
      <point x="213.0" y="507.5"/>
      <point x="213.0" y="558.0" type="curve" smooth="yes"/>
      <point x="213.0" y="605.0"/>
      <point x="236.0" y="634.0"/>
    </contour>
  </outline>
</glyph>
<glyph name="quotesingle" format="2">
  <advance width="212.5"/>
  <unicode hex="0027"/>
  <outline>
    <contour>
      <point x="68.0" y="418.5" type="line"/>
      <point x="144.5" y="418.5" type="line"/>
      <point x="171.5" y="705.0" type="line"/>
      <point x="42.0" y="705.0" type="line"/>
    </contour>
  </outline>
</glyph>
<glyph name="parenleft" format="2">
  <advance width="311.5"/>
  <unicode hex="0028"/>
  <outline>
    <contour>
      <point x="203.0" y="-195.0" type="curve"/>
      <point x="279.5" y="-164.5" type="line"/>
      <point x="227.5" y="-18.5"/>
      <point x="205.5" y="110.5"/>
      <point x="205.5" y="263.0" type="curve" smooth="yes"/>
      <point x="205.5" y="416.5"/>
      <point x="227.5" y="544.5"/>
      <point x="279.5" y="690.5" type="curve"/>
      <point x="203.0" y="721.0" type="line"/>
      <point x="123.5" y="579.0"/>
      <point x="85.0" y="431.0"/>
      <point x="85.0" y="263.0" type="curve" smooth="yes"/>
      <point x="85.0" y="96.0"/>
      <point x="123.5" y="-53.5"/>
    </contour>
  </outline>
</glyph>
<glyph name="parenright" format="2">
  <advance width="311.5"/>
  <unicode hex="0029"/>
  <outline>
    <contour>
      <point x="108.5" y="-194.5" type="line"/>
      <point x="188.0" y="-53.0"/>
      <point x="226.5" y="96.0"/>
      <point x="226.5" y="263.0" type="curve" smooth="yes"/>
      <point x="226.5" y="430.5"/>
      <point x="188.0" y="579.0"/>
      <point x="108.5" y="720.5" type="curve"/>
      <point x="32.0" y="690.0" type="line"/>
      <point x="83.5" y="544.0"/>
      <point x="107.0" y="416.0"/>
      <point x="107.0" y="263.0" type="curve" smooth="yes"/>
      <point x="107.0" y="110.0"/>
      <point x="83.5" y="-18.0"/>
      <point x="32.0" y="-164.0" type="curve"/>
    </contour>
  </outline>
</glyph>
<glyph name="asterisk" format="2">
  <advance width="429.5"/>
  <unicode hex="002A"/>
  <outline>
    <contour>
      <point x="157.5" y="356.0" type="line"/>
      <point x="222.5" y="490.5" type="line"/>
      <point x="208.0" y="490.5" type="line"/>
      <point x="272.5" y="356.0" type="line"/>
      <point x="344.0" y="397.5" type="line"/>
      <point x="259.0" y="527.5" type="line"/>
      <point x="243.0" y="505.0" type="line"/>
      <point x="399.5" y="496.5" type="line"/>
      <point x="399.5" y="578.5" type="line"/>
      <point x="243.0" y="569.0" type="line"/>
      <point x="259.0" y="547.5" type="line"/>
      <point x="344.0" y="676.5" type="line"/>
      <point x="272.5" y="719.0" type="line"/>
      <point x="208.0" y="585.0" type="line"/>
      <point x="222.5" y="585.0" type="line"/>
      <point x="158.5" y="719.0" type="line"/>
      <point x="87.0" y="677.5" type="line"/>
      <point x="171.0" y="546.5" type="line"/>
      <point x="187.5" y="569.0" type="line"/>
      <point x="31.0" y="578.5" type="line"/>
      <point x="31.0" y="496.5" type="line"/>
      <point x="187.5" y="505.0" type="line"/>
      <point x="170.0" y="527.5" type="line"/>
      <point x="86.0" y="397.5" type="line"/>
    </contour>
  </outline>
</glyph>
<glyph name="plus" format="2">
  <advance width="498.0"/>
  <unicode hex="002B"/>
  <outline>
    <contour>
      <point x="206.5" y="67.0" type="line"/>
      <point x="291.5" y="67.0" type="line"/>
      <point x="291.5" y="246.0" type="line"/>
      <point x="466.0" y="246.0" type="line"/>
      <point x="466.0" y="326.0" type="line"/>
      <point x="291.5" y="326.0" type="line"/>
      <point x="291.5" y="501.0" type="line"/>
      <point x="206.5" y="501.0" type="line"/>
      <point x="206.5" y="326.0" type="line"/>
      <point x="32.0" y="326.0" type="line"/>
      <point x="32.0" y="246.0" type="line"/>
      <point x="206.5" y="246.0" type="line"/>
    </contour>
  </outline>
</glyph>
<glyph name="comma" format="2">
  <advance width="217.0"/>
  <unicode hex="002C"/>
  <outline>
    <contour>
      <point x="101.0" y="-129.5" type="line"/>
      <point x="150.5" y="-76.5"/>
      <point x="171.0" y="-25.5"/>
      <point x="171.0" y="41.5" type="curve" smooth="yes"/>
      <point x="171.0" y="128.5" type="line"/>
      <point x="46.0" y="128.5" type="line"/>
      <point x="46.0" y="0.0" type="line"/>
      <point x="130.0" y="0.0" type="line"/>
      <point x="104.5" y="27.5" type="line"/>
      <point x="104.5" y="-19.0"/>
      <point x="91.0" y="-52.0"/>
      <point x="54.5" y="-93.0" type="curve"/>
    </contour>
  </outline>
</glyph>
<glyph name="hyphen" format="2">
  <advance width="364.5"/>
  <unicode hex="002D"/>
  <outline>
    <contour>
      <point x="59.0" y="222.0" type="line"/>
      <point x="305.5" y="222.0" type="line"/>
      <point x="305.5" y="313.5" type="line"/>
      <point x="59.0" y="313.5" type="line"/>
    </contour>
  </outline>
</glyph>
<glyph name="period" format="2">
  <advance width="217.0"/>
  <unicode hex="002E"/>
  <outline>
    <contour>
      <point x="46.0" y="0.0" type="line"/>
      <point x="171.0" y="0.0" type="line"/>
      <point x="171.0" y="128.5" type="line"/>
      <point x="46.0" y="128.5" type="line"/>
    </contour>
  </outline>
</glyph>
<glyph name="slash" format="2">
  <advance width="272.0"/>
  <unicode hex="002F"/>
  <outline>
    <contour>
      <point x="73.0" y="-71.0" type="line"/>
      <point x="285.5" y="737.5" type="line"/>
      <point x="199.0" y="760.0" type="line"/>
      <point x="-13.5" y="-48.5" type="line"/>
    </contour>
  </outline>
</glyph>
<glyph name="zero" format="2">
  <advance width="498.0"/>
  <unicode hex="0030"/>
  <outline>
    <contour>
      <point x="249.0" y="-10.0" type="curve" smooth="yes"/>
      <point x="392.5" y="-10.0"/>
      <point x="461.0" y="109.0"/>
      <point x="461.0" y="353.5" type="curve" smooth="yes"/>
      <point x="461.0" y="597.0"/>
      <point x="392.5" y="715.0"/>
      <point x="249.0" y="715.0" type="curve" smooth="yes"/>
      <point x="106.0" y="715.0"/>
      <point x="37.0" y="597.0"/>
      <point x="37.0" y="352.0" type="curve" smooth="yes"/>
      <point x="37.0" y="108.5"/>
      <point x="106.0" y="-10.0"/>
    </contour>
    <contour>
      <point x="249.0" y="86.0" type="curve" smooth="yes"/>
      <point x="178.5" y="86.0"/>
      <point x="149.5" y="161.0"/>
      <point x="149.5" y="352.5" type="curve" smooth="yes"/>
      <point x="149.5" y="542.5"/>
      <point x="178.5" y="619.0"/>
      <point x="249.0" y="619.0" type="curve" smooth="yes"/>
      <point x="320.0" y="619.0"/>
      <point x="348.5" y="543.0"/>
      <point x="348.5" y="353.5" type="curve" smooth="yes"/>
      <point x="348.5" y="161.5"/>
      <point x="319.5" y="86.0"/>
    </contour>
  </outline>
</glyph>
<glyph name="one" format="2">
  <advance width="498.0"/>
  <unicode hex="0031"/>
  <outline>
    <contour>
      <point x="88.0" y="0.0" type="line"/>
      <point x="454.0" y="0.0" type="line"/>
      <point x="454.0" y="94.5" type="line"/>
      <point x="334.0" y="94.5" type="line"/>
      <point x="334.0" y="705.0" type="line"/>
      <point x="241.0" y="705.0" type="line"/>
      <point x="67.5" y="600.5" type="line"/>
      <point x="111.0" y="516.0" type="line"/>
      <point x="263.0" y="608.0" type="line"/>
      <point x="217.0" y="608.0" type="line"/>
      <point x="217.0" y="94.5" type="line"/>
      <point x="88.0" y="94.5" type="line"/>
    </contour>
  </outline>
</glyph>
<glyph name="two" format="2">
  <advance width="498.0"/>
  <unicode hex="0032"/>
  <outline>
    <contour>
      <point x="68.5" y="0.0" type="line"/>
      <point x="452.5" y="0.0" type="line"/>
      <point x="452.5" y="94.5" type="line"/>
      <point x="178.0" y="94.5" type="line"/>
      <point x="182.5" y="70.0" type="line"/>
      <point x="327.0" y="270.5" type="line" smooth="yes"/>
      <point x="376.5" y="340.0"/>
      <point x="431.5" y="427.5"/>
      <point x="431.5" y="525.0" type="curve" smooth="yes"/>
      <point x="431.5" y="644.0"/>
      <point x="362.5" y="715.0"/>
      <point x="239.5" y="715.0" type="curve" smooth="yes"/>
      <point x="163.5" y="715.0"/>
      <point x="89.5" y="687.0"/>
      <point x="42.5" y="640.0" type="curve"/>
      <point x="78.5" y="552.5" type="line"/>
      <point x="118.5" y="593.5"/>
      <point x="169.5" y="616.0"/>
      <point x="218.0" y="616.0" type="curve" smooth="yes"/>
      <point x="283.0" y="616.0"/>
      <point x="315.5" y="579.0"/>
      <point x="315.5" y="508.5" type="curve" smooth="yes"/>
      <point x="315.5" y="449.0"/>
      <point x="287.5" y="389.0"/>
      <point x="247.0" y="332.5" type="curve" smooth="yes"/>
      <point x="68.5" y="86.5" type="line"/>
    </contour>
  </outline>
</glyph>
<glyph name="three" format="2">
  <advance width="498.0"/>
  <unicode hex="0033"/>
  <outline>
    <contour>
      <point x="230.0" y="-10.0" type="curve" smooth="yes"/>
      <point x="364.5" y="-10.0"/>
      <point x="448.5" y="71.5"/>
      <point x="448.5" y="193.0" type="curve" smooth="yes"/>
      <point x="448.5" y="288.0"/>
      <point x="400.5" y="353.5"/>
      <point x="320.0" y="370.5" type="curve"/>
      <point x="320.0" y="359.0" type="line"/>
      <point x="388.5" y="380.5"/>
      <point x="431.0" y="445.0"/>
      <point x="431.0" y="531.5" type="curve" smooth="yes"/>
      <point x="431.0" y="642.5"/>
      <point x="359.0" y="715.0"/>
      <point x="239.0" y="715.0" type="curve" smooth="yes"/>
      <point x="163.5" y="715.0"/>
      <point x="90.0" y="687.0"/>
      <point x="43.5" y="638.5" type="curve"/>
      <point x="79.0" y="549.5" type="line"/>
      <point x="123.0" y="593.0"/>
      <point x="169.0" y="615.5"/>
      <point x="220.0" y="615.5" type="curve" smooth="yes"/>
      <point x="286.0" y="615.5"/>
      <point x="318.0" y="580.5"/>
      <point x="318.0" y="515.5" type="curve" smooth="yes"/>
      <point x="318.0" y="445.5"/>
      <point x="282.0" y="405.0"/>
      <point x="219.0" y="405.0" type="curve" smooth="yes"/>
      <point x="143.5" y="405.0" type="line"/>
      <point x="143.5" y="307.5" type="line"/>
      <point x="226.5" y="307.5" type="line" smooth="yes"/>
      <point x="294.5" y="307.5"/>
      <point x="335.0" y="273.0"/>
      <point x="335.0" y="200.5" type="curve" smooth="yes"/>
      <point x="335.0" y="131.5"/>
      <point x="296.5" y="89.5"/>
      <point x="222.5" y="89.5" type="curve" smooth="yes"/>
      <point x="167.5" y="89.5"/>
      <point x="113.5" y="112.5"/>
      <point x="69.0" y="152.5" type="curve"/>
      <point x="34.0" y="62.5" type="line"/>
      <point x="79.0" y="18.0"/>
      <point x="152.5" y="-10.0"/>
    </contour>
  </outline>
</glyph>
<glyph name="four" format="2">
  <advance width="498.0"/>
  <unicode hex="0034"/>
  <outline>
    <contour>
      <point x="287.5" y="0.0" type="line"/>
      <point x="397.5" y="0.0" type="line"/>
      <point x="397.5" y="138.0" type="line"/>
      <point x="475.5" y="138.0" type="line"/>
      <point x="475.5" y="235.0" type="line"/>
      <point x="397.5" y="235.0" type="line"/>
      <point x="397.5" y="705.0" type="line"/>
      <point x="300.5" y="705.0" type="line"/>
      <point x="31.5" y="224.0" type="line"/>
      <point x="31.5" y="138.0" type="line"/>
      <point x="287.5" y="138.0" type="line"/>
    </contour>
    <contour>
      <point x="287.5" y="235.0" type="line"/>
      <point x="123.0" y="235.0" type="line"/>
      <point x="123.0" y="211.0" type="line"/>
      <point x="315.0" y="564.5" type="line"/>
      <point x="287.5" y="564.5" type="line"/>
    </contour>
  </outline>
</glyph>
<glyph name="five" format="2">
  <advance width="498.0"/>
  <unicode hex="0035"/>
  <outline>
    <contour>
      <point x="248.0" y="-10.0" type="curve" smooth="yes"/>
      <point x="384.5" y="-10.0"/>
      <point x="466.5" y="79.0"/>
      <point x="466.5" y="232.5" type="curve" smooth="yes"/>
      <point x="466.5" y="366.5"/>
      <point x="402.0" y="447.5"/>
      <point x="290.0" y="447.5" type="curve" smooth="yes"/>
      <point x="229.5" y="447.5"/>
      <point x="185.5" y="422.5"/>
      <point x="157.0" y="372.5" type="curve"/>
      <point x="179.0" y="372.5" type="line"/>
      <point x="179.0" y="610.0" type="line"/>
      <point x="428.5" y="610.0" type="line"/>
      <point x="428.5" y="705.0" type="line"/>
      <point x="69.5" y="705.0" type="line"/>
      <point x="69.5" y="281.5" type="line"/>
      <point x="147.5" y="281.5" type="line"/>
      <point x="175.0" y="329.5"/>
      <point x="207.5" y="350.5"/>
      <point x="252.0" y="350.5" type="curve" smooth="yes"/>
      <point x="318.5" y="350.5"/>
      <point x="354.0" y="304.5"/>
      <point x="354.0" y="224.0" type="curve" smooth="yes"/>
      <point x="354.0" y="136.0"/>
      <point x="314.0" y="89.5"/>
      <point x="240.0" y="89.5" type="curve" smooth="yes"/>
      <point x="189.0" y="89.5"/>
      <point x="139.0" y="110.5"/>
      <point x="90.5" y="152.5" type="curve"/>
      <point x="55.5" y="62.5" type="line"/>
      <point x="102.0" y="17.0"/>
      <point x="173.0" y="-10.0"/>
    </contour>
  </outline>
</glyph>
<glyph name="six" format="2">
  <advance width="498.0"/>
  <unicode hex="0036"/>
  <outline>
    <contour>
      <point x="261.5" y="-10.0" type="curve" smooth="yes"/>
      <point x="388.5" y="-10.0"/>
      <point x="462.5" y="80.5"/>
      <point x="462.5" y="225.5" type="curve" smooth="yes"/>
      <point x="462.5" y="361.5"/>
      <point x="397.5" y="449.5"/>
      <point x="295.0" y="449.5" type="curve" smooth="yes"/>
      <point x="207.5" y="449.5"/>
      <point x="154.0" y="387.5"/>
      <point x="145.5" y="281.0" type="curve"/>
      <point x="155.0" y="281.0" type="line"/>
      <point x="155.0" y="357.0" type="line" smooth="yes"/>
      <point x="155.0" y="503.5"/>
      <point x="186.5" y="615.5"/>
      <point x="297.0" y="615.5" type="curve" smooth="yes"/>
      <point x="344.5" y="615.5"/>
      <point x="390.5" y="595.0"/>
      <point x="429.0" y="554.5" type="curve"/>
      <point x="463.5" y="643.0" type="line"/>
      <point x="421.0" y="689.0"/>
      <point x="360.5" y="715.0"/>
      <point x="291.5" y="715.0" type="curve" smooth="yes"/>
      <point x="133.5" y="715.0"/>
      <point x="45.5" y="584.0"/>
      <point x="45.5" y="335.5" type="curve" smooth="yes"/>
      <point x="45.5" y="109.0"/>
      <point x="117.5" y="-10.0"/>
    </contour>
    <contour>
      <point x="264.5" y="84.0" type="curve" smooth="yes"/>
      <point x="207.5" y="84.0"/>
      <point x="175.0" y="132.0"/>
      <point x="175.0" y="219.5" type="curve" smooth="yes"/>
      <point x="175.0" y="308.0"/>
      <point x="209.0" y="357.0"/>
      <point x="265.5" y="357.0" type="curve" smooth="yes"/>
      <point x="322.0" y="357.0"/>
      <point x="354.5" y="309.0"/>
      <point x="354.5" y="221.0" type="curve" smooth="yes"/>
      <point x="354.5" y="133.0"/>
      <point x="322.0" y="84.0"/>
    </contour>
  </outline>
</glyph>
<glyph name="eight" format="2">
  <advance width="498.0"/>
  <unicode hex="0038"/>
  <outline>
    <contour>
      <point x="249.0" y="-10.0" type="curve" smooth="yes"/>
      <point x="386.0" y="-10.0"/>
      <point x="465.5" y="64.0"/>
      <point x="465.5" y="187.5" type="curve" smooth="yes"/>
      <point x="465.5" y="293.0"/>
      <point x="408.0" y="366.0"/>
      <point x="321.0" y="370.0" type="curve"/>
      <point x="321.0" y="348.5" type="line"/>
      <point x="398.5" y="359.5"/>
      <point x="451.5" y="429.0"/>
      <point x="451.5" y="525.0" type="curve" smooth="yes"/>
      <point x="451.5" y="643.0"/>
      <point x="375.0" y="715.0"/>
      <point x="249.0" y="715.0" type="curve" smooth="yes"/>
      <point x="124.0" y="715.0"/>
      <point x="47.5" y="643.0"/>
      <point x="47.5" y="525.0" type="curve" smooth="yes"/>
      <point x="47.5" y="429.5"/>
      <point x="100.5" y="360.0"/>
      <point x="177.0" y="348.5" type="curve"/>
      <point x="177.0" y="370.0" type="line"/>
      <point x="91.0" y="365.5"/>
      <point x="32.5" y="292.5"/>
      <point x="32.5" y="187.5" type="curve" smooth="yes"/>
      <point x="32.5" y="64.0"/>
      <point x="112.0" y="-10.0"/>
    </contour>
    <contour>
      <point x="249.0" y="82.0" type="curve" smooth="yes"/>
      <point x="179.0" y="82.0"/>
      <point x="140.5" y="122.5"/>
      <point x="140.5" y="198.0" type="curve" smooth="yes"/>
      <point x="140.5" y="273.5"/>
      <point x="177.5" y="311.0"/>
      <point x="249.0" y="311.0" type="curve" smooth="yes"/>
      <point x="321.5" y="311.0"/>
      <point x="357.5" y="273.5"/>
      <point x="357.5" y="198.0" type="curve" smooth="yes"/>
      <point x="357.5" y="122.5"/>
      <point x="320.5" y="82.0"/>
    </contour>
    <contour>
      <point x="249.0" y="403.0" type="curve" smooth="yes"/>
      <point x="190.0" y="403.0"/>
      <point x="155.5" y="443.0"/>
      <point x="155.5" y="514.0" type="curve" smooth="yes"/>
      <point x="155.5" y="584.5"/>
      <point x="189.5" y="623.0"/>
      <point x="249.0" y="623.0" type="curve" smooth="yes"/>
      <point x="308.5" y="623.0"/>
      <point x="343.5" y="584.5"/>
      <point x="343.5" y="514.0" type="curve" smooth="yes"/>
      <point x="343.5" y="443.0"/>
      <point x="308.0" y="403.0"/>
    </contour>
  </outline>
</glyph>
<glyph name="nine" format="2">
  <advance width="498.0"/>
  <unicode hex="0039"/>
  <outline>
    <contour>
      <point x="208.0" y="-10.0" type="curve" smooth="yes"/>
      <point x="365.0" y="-10.0"/>
      <point x="453.0" y="122.0"/>
      <point x="453.0" y="369.5" type="curve" smooth="yes"/>
      <point x="453.0" y="596.0"/>
      <point x="382.0" y="715.0"/>
      <point x="237.0" y="715.0" type="curve" smooth="yes"/>
      <point x="111.0" y="715.0"/>
      <point x="36.0" y="625.5"/>
      <point x="36.0" y="479.5" type="curve" smooth="yes"/>
      <point x="36.0" y="343.5"/>
      <point x="102.0" y="255.5"/>
      <point x="203.5" y="255.5" type="curve" smooth="yes"/>
      <point x="292.0" y="255.5"/>
      <point x="345.5" y="317.5"/>
      <point x="353.0" y="424.0" type="curve"/>
      <point x="344.5" y="424.0" type="line"/>
      <point x="344.5" y="348.0" type="line" smooth="yes"/>
      <point x="344.5" y="201.5"/>
      <point x="313.0" y="89.5"/>
      <point x="201.5" y="89.5" type="curve" smooth="yes"/>
      <point x="154.0" y="89.5"/>
      <point x="108.0" y="111.0"/>
      <point x="70.5" y="151.5" type="curve"/>
      <point x="35.0" y="63.0" type="line"/>
      <point x="78.5" y="17.0"/>
      <point x="138.0" y="-10.0"/>
    </contour>
    <contour>
      <point x="234.0" y="349.0" type="curve" smooth="yes"/>
      <point x="177.5" y="349.0"/>
      <point x="145.0" y="396.0"/>
      <point x="145.0" y="484.0" type="curve" smooth="yes"/>
      <point x="145.0" y="572.0"/>
      <point x="177.5" y="622.0"/>
      <point x="235.0" y="622.0" type="curve" smooth="yes"/>
      <point x="292.0" y="622.0"/>
      <point x="324.5" y="573.0"/>
      <point x="324.5" y="485.5" type="curve" smooth="yes"/>
      <point x="324.5" y="397.0"/>
      <point x="290.5" y="349.0"/>
    </contour>
  </outline>
</glyph>
<glyph name="colon" format="2">
  <advance width="217.0"/>
  <unicode hex="003A"/>
  <outline>
    <contour>
      <point x="46.0" y="361.0" type="line"/>
      <point x="171.0" y="361.0" type="line"/>
      <point x="171.0" y="489.0" type="line"/>
      <point x="46.0" y="489.0" type="line"/>
    </contour>
    <contour>
      <point x="46.0" y="0.0" type="line"/>
      <point x="171.0" y="0.0" type="line"/>
      <point x="171.0" y="129.0" type="line"/>
      <point x="46.0" y="129.0" type="line"/>
    </contour>
  </outline>
</glyph>
<glyph name="semicolon" format="2">
  <advance width="217.0"/>
  <unicode hex="003B"/>
  <outline>
    <contour>
      <point x="101.0" y="-133.0" type="line"/>
      <point x="150.5" y="-80.0"/>
      <point x="171.0" y="-29.0"/>
      <point x="171.0" y="38.0" type="curve" smooth="yes"/>
      <point x="171.0" y="128.5" type="line"/>
      <point x="46.0" y="128.5" type="line"/>
      <point x="46.0" y="0.0" type="line"/>
      <point x="130.5" y="0.0" type="line"/>
      <point x="104.5" y="24.0" type="line"/>
      <point x="104.5" y="-22.5"/>
      <point x="91.0" y="-55.0"/>
      <point x="54.5" y="-96.0" type="curve"/>
    </contour>
    <contour>
      <point x="46.0" y="361.0" type="line"/>
      <point x="171.0" y="361.0" type="line"/>
      <point x="171.0" y="489.0" type="line"/>
      <point x="46.0" y="489.0" type="line"/>
    </contour>
  </outline>
</glyph>
<glyph name="less" format="2">
  <advance width="498.0"/>
  <unicode hex="003C"/>
  <outline>
    <contour>
      <point x="466.0" y="38.5" type="line"/>
      <point x="466.0" y="128.0" type="line"/>
      <point x="65.5" y="315.5" type="line"/>
      <point x="65.5" y="259.0" type="line"/>
      <point x="466.0" y="446.0" type="line"/>
      <point x="466.0" y="536.5" type="line"/>
      <point x="32.0" y="330.5" type="line"/>
      <point x="32.0" y="244.0" type="line"/>
    </contour>
  </outline>
</glyph>
<glyph name="greater" format="2">
  <advance width="498.0"/>
  <unicode hex="003E"/>
  <outline>
    <contour>
      <point x="32.0" y="38.5" type="line"/>
      <point x="466.0" y="244.0" type="line"/>
      <point x="466.0" y="330.5" type="line"/>
      <point x="32.0" y="536.5" type="line"/>
      <point x="32.0" y="446.0" type="line"/>
      <point x="433.5" y="260.0" type="line"/>
      <point x="433.5" y="314.5" type="line"/>
      <point x="32.0" y="128.0" type="line"/>
    </contour>
  </outline>
</glyph>
<glyph name="question" format="2">
  <advance width="386.5"/>
  <unicode hex="003F"/>
  <outline>
    <contour>
      <point x="153.5" y="202.5" type="line"/>
      <point x="222.0" y="202.5" type="line"/>
      <point x="224.5" y="230.5" type="line" smooth="yes"/>
      <point x="229.0" y="272.0"/>
      <point x="238.5" y="304.5"/>
      <point x="295.5" y="375.0" type="curve" smooth="yes"/>
      <point x="341.0" y="426.0"/>
      <point x="372.0" y="474.0"/>
      <point x="372.0" y="547.0" type="curve" smooth="yes"/>
      <point x="372.0" y="653.5"/>
      <point x="305.0" y="715.0"/>
      <point x="198.0" y="715.0" type="curve" smooth="yes"/>
      <point x="125.5" y="715.0"/>
      <point x="53.0" y="686.0"/>
      <point x="7.0" y="640.0" type="curve"/>
      <point x="41.0" y="552.5" type="line"/>
      <point x="88.5" y="596.5"/>
      <point x="132.5" y="616.0"/>
      <point x="178.5" y="616.0" type="curve" smooth="yes"/>
      <point x="230.5" y="616.0"/>
      <point x="256.0" y="590.0"/>
      <point x="256.0" y="535.5" type="curve" smooth="yes"/>
      <point x="256.0" y="486.5"/>
      <point x="236.0" y="455.0"/>
      <point x="213.0" y="419.5" type="curve" smooth="yes"/>
      <point x="158.0" y="334.0"/>
      <point x="153.5" y="287.5"/>
      <point x="153.5" y="239.5" type="curve" smooth="yes"/>
    </contour>
    <contour>
      <point x="125.0" y="0.0" type="line"/>
      <point x="250.5" y="0.0" type="line"/>
      <point x="250.5" y="128.5" type="line"/>
      <point x="125.0" y="128.5" type="line"/>
    </contour>
  </outline>
</glyph>
<glyph name="at" format="2">
  <advance width="805.0"/>
  <unicode hex="0040"/>
  <outline>
    <contour>
      <point x="409.0" y="-164.5" type="curve" smooth="yes"/>
      <point x="504.0" y="-164.5"/>
      <point x="587.0" y="-132.5"/>
      <point x="641.0" y="-75.5" type="curve"/>
      <point x="603.0" y="-19.0" type="line"/>
      <point x="558.0" y="-66.5"/>
      <point x="490.5" y="-92.5"/>
      <point x="411.0" y="-92.5" type="curve" smooth="yes"/>
      <point x="232.5" y="-92.5"/>
      <point x="128.0" y="37.5"/>
      <point x="128.0" y="263.5" type="curve" smooth="yes"/>
      <point x="128.0" y="498.5"/>
      <point x="242.5" y="642.5"/>
      <point x="430.0" y="642.5" type="curve" smooth="yes"/>
      <point x="590.5" y="642.5"/>
      <point x="679.5" y="534.5"/>
      <point x="679.5" y="333.5" type="curve" smooth="yes"/>
      <point x="679.5" y="209.5"/>
      <point x="645.5" y="127.5"/>
      <point x="593.0" y="127.5" type="curve" smooth="yes"/>
      <point x="568.0" y="127.5"/>
      <point x="555.5" y="146.5"/>
      <point x="555.5" y="185.0" type="curve" smooth="yes"/>
      <point x="555.5" y="198.5"/>
      <point x="557.5" y="217.5"/>
      <point x="561.0" y="242.5" type="curve" smooth="yes"/>
      <point x="594.0" y="488.5" type="line"/>
      <point x="509.0" y="488.5" type="line"/>
      <point x="495.5" y="394.5" type="line"/>
      <point x="510.5" y="394.5" type="line"/>
      <point x="496.0" y="465.0"/>
      <point x="461.5" y="498.5"/>
      <point x="403.0" y="498.5" type="curve" smooth="yes"/>
      <point x="299.5" y="498.5"/>
      <point x="228.5" y="395.0"/>
      <point x="228.5" y="246.5" type="curve" smooth="yes"/>
      <point x="228.5" y="125.5"/>
      <point x="275.5" y="59.0"/>
      <point x="362.0" y="59.0" type="curve" smooth="yes"/>
      <point x="431.0" y="59.0"/>
      <point x="479.0" y="102.5"/>
      <point x="507.5" y="192.0" type="curve"/>
      <point x="478.5" y="186.5" type="line"/>
      <point x="480.5" y="105.0"/>
      <point x="518.0" y="59.0"/>
      <point x="585.5" y="59.0" type="curve" smooth="yes"/>
      <point x="689.5" y="59.0"/>
      <point x="758.0" y="170.0"/>
      <point x="758.0" y="341.5" type="curve" smooth="yes"/>
      <point x="758.0" y="573.5"/>
      <point x="630.0" y="715.0"/>
      <point x="429.0" y="715.0" type="curve" smooth="yes"/>
      <point x="198.0" y="715.0"/>
      <point x="47.0" y="530.0"/>
      <point x="47.0" y="261.5" type="curve" smooth="yes"/>
      <point x="47.0" y="0.0"/>
      <point x="187.5" y="-164.5"/>
    </contour>
    <contour>
      <point x="383.0" y="132.5" type="curve" smooth="yes"/>
      <point x="339.5" y="132.5"/>
      <point x="318.5" y="170.0"/>
      <point x="318.5" y="248.5" type="curve" smooth="yes"/>
      <point x="318.5" y="357.0"/>
      <point x="358.0" y="423.5"/>
      <point x="422.0" y="423.5" type="curve" smooth="yes"/>
      <point x="465.5" y="423.5"/>
      <point x="483.5" y="392.5"/>
      <point x="483.5" y="317.0" type="curve" smooth="yes"/>
      <point x="483.5" y="204.5"/>
      <point x="444.0" y="132.5"/>
    </contour>
  </outline>
</glyph>
<glyph name="A" format="2">
  <advance width="616.5"/>
  <unicode hex="0041"/>
  <anchor x="308.5" y="0.0" name="bottom"/>
  <anchor x="573.0" y="0.0" name="ogonek"/>
  <anchor x="309.0" y="705.0" name="top"/>
  <outline>
    <contour>
      <point x="-1.0" y="0.0" type="line"/>
      <point x="117.0" y="0.0" type="line"/>
      <point x="181.5" y="198.5" type="line"/>
      <point x="137.5" y="167.5" type="line"/>
      <point x="478.0" y="167.5" type="line"/>
      <point x="434.0" y="198.5" type="line"/>
      <point x="499.0" y="0.0" type="line"/>
      <point x="618.5" y="0.0" type="line"/>
      <point x="357.5" y="705.0" type="line"/>
      <point x="260.0" y="705.0" type="line"/>
    </contour>
    <contour>
      <point x="307.0" y="578.5" type="line"/>
      <point x="308.0" y="578.5" type="line"/>
      <point x="422.5" y="232.5" type="line"/>
      <point x="438.0" y="260.5" type="line"/>
      <point x="177.0" y="260.5" type="line"/>
      <point x="193.0" y="232.5" type="line"/>
    </contour>
  </outline>
</glyph>
<glyph name="B" format="2">
  <advance width="571.0"/>
  <unicode hex="0042"/>
  <anchor x="285.5" y="0.0" name="bottom"/>
  <anchor x="286.0" y="705.0" name="top"/>
  <outline>
    <contour>
      <point x="64.5" y="0.0" type="line"/>
      <point x="322.0" y="0.0" type="line" smooth="yes"/>
      <point x="448.0" y="0.0"/>
      <point x="527.0" y="73.5"/>
      <point x="527.0" y="196.5" type="curve" smooth="yes"/>
      <point x="527.0" y="293.0"/>
      <point x="483.0" y="354.5"/>
      <point x="401.0" y="369.5" type="curve"/>
      <point x="401.0" y="354.5" type="line"/>
      <point x="472.5" y="375.0"/>
      <point x="511.5" y="435.5"/>
      <point x="511.5" y="523.0" type="curve" smooth="yes"/>
      <point x="511.5" y="637.5"/>
      <point x="436.5" y="705.0"/>
      <point x="313.5" y="705.0" type="curve" smooth="yes"/>
      <point x="64.5" y="705.0" type="line"/>
    </contour>
    <contour>
      <point x="176.5" y="89.0" type="line"/>
      <point x="176.5" y="313.0" type="line"/>
      <point x="307.5" y="313.0" type="line" smooth="yes"/>
      <point x="379.5" y="313.0"/>
      <point x="413.5" y="276.5"/>
      <point x="413.5" y="201.0" type="curve" smooth="yes"/>
      <point x="413.5" y="128.0"/>
      <point x="377.5" y="89.0"/>
      <point x="305.5" y="89.0" type="curve" smooth="yes"/>
    </contour>
    <contour>
      <point x="176.5" y="402.0" type="line"/>
      <point x="176.5" y="616.0" type="line"/>
      <point x="292.0" y="616.0" type="line" smooth="yes"/>
      <point x="362.5" y="616.0"/>
      <point x="398.5" y="579.5"/>
      <point x="398.5" y="510.5" type="curve" smooth="yes"/>
      <point x="398.5" y="441.0"/>
      <point x="361.0" y="402.0"/>
      <point x="293.5" y="402.0" type="curve" smooth="yes"/>
    </contour>
  </outline>
</glyph>
<glyph name="C" format="2">
  <advance width="562.0"/>
  <unicode hex="0043"/>
  <anchor x="324.0" y="0.0" name="bottom"/>
  <anchor x="324.0" y="705.0" name="top"/>
  <outline>
    <contour>
      <point x="332.5" y="-10.0" type="curve" smooth="yes"/>
      <point x="414.0" y="-10.0"/>
      <point x="483.0" y="17.0"/>
      <point x="530.5" y="66.0" type="curve"/>
      <point x="496.0" y="158.5" type="line"/>
      <point x="449.5" y="114.5"/>
      <point x="400.5" y="94.0"/>
      <point x="342.5" y="94.0" type="curve" smooth="yes"/>
      <point x="225.5" y="94.0"/>
      <point x="170.5" y="176.5"/>
      <point x="170.5" y="353.0" type="curve" smooth="yes"/>
      <point x="170.5" y="529.5"/>
      <point x="225.0" y="611.0"/>
      <point x="342.0" y="611.0" type="curve" smooth="yes"/>
      <point x="400.0" y="611.0"/>
      <point x="449.5" y="590.5"/>
      <point x="496.5" y="546.5" type="curve"/>
      <point x="530.5" y="639.0" type="line"/>
      <point x="483.5" y="689.0"/>
      <point x="414.5" y="715.0"/>
      <point x="333.0" y="715.0" type="curve" smooth="yes"/>
      <point x="151.0" y="715.0"/>
      <point x="47.0" y="584.0"/>
      <point x="47.0" y="352.5" type="curve" smooth="yes"/>
      <point x="47.0" y="121.0"/>
      <point x="150.5" y="-10.0"/>
    </contour>
  </outline>
</glyph>
<glyph name="D" format="2">
  <advance width="633.0"/>
  <unicode hex="0044"/>
  <anchor x="314.5" y="0.0" name="bottom"/>
  <anchor x="163.5" y="358.0" name="center"/>
  <anchor x="315.0" y="705.0" name="top"/>
  <outline>
    <contour>
      <point x="64.5" y="0.0" type="line"/>
      <point x="290.0" y="0.0" type="line" smooth="yes"/>
      <point x="485.0" y="0.0"/>
      <point x="587.0" y="121.5"/>
      <point x="587.0" y="353.0" type="curve" smooth="yes"/>
      <point x="587.0" y="584.5"/>
      <point x="485.0" y="705.0"/>
      <point x="290.0" y="705.0" type="curve" smooth="yes"/>
      <point x="64.5" y="705.0" type="line"/>
    </contour>
    <contour>
      <point x="181.5" y="98.0" type="line"/>
      <point x="181.5" y="607.0" type="line"/>
      <point x="283.0" y="607.0" type="line" smooth="yes"/>
      <point x="409.5" y="607.0"/>
      <point x="465.0" y="530.5"/>
      <point x="465.0" y="353.0" type="curve" smooth="yes"/>
      <point x="465.0" y="175.5"/>
      <point x="410.5" y="98.0"/>
      <point x="283.0" y="98.0" type="curve" smooth="yes"/>
    </contour>
  </outline>
</glyph>
<glyph name="E" format="2">
  <advance width="497.5"/>
  <unicode hex="0045"/>
  <anchor x="272.0" y="0.0" name="bottom"/>
  <anchor x="408.5" y="0.0" name="ogonek"/>
  <anchor x="272.0" y="705.0" name="top"/>
  <anchor x="23.0" y="705.0" name="topleft"/>
  <outline>
    <contour>
      <point x="64.5" y="0.0" type="line"/>
      <point x="451.0" y="0.0" type="line"/>
      <point x="451.0" y="93.5" type="line"/>
      <point x="176.5" y="93.5" type="line"/>
      <point x="176.5" y="311.0" type="line"/>
      <point x="429.0" y="311.0" type="line"/>
      <point x="429.0" y="404.5" type="line"/>
      <point x="176.5" y="404.5" type="line"/>
      <point x="176.5" y="611.5" type="line"/>
      <point x="451.0" y="611.5" type="line"/>
      <point x="451.0" y="705.0" type="line"/>
      <point x="64.5" y="705.0" type="line"/>
    </contour>
  </outline>
</glyph>
<glyph name="F" format="2">
  <advance width="469.0"/>
  <unicode hex="0046"/>
  <anchor x="249.5" y="0.0" name="bottom"/>
  <anchor x="252.0" y="705.0" name="top"/>
  <outline>
    <contour>
      <point x="64.5" y="0.0" type="line"/>
      <point x="181.5" y="0.0" type="line"/>
      <point x="181.5" y="306.5" type="line"/>
      <point x="428.0" y="306.5" type="line"/>
      <point x="428.0" y="400.0" type="line"/>
      <point x="181.5" y="400.0" type="line"/>
      <point x="181.5" y="611.5" type="line"/>
      <point x="445.0" y="611.5" type="line"/>
      <point x="445.0" y="705.0" type="line"/>
      <point x="64.5" y="705.0" type="line"/>
    </contour>
  </outline>
</glyph>
<glyph name="G" format="2">
  <advance width="608.5"/>
  <unicode hex="0047"/>
  <anchor x="338.5" y="0.0" name="bottom"/>
  <anchor x="332.5" y="705.0" name="top"/>
  <outline>
    <contour>
      <point x="343.0" y="-10.0" type="curve" smooth="yes"/>
      <point x="415.5" y="-10.0"/>
      <point x="494.5" y="8.5"/>
      <point x="549.0" y="37.0" type="curve"/>
      <point x="549.0" y="377.5" type="line"/>
      <point x="326.0" y="377.5" type="line"/>
      <point x="326.0" y="290.5" type="line"/>
      <point x="451.0" y="290.5" type="line"/>
      <point x="451.0" y="79.0" type="line"/>
      <point x="481.5" y="117.0" type="line"/>
      <point x="434.5" y="100.0"/>
      <point x="389.5" y="90.5"/>
      <point x="348.5" y="90.5" type="curve" smooth="yes"/>
      <point x="224.5" y="90.5"/>
      <point x="169.0" y="172.5"/>
      <point x="169.0" y="352.5" type="curve" smooth="yes"/>
      <point x="169.0" y="532.0"/>
      <point x="225.0" y="612.5"/>
      <point x="349.0" y="612.5" type="curve" smooth="yes"/>
      <point x="410.0" y="612.5"/>
      <point x="461.5" y="593.5"/>
      <point x="512.0" y="551.5" type="curve"/>
      <point x="547.0" y="642.5" type="line"/>
      <point x="497.0" y="689.5"/>
      <point x="426.0" y="715.0"/>
      <point x="343.5" y="715.0" type="curve" smooth="yes"/>
      <point x="153.5" y="715.0"/>
      <point x="47.0" y="585.0"/>
      <point x="47.0" y="351.0" type="curve" smooth="yes"/>
      <point x="47.0" y="116.5"/>
      <point x="151.0" y="-10.0"/>
    </contour>
  </outline>
</glyph>
<glyph name="H" format="2">
  <advance width="638.5"/>
  <unicode hex="0048"/>
  <anchor x="319.5" y="0.0" name="bottom"/>
  <anchor x="319.5" y="559.0" name="center"/>
  <anchor x="319.0" y="705.0" name="top"/>
  <anchor x="23.0" y="705.0" name="topleft"/>
  <outline>
    <contour>
      <point x="64.5" y="0.0" type="line"/>
      <point x="181.5" y="0.0" type="line"/>
      <point x="181.5" y="308.5" type="line"/>
      <point x="457.0" y="308.5" type="line"/>
      <point x="457.0" y="0.0" type="line"/>
      <point x="574.0" y="0.0" type="line"/>
      <point x="574.0" y="705.0" type="line"/>
      <point x="457.0" y="705.0" type="line"/>
      <point x="457.0" y="406.5" type="line"/>
      <point x="181.5" y="406.5" type="line"/>
      <point x="181.5" y="705.0" type="line"/>
      <point x="64.5" y="705.0" type="line"/>
    </contour>
  </outline>
</glyph>
<glyph name="J" format="2">
  <advance width="306.5"/>
  <unicode hex="004A"/>
  <anchor x="183.0" y="0.0" name="bottom"/>
  <anchor x="182.5" y="705.0" name="top"/>
  <outline>
    <contour>
      <point x="5.0" y="-9.0" type="line"/>
      <point x="76.0" y="-4.5" type="line" smooth="yes"/>
      <point x="189.0" y="4.5"/>
      <point x="242.0" y="64.0"/>
      <point x="242.0" y="180.0" type="curve" smooth="yes"/>
      <point x="242.0" y="705.0" type="line"/>
      <point x="125.0" y="705.0" type="line"/>
      <point x="125.0" y="181.0" type="line" smooth="yes"/>
      <point x="125.0" y="124.0"/>
      <point x="104.0" y="95.5"/>
      <point x="57.0" y="91.5" type="curve" smooth="yes"/>
      <point x="-4.0" y="87.5" type="line"/>
    </contour>
  </outline>
</glyph>
<glyph name="K" format="2">
  <advance width="559.0"/>
  <unicode hex="004B"/>
  <anchor x="278.5" y="0.0" name="bottom"/>
  <anchor x="279.0" y="705.0" name="top"/>
  <anchor x="23.0" y="705.0" name="topleft"/>
  <outline>
    <contour>
      <point x="64.5" y="0.0" type="line"/>
      <point x="181.5" y="0.0" type="line"/>
      <point x="181.5" y="327.5" type="line"/>
      <point x="183.5" y="327.5" type="line"/>
      <point x="436.5" y="0.0" type="line"/>
      <point x="580.0" y="0.0" type="line"/>
      <point x="271.0" y="392.5" type="line"/>
      <point x="271.0" y="338.5" type="line"/>
      <point x="567.0" y="705.0" type="line"/>
      <point x="427.0" y="705.0" type="line"/>
      <point x="183.5" y="391.0" type="line"/>
      <point x="181.5" y="391.0" type="line"/>
      <point x="181.5" y="705.0" type="line"/>
      <point x="64.5" y="705.0" type="line"/>
    </contour>
  </outline>
</glyph>
<glyph name="L" format="2">
  <advance width="471.0"/>
  <unicode hex="004C"/>
  <anchor x="256.5" y="0.0" name="bottom"/>
  <anchor x="160.5" y="387.0" name="center"/>
  <anchor x="355.5" y="392.5" name="dot"/>
  <anchor x="123.0" y="705.0" name="top"/>
  <anchor x="264.5" y="705.0" name="topright"/>
  <outline>
    <contour>
      <point x="64.5" y="0.0" type="line"/>
      <point x="449.5" y="0.0" type="line"/>
      <point x="449.5" y="100.0" type="line"/>
      <point x="181.5" y="100.0" type="line"/>
      <point x="181.5" y="705.0" type="line"/>
      <point x="64.5" y="705.0" type="line"/>
    </contour>
  </outline>
</glyph>
<glyph name="M" format="2">
  <advance width="721.5"/>
  <unicode hex="004D"/>
  <anchor x="361.5" y="0.0" name="bottom"/>
  <anchor x="361.5" y="705.0" name="top"/>
  <outline>
    <contour>
      <point x="66.5" y="0.0" type="line"/>
      <point x="174.5" y="0.0" type="line"/>
      <point x="174.5" y="533.5" type="line"/>
      <point x="157.0" y="533.5" type="line"/>
      <point x="328.5" y="115.5" type="line"/>
      <point x="392.5" y="115.5" type="line"/>
      <point x="564.0" y="532.5" type="line"/>
      <point x="548.0" y="532.5" type="line"/>
      <point x="548.0" y="0.0" type="line"/>
      <point x="656.0" y="0.0" type="line"/>
      <point x="656.0" y="705.0" type="line"/>
      <point x="543.0" y="705.0" type="line"/>
      <point x="345.5" y="221.0" type="line"/>
      <point x="380.0" y="221.0" type="line"/>
      <point x="181.5" y="705.0" type="line"/>
      <point x="66.5" y="705.0" type="line"/>
    </contour>
  </outline>
</glyph>
<glyph name="N" format="2">
  <advance width="618.5"/>
  <unicode hex="004E"/>
  <anchor x="309.0" y="0.0" name="bottom"/>
  <anchor x="309.5" y="705.0" name="top"/>
  <outline>
    <contour>
      <point x="64.5" y="0.0" type="line"/>
      <point x="172.5" y="0.0" type="line"/>
      <point x="172.5" y="551.5" type="line"/>
      <point x="135.0" y="551.5" type="line"/>
      <point x="466.0" y="0.0" type="line"/>
      <point x="554.0" y="0.0" type="line"/>
      <point x="554.0" y="705.0" type="line"/>
      <point x="446.0" y="705.0" type="line"/>
      <point x="446.0" y="154.5" type="line"/>
      <point x="483.5" y="154.5" type="line"/>
      <point x="153.0" y="705.0" type="line"/>
      <point x="64.5" y="705.0" type="line"/>
    </contour>
  </outline>
</glyph>
<glyph name="O" format="2">
  <advance width="651.5"/>
  <unicode hex="004F"/>
  <anchor x="326.0" y="-10.0" name="Qtail"/>
  <anchor x="326.0" y="0.0" name="bottom"/>
  <anchor x="326.0" y="353.0" name="center"/>
  <anchor x="374.5" y="0.0" name="ogonek"/>
  <anchor x="326.5" y="705.0" name="top"/>
  <anchor x="26.0" y="705.0" name="topleft"/>
  <anchor x="383.5" y="705.0" name="topright"/>
  <outline>
    <contour>
      <point x="326.5" y="-10.0" type="curve" smooth="yes"/>
      <point x="502.0" y="-10.0"/>
      <point x="605.5" y="124.5"/>
      <point x="605.5" y="353.5" type="curve" smooth="yes"/>
      <point x="605.5" y="582.0"/>
      <point x="501.5" y="715.0"/>
      <point x="326.5" y="715.0" type="curve" smooth="yes"/>
      <point x="150.5" y="715.0"/>
      <point x="47.0" y="581.5"/>
      <point x="47.0" y="352.0" type="curve" smooth="yes"/>
      <point x="47.0" y="123.5"/>
      <point x="150.5" y="-10.0"/>
    </contour>
    <contour>
      <point x="326.5" y="90.5" type="curve" smooth="yes"/>
      <point x="222.5" y="90.5"/>
      <point x="169.0" y="179.5"/>
      <point x="169.0" y="352.0" type="curve" smooth="yes"/>
      <point x="169.0" y="526.0"/>
      <point x="222.5" y="614.5"/>
      <point x="326.5" y="614.5" type="curve" smooth="yes"/>
      <point x="430.5" y="614.5"/>
      <point x="483.5" y="526.5"/>
      <point x="483.5" y="353.0" type="curve" smooth="yes"/>
      <point x="483.5" y="180.0"/>
      <point x="430.0" y="90.5"/>
    </contour>
  </outline>
</glyph>
<glyph name="P" format="2">
  <advance width="544.0"/>
  <unicode hex="0050"/>
  <anchor x="276.5" y="0.0" name="bottom"/>
  <anchor x="277.0" y="705.0" name="top"/>
  <outline>
    <contour>
      <point x="64.5" y="0.0" type="line"/>
      <point x="181.5" y="0.0" type="line"/>
      <point x="181.5" y="268.5" type="line"/>
      <point x="315.5" y="268.5" type="line" smooth="yes"/>
      <point x="442.5" y="268.5"/>
      <point x="518.0" y="350.0"/>
      <point x="518.0" y="487.0" type="curve" smooth="yes"/>
      <point x="518.0" y="624.5"/>
      <point x="443.0" y="705.0"/>
      <point x="315.5" y="705.0" type="curve" smooth="yes"/>
      <point x="64.5" y="705.0" type="line"/>
    </contour>
    <contour>
      <point x="181.5" y="361.0" type="line"/>
      <point x="181.5" y="612.5" type="line"/>
      <point x="296.5" y="612.5" type="line" smooth="yes"/>
      <point x="367.0" y="612.5"/>
      <point x="405.0" y="567.5"/>
      <point x="405.0" y="487.0" type="curve" smooth="yes"/>
      <point x="405.0" y="406.5"/>
      <point x="367.0" y="361.0"/>
      <point x="296.5" y="361.0" type="curve" smooth="yes"/>
    </contour>
  </outline>
</glyph>
<glyph name="R" format="2">
  <advance width="570.5"/>
  <unicode hex="0052"/>
  <anchor x="290.0" y="0.0" name="bottom"/>
  <anchor x="289.5" y="705.0" name="top"/>
  <outline>
    <contour>
      <point x="64.5" y="0.0" type="line"/>
      <point x="181.5" y="0.0" type="line"/>
      <point x="181.5" y="282.0" type="line"/>
      <point x="247.0" y="282.0" type="line" smooth="yes"/>
      <point x="289.5" y="282.0"/>
      <point x="311.0" y="265.5"/>
      <point x="330.5" y="221.0" type="curve" smooth="yes"/>
      <point x="425.0" y="0.0" type="line"/>
      <point x="555.0" y="0.0" type="line"/>
      <point x="462.5" y="216.5" type="line" smooth="yes"/>
      <point x="438.5" y="272.5"/>
      <point x="402.5" y="300.0"/>
      <point x="357.5" y="300.0" type="curve" smooth="yes"/>
      <point x="325.5" y="300.0" type="line"/>
      <point x="318.0" y="285.0" type="line"/>
      <point x="443.5" y="285.0"/>
      <point x="518.0" y="364.0"/>
      <point x="518.0" y="495.5" type="curve" smooth="yes"/>
      <point x="518.0" y="626.5"/>
      <point x="442.0" y="705.0"/>
      <point x="314.5" y="705.0" type="curve" smooth="yes"/>
      <point x="64.5" y="705.0" type="line"/>
    </contour>
    <contour>
      <point x="181.5" y="369.5" type="line"/>
      <point x="181.5" y="612.5" type="line"/>
      <point x="294.0" y="612.5" type="line" smooth="yes"/>
      <point x="365.5" y="612.5"/>
      <point x="405.0" y="570.0"/>
      <point x="405.0" y="492.5" type="curve" smooth="yes"/>
      <point x="405.0" y="413.5"/>
      <point x="365.0" y="369.5"/>
      <point x="294.0" y="369.5" type="curve" smooth="yes"/>
    </contour>
  </outline>
</glyph>
<glyph name="S" format="2">
  <advance width="525.5"/>
  <unicode hex="0053"/>
  <anchor x="269.0" y="0.0" name="bottom"/>
  <anchor x="271.5" y="705.0" name="top"/>
  <outline>
    <contour>
      <point x="262.0" y="-10.0" type="curve" smooth="yes"/>
      <point x="404.0" y="-10.0"/>
      <point x="496.0" y="69.0"/>
      <point x="496.0" y="197.0" type="curve" smooth="yes"/>
      <point x="496.0" y="293.0"/>
      <point x="444.0" y="353.5"/>
      <point x="338.0" y="382.5" type="curve" smooth="yes"/>
      <point x="249.0" y="407.0" type="line" smooth="yes"/>
      <point x="195.5" y="422.5"/>
      <point x="168.0" y="456.5"/>
      <point x="168.0" y="507.5" type="curve" smooth="yes"/>
      <point x="168.0" y="575.0"/>
      <point x="212.5" y="615.5"/>
      <point x="287.5" y="615.5" type="curve" smooth="yes"/>
      <point x="344.0" y="615.5"/>
      <point x="401.5" y="593.0"/>
      <point x="444.0" y="552.5" type="curve"/>
      <point x="476.0" y="640.5" type="line"/>
      <point x="430.0" y="687.5"/>
      <point x="358.0" y="715.0"/>
      <point x="281.0" y="715.0" type="curve" smooth="yes"/>
      <point x="143.0" y="715.0"/>
      <point x="52.0" y="629.5"/>
      <point x="52.0" y="498.5" type="curve" smooth="yes"/>
      <point x="52.0" y="399.0"/>
      <point x="102.5" y="338.0"/>
      <point x="204.5" y="309.0" type="curve" smooth="yes"/>
      <point x="294.5" y="284.0" type="line" smooth="yes"/>
      <point x="353.5" y="267.0"/>
      <point x="380.5" y="236.5"/>
      <point x="380.5" y="187.0" type="curve" smooth="yes"/>
      <point x="380.5" y="123.0"/>
      <point x="339.0" y="89.5"/>
      <point x="261.5" y="89.5" type="curve" smooth="yes"/>
      <point x="195.0" y="89.5"/>
      <point x="126.0" y="113.5"/>
      <point x="73.5" y="155.5" type="curve"/>
      <point x="41.5" y="62.5" type="line"/>
      <point x="94.5" y="18.0"/>
      <point x="179.0" y="-10.0"/>
    </contour>
  </outline>
</glyph>
<glyph name="T" format="2">
  <advance width="518.0"/>
  <unicode hex="0054"/>
  <anchor x="259.5" y="0.0" name="bottom"/>
  <anchor x="260.0" y="358.0" name="center"/>
  <anchor x="260.0" y="705.0" name="top"/>
  <outline>
    <contour>
      <point x="201.0" y="0.0" type="line"/>
      <point x="318.0" y="0.0" type="line"/>
      <point x="318.0" y="606.5" type="line"/>
      <point x="509.5" y="606.5" type="line"/>
      <point x="509.5" y="705.0" type="line"/>
      <point x="9.5" y="705.0" type="line"/>
      <point x="9.5" y="606.5" type="line"/>
      <point x="201.0" y="606.5" type="line"/>
    </contour>
  </outline>
</glyph>
<glyph name="U" format="2">
  <advance width="611.0"/>
  <unicode hex="0055"/>
  <anchor x="305.5" y="0.0" name="bottom"/>
  <anchor x="352.5" y="0.0" name="ogonek"/>
  <anchor x="305.5" y="705.0" name="top"/>
  <anchor x="466.5" y="705.0" name="topright"/>
  <outline>
    <contour>
      <point x="306.0" y="-10.0" type="curve" smooth="yes"/>
      <point x="472.0" y="-10.0"/>
      <point x="550.5" y="76.5"/>
      <point x="550.5" y="259.5" type="curve" smooth="yes"/>
      <point x="550.5" y="705.0" type="line"/>
      <point x="434.5" y="705.0" type="line"/>
      <point x="434.5" y="261.0" type="line" smooth="yes"/>
      <point x="434.5" y="141.5"/>
      <point x="396.0" y="90.5"/>
      <point x="306.5" y="90.5" type="curve" smooth="yes"/>
      <point x="217.5" y="90.5"/>
      <point x="177.5" y="142.0"/>
      <point x="177.5" y="261.0" type="curve" smooth="yes"/>
      <point x="177.5" y="705.0" type="line"/>
      <point x="60.5" y="705.0" type="line"/>
      <point x="60.5" y="259.5" type="line" smooth="yes"/>
      <point x="60.5" y="77.0"/>
      <point x="140.0" y="-10.0"/>
    </contour>
  </outline>
</glyph>
<glyph name="V" format="2">
  <advance width="594.0"/>
  <unicode hex="0056"/>
  <anchor x="297.0" y="0.0" name="bottom"/>
  <anchor x="297.0" y="705.0" name="top"/>
  <outline>
    <contour>
      <point x="249.5" y="0.0" type="line"/>
      <point x="344.5" y="0.0" type="line"/>
      <point x="600.5" y="705.0" type="line"/>
      <point x="481.0" y="705.0" type="line"/>
      <point x="279.0" y="106.5" type="line"/>
      <point x="320.5" y="106.5" type="line"/>
      <point x="117.5" y="705.0" type="line"/>
      <point x="-6.5" y="705.0" type="line"/>
    </contour>
  </outline>
</glyph>
<glyph name="W" format="2">
  <advance width="914.5"/>
  <unicode hex="0057"/>
  <anchor x="458.0" y="0.0" name="bottom"/>
  <anchor x="457.5" y="705.0" name="top"/>
  <outline>
    <contour>
      <point x="221.0" y="0.0" type="line"/>
      <point x="319.0" y="0.0" type="line"/>
      <point x="466.0" y="559.0" type="line"/>
      <point x="449.0" y="559.0" type="line"/>
      <point x="596.5" y="0.0" type="line"/>
      <point x="694.0" y="0.0" type="line"/>
      <point x="896.0" y="705.0" type="line"/>
      <point x="782.0" y="705.0" type="line"/>
      <point x="632.5" y="112.5" type="line"/>
      <point x="660.5" y="112.5" type="line"/>
      <point x="504.0" y="705.0" type="line"/>
      <point x="417.0" y="705.0" type="line"/>
      <point x="260.0" y="112.5" type="line"/>
      <point x="289.5" y="112.5" type="line"/>
      <point x="140.0" y="705.0" type="line"/>
      <point x="20.0" y="705.0" type="line"/>
    </contour>
  </outline>
</glyph>
<glyph name="X" format="2">
  <advance width="560.5"/>
  <unicode hex="0058"/>
  <anchor x="281.0" y="0.0" name="bottom"/>
  <anchor x="280.5" y="705.0" name="top"/>
  <outline>
    <contour>
      <point x="-4.5" y="0.0" type="line"/>
      <point x="133.0" y="0.0" type="line"/>
      <point x="300.5" y="302.5" type="line"/>
      <point x="261.0" y="302.5" type="line"/>
      <point x="428.5" y="0.0" type="line"/>
      <point x="565.0" y="0.0" type="line"/>
      <point x="330.5" y="383.5" type="line"/>
      <point x="330.5" y="334.5" type="line"/>
      <point x="559.0" y="705.0" type="line"/>
      <point x="422.0" y="705.0" type="line"/>
      <point x="261.0" y="416.5" type="line"/>
      <point x="300.0" y="416.5" type="line"/>
      <point x="139.0" y="705.0" type="line"/>
      <point x="2.5" y="705.0" type="line"/>
      <point x="231.0" y="334.5" type="line"/>
      <point x="231.0" y="383.5" type="line"/>
    </contour>
  </outline>
</glyph>
<glyph name="Y" format="2">
  <advance width="516.0"/>
  <unicode hex="0059"/>
  <anchor x="259.0" y="0.0" name="bottom"/>
  <anchor x="258.5" y="705.0" name="top"/>
  <anchor x="19.0" y="705.0" name="topleft"/>
  <outline>
    <contour>
      <point x="200.0" y="0.0" type="line"/>
      <point x="317.0" y="0.0" type="line"/>
      <point x="317.5" y="363.5" type="line"/>
      <point x="293.0" y="292.0" type="line"/>
      <point x="536.0" y="705.0" type="line"/>
      <point x="407.5" y="705.0" type="line"/>
      <point x="248.5" y="412.5" type="line"/>
      <point x="272.5" y="412.5" type="line"/>
      <point x="115.0" y="705.0" type="line"/>
      <point x="-20.0" y="705.0" type="line"/>
      <point x="225.5" y="292.0" type="line"/>
      <point x="200.5" y="363.5" type="line"/>
    </contour>
  </outline>
</glyph>
<glyph name="Z" format="2">
  <advance width="504.5"/>
  <unicode hex="005A"/>
  <anchor x="261.0" y="0.0" name="bottom"/>
  <anchor x="260.5" y="705.0" name="top"/>
  <outline>
    <contour>
      <point x="43.0" y="0.0" type="line"/>
      <point x="483.0" y="0.0" type="line"/>
      <point x="483.0" y="97.0" type="line"/>
      <point x="150.5" y="97.0" type="line"/>
      <point x="150.5" y="62.5" type="line"/>
      <point x="470.0" y="620.0" type="line"/>
      <point x="470.0" y="705.0" type="line"/>
      <point x="43.0" y="705.0" type="line"/>
      <point x="43.0" y="608.0" type="line"/>
      <point x="362.5" y="608.0" type="line"/>
      <point x="362.5" y="643.5" type="line"/>
      <point x="43.0" y="85.0" type="line"/>
    </contour>
  </outline>
</glyph>
<glyph name="bracketleft" format="2">
  <advance width="308.0"/>
  <unicode hex="005B"/>
  <outline>
    <contour>
      <point x="89.5" y="-180.0" type="line"/>
      <point x="292.0" y="-180.0" type="line"/>
      <point x="292.0" y="-94.0" type="line"/>
      <point x="203.5" y="-94.0" type="line"/>
      <point x="203.5" y="619.0" type="line"/>
      <point x="292.0" y="619.0" type="line"/>
      <point x="292.0" y="705.0" type="line"/>
      <point x="89.5" y="705.0" type="line"/>
    </contour>
  </outline>
</glyph>
<glyph name="bracketright" format="2">
  <advance width="308.0"/>
  <unicode hex="005D"/>
  <outline>
    <contour>
      <point x="16.0" y="-180.0" type="line"/>
      <point x="219.0" y="-180.0" type="line"/>
      <point x="219.0" y="705.0" type="line"/>
      <point x="16.0" y="705.0" type="line"/>
      <point x="16.0" y="619.0" type="line"/>
      <point x="105.0" y="619.0" type="line"/>
      <point x="105.0" y="-94.0" type="line"/>
      <point x="16.0" y="-94.0" type="line"/>
    </contour>
  </outline>
</glyph>
<glyph name="asciicircum" format="2">
  <advance width="498.0"/>
  <unicode hex="005E"/>
  <outline>
    <contour>
      <point x="8.0" y="164.5" type="line"/>
      <point x="101.0" y="164.5" type="line"/>
      <point x="276.5" y="593.0" type="line"/>
      <point x="222.5" y="593.0" type="line"/>
      <point x="397.0" y="164.5" type="line"/>
      <point x="490.0" y="164.5" type="line"/>
      <point x="292.0" y="628.0" type="line"/>
      <point x="206.0" y="628.0" type="line"/>
    </contour>
  </outline>
</glyph>
<glyph name="underscore" format="2">
  <advance width="415.0"/>
  <unicode hex="005F"/>
  <outline>
    <contour>
      <point x="21.0" y="-69.0" type="line"/>
      <point x="394.0" y="-69.0" type="line"/>
      <point x="394.0" y="0.0" type="line"/>
      <point x="21.0" y="0.0" type="line"/>
    </contour>
  </outline>
</glyph>
<glyph name="a" format="2">
  <advance width="458.5"/>
  <unicode hex="0061"/>
  <anchor x="230.0" y="0.0" name="bottom"/>
  <anchor x="381.0" y="0.0" name="ogonek"/>
  <anchor x="233.0" y="484.0" name="top"/>
  <outline>
    <contour>
      <point x="184.0" y="-10.0" type="curve" smooth="yes"/>
      <point x="248.5" y="-10.0"/>
      <point x="290.0" y="31.0"/>
      <point x="305.5" y="103.0" type="curve"/>
      <point x="300.0" y="103.0" type="line"/>
      <point x="300.0" y="0.0" type="line"/>
      <point x="406.5" y="0.0" type="line"/>
      <point x="406.5" y="314.5" type="line" smooth="yes"/>
      <point x="406.5" y="438.0"/>
      <point x="351.0" y="499.0"/>
      <point x="235.0" y="499.0" type="curve" smooth="yes"/>
      <point x="171.0" y="499.0"/>
      <point x="101.5" y="478.5"/>
      <point x="52.0" y="444.0" type="curve"/>
      <point x="87.0" y="364.5" type="line"/>
      <point x="132.5" y="396.5"/>
      <point x="180.5" y="410.0"/>
      <point x="224.5" y="410.0" type="curve" smooth="yes"/>
      <point x="277.0" y="410.0"/>
      <point x="298.0" y="386.0"/>
      <point x="298.0" y="327.5" type="curve" smooth="yes"/>
      <point x="298.0" y="184.0" type="line" smooth="yes"/>
      <point x="298.0" y="115.5"/>
      <point x="259.0" y="71.5"/>
      <point x="216.5" y="71.5" type="curve" smooth="yes"/>
      <point x="175.5" y="71.5"/>
      <point x="147.0" y="103.0"/>
      <point x="147.0" y="146.5" type="curve" smooth="yes"/>
      <point x="147.0" y="200.5"/>
      <point x="178.0" y="218.5"/>
      <point x="278.0" y="218.5" type="curve" smooth="yes"/>
      <point x="310.5" y="218.5" type="line"/>
      <point x="310.5" y="288.5" type="line"/>
      <point x="264.5" y="288.5" type="line" smooth="yes"/>
      <point x="105.5" y="288.5"/>
      <point x="36.5" y="245.0"/>
      <point x="36.5" y="145.5" type="curve" smooth="yes"/>
      <point x="36.5" y="60.0"/>
      <point x="104.0" y="-10.0"/>
    </contour>
  </outline>
</glyph>
<glyph name="b" format="2">
  <advance width="501.0"/>
  <unicode hex="0062"/>
  <anchor x="245.0" y="0.0" name="bottom"/>
  <anchor x="255.5" y="705.0" name="top"/>
  <outline>
    <contour>
      <point x="294.5" y="-10.0" type="curve" smooth="yes"/>
      <point x="402.5" y="-10.0"/>
      <point x="467.5" y="84.5"/>
      <point x="467.5" y="245.0" type="curve" smooth="yes"/>
      <point x="467.5" y="405.5"/>
      <point x="402.5" y="499.0"/>
      <point x="294.0" y="499.0" type="curve" smooth="yes"/>
      <point x="227.0" y="499.0"/>
      <point x="174.0" y="459.0"/>
      <point x="156.0" y="387.5" type="curve"/>
      <point x="168.5" y="387.5" type="line"/>
      <point x="168.5" y="705.0" type="line"/>
      <point x="54.5" y="705.0" type="line"/>
      <point x="54.5" y="0.0" type="line"/>
      <point x="166.5" y="0.0" type="line"/>
      <point x="166.5" y="102.5" type="line"/>
      <point x="156.0" y="102.5" type="line"/>
      <point x="174.0" y="30.5"/>
      <point x="226.5" y="-10.0"/>
    </contour>
    <contour>
      <point x="259.5" y="78.0" type="curve" smooth="yes"/>
      <point x="198.0" y="78.0"/>
      <point x="166.5" y="129.5"/>
      <point x="166.5" y="245.0" type="curve" smooth="yes"/>
      <point x="166.5" y="360.5"/>
      <point x="198.0" y="411.0"/>
      <point x="259.5" y="411.0" type="curve" smooth="yes"/>
      <point x="320.0" y="411.0"/>
      <point x="352.5" y="360.5"/>
      <point x="352.5" y="245.0" type="curve" smooth="yes"/>
      <point x="352.5" y="129.5"/>
      <point x="320.0" y="78.0"/>
    </contour>
  </outline>
</glyph>
<glyph name="c" format="2">
  <advance width="394.5"/>
  <unicode hex="0063"/>
  <anchor x="236.0" y="0.0" name="bottom"/>
  <anchor x="234.0" y="484.0" name="top"/>
  <outline>
    <contour>
      <point x="244.0" y="-10.0" type="curve" smooth="yes"/>
      <point x="296.0" y="-10.0"/>
      <point x="349.5" y="9.0"/>
      <point x="383.5" y="41.0" type="curve"/>
      <point x="348.5" y="121.5" type="line"/>
      <point x="322.0" y="95.0"/>
      <point x="288.0" y="79.5"/>
      <point x="253.5" y="79.5" type="curve" smooth="yes"/>
      <point x="187.5" y="79.5"/>
      <point x="150.0" y="132.5"/>
      <point x="150.0" y="244.0" type="curve" smooth="yes"/>
      <point x="150.0" y="358.5"/>
      <point x="187.0" y="409.5"/>
      <point x="253.0" y="409.5" type="curve" smooth="yes"/>
      <point x="288.5" y="409.5"/>
      <point x="321.5" y="394.5"/>
      <point x="349.0" y="368.0" type="curve"/>
      <point x="383.5" y="448.0" type="line"/>
      <point x="350.0" y="481.0"/>
      <point x="296.5" y="499.0"/>
      <point x="243.5" y="499.0" type="curve" smooth="yes"/>
      <point x="111.5" y="499.0"/>
      <point x="33.5" y="405.5"/>
      <point x="33.5" y="245.5" type="curve" smooth="yes"/>
      <point x="33.5" y="83.0"/>
      <point x="111.0" y="-10.0"/>
    </contour>
  </outline>
</glyph>
<glyph name="e" format="2">
  <advance width="452.0"/>
  <unicode hex="0065"/>
  <anchor x="236.0" y="0.0" name="bottom"/>
  <anchor x="328.0" y="0.0" name="ogonek"/>
  <anchor x="236.0" y="484.0" name="top"/>
  <outline>
    <contour>
      <point x="255.0" y="-10.0" type="curve" smooth="yes"/>
      <point x="314.5" y="-10.0"/>
      <point x="370.5" y="9.0"/>
      <point x="416.0" y="47.0" type="curve"/>
      <point x="382.5" y="123.5" type="line"/>
      <point x="347.0" y="92.5"/>
      <point x="302.5" y="78.0"/>
      <point x="259.0" y="78.0" type="curve" smooth="yes"/>
      <point x="179.0" y="78.0"/>
      <point x="141.5" y="122.5"/>
      <point x="141.5" y="227.5" type="curve" smooth="yes"/>
      <point x="141.5" y="254.5" type="line" smooth="yes"/>
      <point x="141.5" y="366.0"/>
      <point x="177.0" y="419.0"/>
      <point x="240.5" y="419.0" type="curve" smooth="yes"/>
      <point x="297.0" y="419.0"/>
      <point x="325.5" y="379.5"/>
      <point x="325.5" y="271.5" type="curve"/>
      <point x="340.0" y="288.0" type="line"/>
      <point x="127.0" y="288.0" type="line"/>
      <point x="127.0" y="216.0" type="line"/>
      <point x="422.0" y="216.0" type="line"/>
      <point x="422.0" y="261.0" type="line" smooth="yes"/>
      <point x="422.0" y="415.0"/>
      <point x="358.0" y="499.0"/>
      <point x="238.0" y="499.0" type="curve" smooth="yes"/>
      <point x="112.5" y="499.0"/>
      <point x="33.5" y="402.0"/>
      <point x="33.5" y="243.5" type="curve" smooth="yes"/>
      <point x="33.5" y="75.0"/>
      <point x="117.5" y="-10.0"/>
    </contour>
  </outline>
</glyph>
<glyph name="f" format="2">
  <advance width="314.0"/>
  <unicode hex="0066"/>
  <anchor x="141.0" y="0.0" name="bottom"/>
  <anchor x="141.0" y="705.0" name="top"/>
  <outline>
    <contour>
      <point x="83.5" y="0.0" type="line"/>
      <point x="197.5" y="0.0" type="line"/>
      <point x="197.5" y="404.0" type="line"/>
      <point x="303.0" y="404.0" type="line"/>
      <point x="303.0" y="489.0" type="line"/>
      <point x="167.5" y="489.0" type="line"/>
      <point x="197.5" y="459.5" type="line"/>
      <point x="197.5" y="524.0" type="line" smooth="yes"/>
      <point x="197.5" y="593.0"/>
      <point x="222.5" y="618.5"/>
      <point x="284.5" y="623.0" type="curve" smooth="yes"/>
      <point x="321.5" y="626.0" type="line"/>
      <point x="315.0" y="710.0" type="line"/>
      <point x="272.5" y="707.5" type="line" smooth="yes"/>
      <point x="140.0" y="699.0"/>
      <point x="83.5" y="637.0"/>
      <point x="83.5" y="506.0" type="curve" smooth="yes"/>
      <point x="83.5" y="459.0" type="line"/>
      <point x="114.0" y="489.0" type="line"/>
      <point x="8.0" y="489.0" type="line"/>
      <point x="8.0" y="404.0" type="line"/>
      <point x="83.5" y="404.0" type="line"/>
    </contour>
  </outline>
</glyph>
<glyph name="g" format="2">
  <advance width="503.5"/>
  <unicode hex="0067"/>
  <anchor x="249.0" y="484.0" name="top"/>
  <outline>
    <contour>
      <point x="239.0" y="-190.0" type="curve" smooth="yes"/>
      <point x="378.5" y="-190.0"/>
      <point x="449.0" y="-115.0"/>
      <point x="449.0" y="34.0" type="curve" smooth="yes"/>
      <point x="449.0" y="489.0" type="line"/>
      <point x="337.0" y="489.0" type="line"/>
      <point x="337.0" y="387.0" type="line"/>
      <point x="345.0" y="387.0" type="line"/>
      <point x="329.5" y="459.0"/>
      <point x="280.5" y="499.0"/>
      <point x="208.0" y="499.0" type="curve" smooth="yes"/>
      <point x="98.5" y="499.0"/>
      <point x="33.5" y="409.5"/>
      <point x="33.5" y="256.5" type="curve" smooth="yes"/>
      <point x="33.5" y="103.5"/>
      <point x="98.5" y="13.0"/>
      <point x="207.5" y="13.0" type="curve" smooth="yes"/>
      <point x="279.5" y="13.0"/>
      <point x="329.5" y="53.0"/>
      <point x="345.0" y="125.5" type="curve"/>
      <point x="337.5" y="125.5" type="line"/>
      <point x="337.5" y="23.0" type="line" smooth="yes"/>
      <point x="337.5" y="-63.0"/>
      <point x="304.5" y="-102.5"/>
      <point x="234.0" y="-102.5" type="curve" smooth="yes"/>
      <point x="185.0" y="-102.5"/>
      <point x="134.5" y="-86.5"/>
      <point x="83.5" y="-53.5" type="curve"/>
      <point x="50.5" y="-133.0" type="line"/>
      <point x="103.5" y="-170.0"/>
      <point x="168.5" y="-190.0"/>
    </contour>
    <contour>
      <point x="243.0" y="101.0" type="curve" smooth="yes"/>
      <point x="180.0" y="101.0"/>
      <point x="148.5" y="153.0"/>
      <point x="148.5" y="256.5" type="curve" smooth="yes"/>
      <point x="148.5" y="360.0"/>
      <point x="180.0" y="411.0"/>
      <point x="243.0" y="411.0" type="curve" smooth="yes"/>
      <point x="305.5" y="411.0"/>
      <point x="337.0" y="359.5"/>
      <point x="337.0" y="256.5" type="curve" smooth="yes"/>
      <point x="337.0" y="153.5"/>
      <point x="305.5" y="101.0"/>
    </contour>
  </outline>
</glyph>
<glyph name="h" format="2">
  <advance width="488.5"/>
  <unicode hex="0068"/>
  <anchor x="245.5" y="0.0" name="bottom"/>
  <anchor x="245.5" y="247.5" name="center"/>
  <anchor x="265.5" y="352.0" name="dot"/>
  <anchor x="152.5" y="586.5" name="stroke"/>
  <anchor x="245.5" y="705.0" name="top"/>
  <anchor x="191.0" y="705.0" name="topright"/>
  <outline>
    <contour>
      <point x="54.5" y="0.0" type="line"/>
      <point x="168.5" y="0.0" type="line"/>
      <point x="168.5" y="304.5" type="line" smooth="yes"/>
      <point x="168.5" y="369.5"/>
      <point x="206.5" y="408.5"/>
      <point x="258.0" y="408.5" type="curve" smooth="yes"/>
      <point x="296.5" y="408.5"/>
      <point x="322.5" y="388.0"/>
      <point x="322.5" y="318.5" type="curve" smooth="yes"/>
      <point x="322.5" y="0.0" type="line"/>
      <point x="436.5" y="0.0" type="line"/>
      <point x="436.5" y="328.5" type="line" smooth="yes"/>
      <point x="436.5" y="445.0"/>
      <point x="387.0" y="499.0"/>
      <point x="301.0" y="499.0" type="curve" smooth="yes"/>
      <point x="230.5" y="499.0"/>
      <point x="181.0" y="459.0"/>
      <point x="160.5" y="398.5" type="curve"/>
      <point x="168.5" y="398.5" type="line"/>
      <point x="168.5" y="705.0" type="line"/>
      <point x="54.5" y="705.0" type="line"/>
    </contour>
  </outline>
</glyph>
<glyph name="i" format="2">
  <advance width="223.0"/>
  <unicode hex="0069"/>
  <anchor x="111.0" y="0.0" name="bottom"/>
  <anchor x="144.0" y="0.0" name="ogonek"/>
  <outline>
    <contour>
      <point x="48.5" y="597.5" type="line"/>
      <point x="173.5" y="597.5" type="line"/>
      <point x="173.5" y="711.5" type="line"/>
      <point x="48.5" y="711.5" type="line"/>
    </contour>
    <contour>
      <point x="54.5" y="0.0" type="line"/>
      <point x="168.5" y="0.0" type="line"/>
      <point x="168.5" y="489.0" type="line"/>
      <point x="54.5" y="489.0" type="line"/>
    </contour>
  </outline>
</glyph>
<glyph name="k" format="2">
  <advance width="451.5"/>
  <unicode hex="006B"/>
  <anchor x="227.0" y="0.0" name="bottom"/>
  <anchor x="245.5" y="705.0" name="top"/>
  <outline>
    <contour>
      <point x="54.5" y="0.0" type="line"/>
      <point x="168.5" y="0.0" type="line"/>
      <point x="168.5" y="220.5" type="line"/>
      <point x="170.5" y="220.5" type="line"/>
      <point x="329.0" y="0.0" type="line"/>
      <point x="467.0" y="0.0" type="line"/>
      <point x="266.5" y="280.0" type="line"/>
      <point x="264.5" y="230.0" type="line"/>
      <point x="458.0" y="489.0" type="line"/>
      <point x="325.0" y="489.0" type="line"/>
      <point x="170.5" y="278.5" type="line"/>
      <point x="168.5" y="278.5" type="line"/>
      <point x="168.5" y="705.0" type="line"/>
      <point x="54.5" y="705.0" type="line"/>
    </contour>
  </outline>
</glyph>
<glyph name="l" format="2">
  <advance width="275.0"/>
  <unicode hex="006C"/>
  <anchor x="162.0" y="0.0" name="bottom"/>
  <anchor x="116.0" y="357.0" name="center"/>
  <anchor x="273.0" y="357.0" name="dot"/>
  <anchor x="111.0" y="705.0" name="top"/>
  <anchor x="199.5" y="705.0" name="topright"/>
  <outline>
    <contour>
      <point x="198.0" y="-10.0" type="curve" smooth="yes"/>
      <point x="218.5" y="-10.0"/>
      <point x="238.0" y="-7.0"/>
      <point x="260.5" y="-1.5" type="curve"/>
      <point x="261.5" y="89.0" type="line"/>
      <point x="255.5" y="86.0"/>
      <point x="240.5" y="84.5"/>
      <point x="228.0" y="84.5" type="curve" smooth="yes"/>
      <point x="180.0" y="84.5"/>
      <point x="168.5" y="117.5"/>
      <point x="168.5" y="166.5" type="curve" smooth="yes"/>
      <point x="168.5" y="705.0" type="line"/>
      <point x="54.5" y="705.0" type="line"/>
      <point x="54.5" y="163.5" type="line" smooth="yes"/>
      <point x="54.5" y="43.0"/>
      <point x="99.5" y="-10.0"/>
    </contour>
  </outline>
</glyph>
<glyph name="m" format="2">
  <advance width="737.5"/>
  <unicode hex="006D"/>
  <anchor x="370.0" y="0.0" name="bottom"/>
  <anchor x="370.0" y="484.0" name="top"/>
  <outline>
    <contour>
      <point x="56.5" y="0.0" type="line"/>
      <point x="170.5" y="0.0" type="line"/>
      <point x="170.5" y="304.5" type="line" smooth="yes"/>
      <point x="170.5" y="369.5"/>
      <point x="206.0" y="408.5"/>
      <point x="254.5" y="408.5" type="curve" smooth="yes"/>
      <point x="289.0" y="408.5"/>
      <point x="312.5" y="388.0"/>
      <point x="312.5" y="318.0" type="curve" smooth="yes"/>
      <point x="312.5" y="0.0" type="line"/>
      <point x="426.5" y="0.0" type="line"/>
      <point x="426.5" y="304.5" type="line" smooth="yes"/>
      <point x="426.5" y="369.5"/>
      <point x="463.0" y="408.5"/>
      <point x="510.5" y="408.5" type="curve" smooth="yes"/>
      <point x="546.0" y="408.5"/>
      <point x="569.5" y="388.0"/>
      <point x="569.5" y="318.0" type="curve" smooth="yes"/>
      <point x="569.5" y="0.0" type="line"/>
      <point x="683.5" y="0.0" type="line"/>
      <point x="683.5" y="328.5" type="line" smooth="yes"/>
      <point x="683.5" y="445.0"/>
      <point x="636.0" y="499.0"/>
      <point x="554.0" y="499.0" type="curve" smooth="yes"/>
      <point x="484.1315" y="499.0"/>
      <point x="431.58050000000003" y="459.2155"/>
      <point x="410.5" y="398.0" type="curve"/>
      <point x="419.0" y="398.0" type="line"/>
      <point x="403.5" y="467.5"/>
      <point x="360.5" y="499.0"/>
      <point x="297.5" y="499.0" type="curve" smooth="yes"/>
      <point x="230.0" y="499.0"/>
      <point x="180.0" y="459.0"/>
      <point x="159.0" y="398.5" type="curve"/>
      <point x="167.0" y="398.5" type="line"/>
      <point x="167.0" y="489.0" type="line"/>
      <point x="56.5" y="489.0" type="line"/>
    </contour>
  </outline>
</glyph>
<glyph name="n" format="2">
  <advance width="488.5"/>
  <unicode hex="006E"/>
  <anchor x="242.5" y="0.0" name="bottom"/>
  <anchor x="242.5" y="484.0" name="top"/>
  <outline>
    <contour>
      <point x="54.5" y="0.0" type="line"/>
      <point x="168.5" y="0.0" type="line"/>
      <point x="168.5" y="304.5" type="line" smooth="yes"/>
      <point x="168.5" y="369.5"/>
      <point x="206.5" y="408.5"/>
      <point x="258.0" y="408.5" type="curve" smooth="yes"/>
      <point x="296.5" y="408.5"/>
      <point x="322.5" y="388.0"/>
      <point x="322.5" y="318.5" type="curve" smooth="yes"/>
      <point x="322.5" y="0.0" type="line"/>
      <point x="436.5" y="0.0" type="line"/>
      <point x="436.5" y="328.5" type="line" smooth="yes"/>
      <point x="436.5" y="445.0"/>
      <point x="387.0" y="499.0"/>
      <point x="301.0" y="499.0" type="curve" smooth="yes"/>
      <point x="230.5" y="499.0"/>
      <point x="177.5" y="459.0"/>
      <point x="157.0" y="398.5" type="curve"/>
      <point x="165.0" y="398.5" type="line"/>
      <point x="165.0" y="489.0" type="line"/>
      <point x="54.5" y="489.0" type="line"/>
    </contour>
  </outline>
</glyph>
<glyph name="o" format="2">
  <advance width="483.0"/>
  <unicode hex="006F"/>
  <anchor x="241.5" y="0.0" name="bottom"/>
  <anchor x="241.5" y="244.5" name="center"/>
  <anchor x="281.0" y="0.0" name="ogonek"/>
  <anchor x="241.5" y="484.0" name="top"/>
  <anchor x="291.0" y="484.0" name="topright"/>
  <outline>
    <contour>
      <point x="241.5" y="-10.0" type="curve" smooth="yes"/>
      <point x="371.5" y="-10.0"/>
      <point x="449.5" y="78.5"/>
      <point x="449.5" y="245.0" type="curve" smooth="yes"/>
      <point x="449.5" y="410.5"/>
      <point x="371.5" y="499.0"/>
      <point x="241.5" y="499.0" type="curve" smooth="yes"/>
      <point x="110.5" y="499.0"/>
      <point x="33.5" y="410.5"/>
      <point x="33.5" y="245.0" type="curve" smooth="yes"/>
      <point x="33.5" y="78.5"/>
      <point x="110.5" y="-10.0"/>
    </contour>
    <contour>
      <point x="241.5" y="78.0" type="curve" smooth="yes"/>
      <point x="182.5" y="78.0"/>
      <point x="148.5" y="124.5"/>
      <point x="148.5" y="245.0" type="curve" smooth="yes"/>
      <point x="148.5" y="365.5"/>
      <point x="182.5" y="411.0"/>
      <point x="241.5" y="411.0" type="curve" smooth="yes"/>
      <point x="299.5" y="411.0"/>
      <point x="334.5" y="365.5"/>
      <point x="334.5" y="245.0" type="curve" smooth="yes"/>
      <point x="334.5" y="124.5"/>
      <point x="299.5" y="78.0"/>
    </contour>
  </outline>
</glyph>
<glyph name="p" format="2">
  <advance width="501.0"/>
  <unicode hex="0070"/>
  <anchor x="252.0" y="0.0" name="bottom"/>
  <anchor x="252.0" y="484.0" name="top"/>
  <outline>
    <contour>
      <point x="54.5" y="-180.0" type="line"/>
      <point x="168.5" y="-180.0" type="line"/>
      <point x="168.5" y="102.5" type="line"/>
      <point x="157.5" y="102.5" type="line"/>
      <point x="173.5" y="30.5"/>
      <point x="222.5" y="-10.0"/>
      <point x="294.5" y="-10.0" type="curve" smooth="yes"/>
      <point x="402.5" y="-10.0"/>
      <point x="467.5" y="84.5"/>
      <point x="467.5" y="245.0" type="curve" smooth="yes"/>
      <point x="467.5" y="405.5"/>
      <point x="402.5" y="499.0"/>
      <point x="294.0" y="499.0" type="curve" smooth="yes"/>
      <point x="222.0" y="499.0"/>
      <point x="173.5" y="459.0"/>
      <point x="157.5" y="387.5" type="curve"/>
      <point x="166.5" y="387.5" type="line"/>
      <point x="166.5" y="489.0" type="line"/>
      <point x="54.5" y="489.0" type="line"/>
    </contour>
    <contour>
      <point x="259.5" y="78.0" type="curve" smooth="yes"/>
      <point x="197.0" y="78.0"/>
      <point x="166.5" y="134.0"/>
      <point x="166.5" y="245.0" type="curve" smooth="yes"/>
      <point x="166.5" y="356.0"/>
      <point x="197.0" y="411.0"/>
      <point x="259.5" y="411.0" type="curve" smooth="yes"/>
      <point x="321.0" y="411.0"/>
      <point x="352.5" y="356.5"/>
      <point x="352.5" y="245.0" type="curve" smooth="yes"/>
      <point x="352.5" y="133.5"/>
      <point x="321.0" y="78.0"/>
    </contour>
  </outline>
</glyph>
<glyph name="q" format="2">
  <advance width="501.0"/>
  <unicode hex="0071"/>
  <anchor x="250.0" y="0.0" name="bottom"/>
  <anchor x="250.0" y="484.0" name="top"/>
  <outline>
    <contour>
      <point x="332.5" y="-180.0" type="line"/>
      <point x="446.5" y="-180.0" type="line"/>
      <point x="446.5" y="489.0" type="line"/>
      <point x="334.5" y="489.0" type="line"/>
      <point x="334.5" y="387.5" type="line"/>
      <point x="342.5" y="387.5" type="line"/>
      <point x="326.5" y="459.0"/>
      <point x="278.0" y="499.0"/>
      <point x="207.0" y="499.0" type="curve" smooth="yes"/>
      <point x="98.5" y="499.0"/>
      <point x="33.5" y="405.5"/>
      <point x="33.5" y="245.0" type="curve" smooth="yes"/>
      <point x="33.5" y="84.5"/>
      <point x="98.5" y="-10.0"/>
      <point x="206.5" y="-10.0" type="curve" smooth="yes"/>
      <point x="278.5" y="-10.0"/>
      <point x="326.5" y="30.5"/>
      <point x="342.5" y="102.5" type="curve"/>
      <point x="332.5" y="102.5" type="line"/>
    </contour>
    <contour>
      <point x="241.5" y="78.0" type="curve" smooth="yes"/>
      <point x="179.0" y="78.0"/>
      <point x="148.5" y="133.5"/>
      <point x="148.5" y="245.0" type="curve" smooth="yes"/>
      <point x="148.5" y="356.5"/>
      <point x="179.0" y="411.0"/>
      <point x="241.5" y="411.0" type="curve" smooth="yes"/>
      <point x="303.0" y="411.0"/>
      <point x="334.5" y="356.0"/>
      <point x="334.5" y="245.0" type="curve" smooth="yes"/>
      <point x="334.5" y="134.0"/>
      <point x="303.0" y="78.0"/>
    </contour>
  </outline>
</glyph>
<glyph name="r" format="2">
  <advance width="337.5"/>
  <unicode hex="0072"/>
  <anchor x="112.0" y="0.0" name="bottom"/>
  <anchor x="192.5" y="484.0" name="top"/>
  <outline>
    <contour>
      <point x="54.5" y="0.0" type="line"/>
      <point x="170.5" y="0.0" type="line"/>
      <point x="170.5" y="271.5" type="line" smooth="yes"/>
      <point x="170.5" y="354.0"/>
      <point x="205.0" y="392.5"/>
      <point x="264.5" y="399.0" type="curve" smooth="yes"/>
      <point x="329.0" y="405.0" type="line"/>
      <point x="322.5" y="502.0" type="line"/>
      <point x="289.0" y="499.0" type="line" smooth="yes"/>
      <point x="212.5" y="491.0"/>
      <point x="172.5" y="452.5"/>
      <point x="158.0" y="378.0" type="curve"/>
      <point x="166.0" y="378.0" type="line"/>
      <point x="166.0" y="489.0" type="line"/>
      <point x="54.5" y="489.0" type="line"/>
    </contour>
  </outline>
</glyph>
<glyph name="s" format="2">
  <advance width="407.0"/>
  <unicode hex="0073"/>
  <anchor x="204.0" y="0.0" name="bottom"/>
  <anchor x="211.0" y="484.0" name="top"/>
  <outline>
    <contour>
      <point x="205.0" y="-10.0" type="curve" smooth="yes"/>
      <point x="309.5" y="-10.0"/>
      <point x="378.0" y="49.0"/>
      <point x="378.0" y="140.5" type="curve" smooth="yes"/>
      <point x="378.0" y="212.0"/>
      <point x="337.5" y="262.5"/>
      <point x="261.5" y="277.5" type="curve" smooth="yes"/>
      <point x="199.5" y="290.5" type="line" smooth="yes"/>
      <point x="162.5" y="296.5"/>
      <point x="146.0" y="320.0"/>
      <point x="146.0" y="350.5" type="curve" smooth="yes"/>
      <point x="146.0" y="393.0"/>
      <point x="176.5" y="417.5"/>
      <point x="221.5" y="417.5" type="curve" smooth="yes"/>
      <point x="260.0" y="417.5"/>
      <point x="305.5" y="400.0"/>
      <point x="338.0" y="371.0" type="curve"/>
      <point x="369.0" y="445.0" type="line"/>
      <point x="331.5" y="479.5"/>
      <point x="278.5" y="499.0"/>
      <point x="220.5" y="499.0" type="curve" smooth="yes"/>
      <point x="114.5" y="499.0"/>
      <point x="43.5" y="438.0"/>
      <point x="43.5" y="344.0" type="curve" smooth="yes"/>
      <point x="43.5" y="274.5"/>
      <point x="84.5" y="224.5"/>
      <point x="157.5" y="210.0" type="curve" smooth="yes"/>
      <point x="219.5" y="197.0" type="line" smooth="yes"/>
      <point x="256.0" y="190.0"/>
      <point x="275.5" y="170.0"/>
      <point x="275.5" y="135.5" type="curve" smooth="yes"/>
      <point x="275.5" y="95.5"/>
      <point x="246.0" y="72.0"/>
      <point x="198.5" y="72.0" type="curve" smooth="yes"/>
      <point x="153.5" y="72.0"/>
      <point x="106.0" y="87.0"/>
      <point x="62.0" y="117.5" type="curve"/>
      <point x="32.5" y="44.0" type="line"/>
      <point x="73.0" y="11.0"/>
      <point x="135.5" y="-10.0"/>
    </contour>
  </outline>
</glyph>
<glyph name="t" format="2">
  <advance width="330.5"/>
  <unicode hex="0074"/>
  <anchor x="195.5" y="0.0" name="bottom"/>
  <anchor x="155.5" y="262.5" name="center"/>
  <anchor x="138.0" y="635.0" name="top"/>
  <anchor x="235.5" y="705.0" name="topright"/>
  <outline>
    <contour>
      <point x="241.0" y="-10.0" type="curve" smooth="yes"/>
      <point x="272.0" y="-10.0"/>
      <point x="306.5" y="-2.0"/>
      <point x="328.0" y="10.0" type="curve"/>
      <point x="310.5" y="94.5" type="line"/>
      <point x="296.5" y="89.5"/>
      <point x="276.5" y="84.5"/>
      <point x="260.5" y="84.5" type="curve" smooth="yes"/>
      <point x="216.0" y="84.5"/>
      <point x="194.5" y="106.0"/>
      <point x="194.5" y="166.5" type="curve" smooth="yes"/>
      <point x="194.5" y="404.0" type="line"/>
      <point x="313.0" y="404.0" type="line"/>
      <point x="313.0" y="489.0" type="line"/>
      <point x="194.5" y="489.0" type="line"/>
      <point x="194.5" y="635.0" type="line"/>
      <point x="80.5" y="635.0" type="line"/>
      <point x="80.5" y="489.0" type="line"/>
      <point x="5.0" y="489.0" type="line"/>
      <point x="5.0" y="404.0" type="line"/>
      <point x="80.5" y="404.0" type="line"/>
      <point x="80.5" y="160.5" type="line" smooth="yes"/>
      <point x="80.5" y="44.0"/>
      <point x="133.0" y="-10.0"/>
    </contour>
  </outline>
</glyph>
<glyph name="u" format="2">
  <advance width="484.0"/>
  <unicode hex="0075"/>
  <anchor x="241.5" y="0.0" name="bottom"/>
  <anchor x="404.0" y="0.0" name="ogonek"/>
  <anchor x="241.5" y="485.0" name="top"/>
  <anchor x="346.0" y="484.0" name="topright"/>
  <outline>
    <contour>
      <point x="184.5" y="-10.0" type="curve" smooth="yes"/>
      <point x="254.24" y="-10.0"/>
      <point x="305.51800000000003" y="30.557"/>
      <point x="326.5" y="91.0" type="curve"/>
      <point x="319.0" y="91.0" type="line"/>
      <point x="319.0" y="0.0" type="line"/>
      <point x="429.5" y="0.0" type="line"/>
      <point x="429.5" y="489.0" type="line"/>
      <point x="315.5" y="489.0" type="line"/>
      <point x="315.5" y="183.5" type="line" smooth="yes"/>
      <point x="315.5" y="118.5"/>
      <point x="278.169" y="80.5"/>
      <point x="228.5" y="80.5" type="curve" smooth="yes"/>
      <point x="190.4" y="80.5"/>
      <point x="166.0" y="100.0"/>
      <point x="166.0" y="170.0" type="curve" smooth="yes"/>
      <point x="166.0" y="489.0" type="line"/>
      <point x="52.0" y="489.0" type="line"/>
      <point x="52.0" y="161.0" type="line" smooth="yes"/>
      <point x="52.0" y="44.5"/>
      <point x="100.887" y="-10.0"/>
    </contour>
  </outline>
</glyph>
<glyph name="v" format="2">
  <advance width="439.5"/>
  <unicode hex="0076"/>
  <anchor x="221.0" y="0.0" name="bottom"/>
  <anchor x="221.0" y="484.0" name="top"/>
  <outline>
    <contour>
      <point x="170.5" y="0.0" type="line"/>
      <point x="269.0" y="0.0" type="line"/>
      <point x="442.5" y="489.0" type="line"/>
      <point x="330.0" y="489.0" type="line"/>
      <point x="207.0" y="94.5" type="line"/>
      <point x="237.5" y="94.5" type="line"/>
      <point x="118.5" y="489.0" type="line"/>
      <point x="-2.5" y="489.0" type="line"/>
    </contour>
  </outline>
</glyph>
<glyph name="w" format="2">
  <advance width="704.0"/>
  <unicode hex="0077"/>
  <anchor x="353.0" y="0.0" name="bottom"/>
  <anchor x="353.0" y="484.0" name="top"/>
  <outline>
    <contour>
      <point x="166.0" y="0.0" type="line"/>
      <point x="263.0" y="0.0" type="line"/>
      <point x="375.0" y="393.5" type="line"/>
      <point x="331.0" y="393.5" type="line"/>
      <point x="443.0" y="0.0" type="line"/>
      <point x="540.0" y="0.0" type="line"/>
      <point x="699.5" y="489.0" type="line"/>
      <point x="589.0" y="489.0" type="line"/>
      <point x="480.5" y="100.0" type="line"/>
      <point x="500.5" y="100.0" type="line"/>
      <point x="393.5" y="489.0" type="line"/>
      <point x="317.5" y="489.0" type="line"/>
      <point x="210.0" y="100.0" type="line"/>
      <point x="229.5" y="100.0" type="line"/>
      <point x="122.0" y="489.0" type="line"/>
      <point x="5.5" y="489.0" type="line"/>
    </contour>
  </outline>
</glyph>
<glyph name="x" format="2">
  <advance width="458.5"/>
  <unicode hex="0078"/>
  <anchor x="230.0" y="0.0" name="bottom"/>
  <anchor x="230.0" y="484.0" name="top"/>
  <outline>
    <contour>
      <point x="-2.5" y="0.0" type="line"/>
      <point x="127.5" y="0.0" type="line"/>
      <point x="248.0" y="198.5" type="line"/>
      <point x="210.5" y="198.5" type="line"/>
      <point x="328.5" y="0.0" type="line"/>
      <point x="462.5" y="0.0" type="line"/>
      <point x="275.5" y="277.5" type="line"/>
      <point x="275.5" y="226.0" type="line"/>
      <point x="452.5" y="489.0" type="line"/>
      <point x="322.5" y="489.0" type="line"/>
      <point x="210.5" y="302.5" type="line"/>
      <point x="251.5" y="302.5" type="line"/>
      <point x="142.0" y="489.0" type="line"/>
      <point x="8.0" y="489.0" type="line"/>
      <point x="184.0" y="225.0" type="line"/>
      <point x="184.0" y="279.5" type="line"/>
    </contour>
  </outline>
</glyph>
<glyph name="y" format="2">
  <advance width="439.5"/>
  <unicode hex="0079"/>
  <anchor x="343.0" y="0.0" name="bottom"/>
  <anchor x="221.0" y="484.0" name="top"/>
  <outline>
    <contour>
      <point x="88.5" y="-180.0" type="line"/>
      <point x="206.0" y="-180.0" type="line"/>
      <point x="442.5" y="489.0" type="line"/>
      <point x="329.5" y="489.0" type="line"/>
      <point x="210.0" y="101.5" type="line"/>
      <point x="235.5" y="101.5" type="line"/>
      <point x="118.0" y="489.0" type="line"/>
      <point x="-3.0" y="489.0" type="line"/>
      <point x="177.0" y="-20.0" type="line"/>
      <point x="177.0" y="43.5" type="line"/>
    </contour>
  </outline>
</glyph>
<glyph name="z" format="2">
  <advance width="397.0"/>
  <unicode hex="007A"/>
  <anchor x="203.0" y="0.0" name="bottom"/>
  <anchor x="203.0" y="484.0" name="top"/>
  <outline>
    <contour>
      <point x="43.0" y="0.0" type="line"/>
      <point x="372.5" y="0.0" type="line"/>
      <point x="372.5" y="85.0" type="line"/>
      <point x="142.0" y="85.0" type="line"/>
      <point x="142.0" y="55.5" type="line"/>
      <point x="363.0" y="414.5" type="line"/>
      <point x="363.0" y="489.0" type="line"/>
      <point x="43.0" y="489.0" type="line"/>
      <point x="43.0" y="404.0" type="line"/>
      <point x="261.5" y="404.0" type="line"/>
      <point x="261.5" y="434.5" type="line"/>
      <point x="43.0" y="74.5" type="line"/>
    </contour>
  </outline>
</glyph>
<glyph name="braceleft" format="2">
  <advance width="338.0"/>
  <unicode hex="007B"/>
  <outline>
    <contour>
      <point x="225.0" y="-180.0" type="curve" smooth="yes"/>
      <point x="322.0" y="-180.0" type="line"/>
      <point x="322.0" y="-94.0" type="line"/>
      <point x="273.5" y="-94.0" type="line" smooth="yes"/>
      <point x="248.5" y="-94.0"/>
      <point x="233.5" y="-78.0"/>
      <point x="233.5" y="-48.5" type="curve" smooth="yes"/>
      <point x="233.5" y="152.0" type="line" smooth="yes"/>
      <point x="233.5" y="213.0"/>
      <point x="201.0" y="264.0"/>
      <point x="149.5" y="264.0" type="curve"/>
      <point x="149.5" y="260.0" type="line"/>
      <point x="201.0" y="260.0"/>
      <point x="233.5" y="312.0"/>
      <point x="233.5" y="373.0" type="curve" smooth="yes"/>
      <point x="233.5" y="573.5" type="line" smooth="yes"/>
      <point x="233.5" y="603.0"/>
      <point x="248.5" y="619.0"/>
      <point x="273.5" y="619.0" type="curve" smooth="yes"/>
      <point x="322.0" y="619.0" type="line"/>
      <point x="322.0" y="705.0" type="line"/>
      <point x="225.0" y="705.0" type="line" smooth="yes"/>
      <point x="159.0" y="705.0"/>
      <point x="119.5" y="662.0"/>
      <point x="119.5" y="588.5" type="curve" smooth="yes"/>
      <point x="119.5" y="386.5" type="line" smooth="yes"/>
      <point x="119.5" y="331.5"/>
      <point x="107.0" y="310.5"/>
      <point x="69.5" y="307.0" type="curve" smooth="yes"/>
      <point x="38.0" y="304.0" type="line"/>
      <point x="38.0" y="221.0" type="line"/>
      <point x="69.5" y="218.0" type="line" smooth="yes"/>
      <point x="107.0" y="214.5"/>
      <point x="119.5" y="193.0"/>
      <point x="119.5" y="139.0" type="curve" smooth="yes"/>
      <point x="119.5" y="-63.5" type="line" smooth="yes"/>
      <point x="119.5" y="-137.0"/>
      <point x="159.0" y="-180.0"/>
    </contour>
  </outline>
</glyph>
<glyph name="braceright" format="2">
  <advance width="338.0"/>
  <unicode hex="007D"/>
  <outline>
    <contour>
      <point x="16.0" y="-180.0" type="line"/>
      <point x="113.5" y="-180.0" type="line" smooth="yes"/>
      <point x="179.5" y="-180.0"/>
      <point x="219.0" y="-137.0"/>
      <point x="219.0" y="-63.5" type="curve" smooth="yes"/>
      <point x="219.0" y="139.0" type="line" smooth="yes"/>
      <point x="219.0" y="193.0"/>
      <point x="231.0" y="214.5"/>
      <point x="268.5" y="218.0" type="curve" smooth="yes"/>
      <point x="300.5" y="221.0" type="line"/>
      <point x="300.5" y="304.0" type="line"/>
      <point x="268.5" y="307.0" type="line" smooth="yes"/>
      <point x="231.0" y="310.0"/>
      <point x="219.0" y="331.5"/>
      <point x="219.0" y="386.5" type="curve" smooth="yes"/>
      <point x="219.0" y="588.5" type="line" smooth="yes"/>
      <point x="219.0" y="662.0"/>
      <point x="179.5" y="705.0"/>
      <point x="113.5" y="705.0" type="curve" smooth="yes"/>
      <point x="16.0" y="705.0" type="line"/>
      <point x="16.0" y="619.0" type="line"/>
      <point x="65.5" y="619.0" type="line" smooth="yes"/>
      <point x="90.0" y="619.0"/>
      <point x="105.0" y="603.0"/>
      <point x="105.0" y="573.5" type="curve" smooth="yes"/>
      <point x="105.0" y="373.0" type="line" smooth="yes"/>
      <point x="105.0" y="312.0"/>
      <point x="138.0" y="260.0"/>
      <point x="188.5" y="260.0" type="curve"/>
      <point x="188.5" y="264.0" type="line"/>
      <point x="138.0" y="264.0"/>
      <point x="105.0" y="213.5"/>
      <point x="105.0" y="152.0" type="curve" smooth="yes"/>
      <point x="105.0" y="-48.5" type="line" smooth="yes"/>
      <point x="105.0" y="-78.0"/>
      <point x="90.0" y="-94.0"/>
      <point x="65.5" y="-94.0" type="curve" smooth="yes"/>
      <point x="16.0" y="-94.0" type="line"/>
    </contour>
  </outline>
</glyph>
<glyph name="asciitilde" format="2">
  <advance width="498.0"/>
  <unicode hex="007E"/>
  <outline>
    <contour>
      <point x="343.0" y="211.0" type="curve" smooth="yes"/>
      <point x="400.5" y="211.0"/>
      <point x="446.5" y="251.5"/>
      <point x="466.0" y="315.5" type="curve"/>
      <point x="409.5" y="346.5" type="line"/>
      <point x="397.5" y="309.0"/>
      <point x="372.5" y="288.0"/>
      <point x="343.0" y="288.0" type="curve" smooth="yes"/>
      <point x="313.0" y="288.0"/>
      <point x="283.0" y="310.0"/>
      <point x="258.5" y="326.5" type="curve" smooth="yes"/>
      <point x="220.5" y="352.5"/>
      <point x="189.5" y="363.5"/>
      <point x="157.0" y="363.5" type="curve" smooth="yes"/>
      <point x="97.5" y="363.5"/>
      <point x="52.0" y="323.5"/>
      <point x="32.0" y="258.5" type="curve"/>
      <point x="92.0" y="228.0" type="line"/>
      <point x="102.0" y="265.5"/>
      <point x="125.5" y="286.0"/>
      <point x="156.5" y="286.0" type="curve" smooth="yes"/>
      <point x="185.5" y="286.0"/>
      <point x="213.0" y="266.0"/>
      <point x="238.5" y="250.0" type="curve" smooth="yes"/>
      <point x="280.0" y="222.5"/>
      <point x="310.5" y="211.0"/>
    </contour>
  </outline>
</glyph>
<glyph name="exclamdown" format="2">
  <advance width="216.5"/>
  <unicode hex="00A1"/>
  <outline>
    <contour>
      <point x="38.0" y="-180.0" type="line"/>
      <point x="179.0" y="-180.0" type="line"/>
      <point x="143.0" y="286.0" type="line"/>
      <point x="74.0" y="286.0" type="line"/>
    </contour>
    <contour>
      <point x="46.0" y="360.5" type="line"/>
      <point x="171.0" y="360.5" type="line"/>
      <point x="171.0" y="489.0" type="line"/>
      <point x="46.0" y="489.0" type="line"/>
    </contour>
  </outline>
</glyph>
<glyph name="cent" format="2">
  <advance width="498.0"/>
  <unicode hex="00A2"/>
  <outline>
    <contour>
      <point x="222.0" y="-115.0" type="line"/>
      <point x="312.0" y="-115.0" type="line"/>
      <point x="312.0" y="17.5" type="line"/>
      <point x="282.0" y="-6.0" type="line"/>
      <point x="342.0" y="-5.5"/>
      <point x="398.0" y="14.5"/>
      <point x="430.5" y="45.0" type="curve"/>
      <point x="396.0" y="125.0" type="line"/>
      <point x="368.0" y="99.0"/>
      <point x="329.0" y="83.5"/>
      <point x="292.0" y="83.5" type="curve" smooth="yes"/>
      <point x="222.0" y="83.5"/>
      <point x="186.0" y="137.0"/>
      <point x="186.0" y="245.0" type="curve" smooth="yes"/>
      <point x="186.0" y="351.5"/>
      <point x="220.5" y="406.0"/>
      <point x="291.5" y="406.0" type="curve" smooth="yes"/>
      <point x="330.0" y="406.0"/>
      <point x="368.0" y="390.5"/>
      <point x="396.5" y="364.0" type="curve"/>
      <point x="430.5" y="444.0" type="line"/>
      <point x="398.5" y="475.5"/>
      <point x="342.0" y="495.0"/>
      <point x="282.0" y="495.0" type="curve"/>
      <point x="312.0" y="466.5" type="line"/>
      <point x="312.0" y="608.5" type="line"/>
      <point x="222.0" y="608.5" type="line"/>
      <point x="222.0" y="460.5" type="line"/>
      <point x="234.0" y="489.0" type="line"/>
      <point x="130.0" y="472.5"/>
      <point x="69.5" y="385.0"/>
      <point x="69.5" y="245.5" type="curve" smooth="yes"/>
      <point x="69.5" y="103.0"/>
      <point x="130.5" y="16.0"/>
      <point x="236.0" y="-1.0" type="curve"/>
      <point x="222.0" y="22.5" type="line"/>
    </contour>
  </outline>
</glyph>
<glyph name="sterling" format="2">
  <advance width="498.0"/>
  <unicode hex="00A3"/>
  <outline>
    <contour>
      <point x="35.5" y="0.0" type="line"/>
      <point x="458.0" y="0.0" type="line"/>
      <point x="458.0" y="96.0" type="line"/>
      <point x="220.5" y="96.0" type="line"/>
      <point x="220.5" y="310.5" type="line"/>
      <point x="351.0" y="310.5" type="line"/>
      <point x="351.0" y="397.0" type="line"/>
      <point x="220.5" y="397.0" type="line"/>
      <point x="220.5" y="518.5" type="line" smooth="yes"/>
      <point x="220.5" y="581.0"/>
      <point x="240.5" y="620.5"/>
      <point x="307.5" y="620.5" type="curve" smooth="yes"/>
      <point x="355.5" y="620.5"/>
      <point x="394.5" y="602.0"/>
      <point x="432.5" y="564.5" type="curve"/>
      <point x="468.5" y="649.5" type="line"/>
      <point x="427.0" y="691.0"/>
      <point x="366.0" y="715.0"/>
      <point x="298.0" y="715.0" type="curve" smooth="yes"/>
      <point x="171.0" y="715.0"/>
      <point x="103.5" y="649.0"/>
      <point x="103.5" y="514.5" type="curve" smooth="yes"/>
      <point x="103.5" y="397.0" type="line"/>
      <point x="35.5" y="397.0" type="line"/>
      <point x="35.5" y="310.5" type="line"/>
      <point x="103.5" y="310.5" type="line"/>
      <point x="103.5" y="96.0" type="line"/>
      <point x="35.5" y="96.0" type="line"/>
    </contour>
  </outline>
</glyph>
<glyph name="currency" format="2">
  <advance width="498.0"/>
  <unicode hex="00A4"/>
  <outline>
    <contour>
      <point x="58.0" y="-1.5" type="line"/>
      <point x="123.0" y="66.5" type="line"/>
      <point x="157.5" y="41.5"/>
      <point x="201.5" y="27.5"/>
      <point x="249.5" y="27.5" type="curve" smooth="yes"/>
      <point x="297.0" y="27.5"/>
      <point x="341.5" y="42.5"/>
      <point x="376.0" y="67.0" type="curve"/>
      <point x="441.0" y="-1.5" type="line"/>
      <point x="486.0" y="39.0" type="line"/>
      <point x="420.5" y="108.0" type="line"/>
      <point x="450.0" y="145.5"/>
      <point x="467.0" y="193.5"/>
      <point x="467.0" y="245.5" type="curve" smooth="yes"/>
      <point x="467.0" y="298.0"/>
      <point x="450.0" y="345.0"/>
      <point x="421.0" y="381.5" type="curve"/>
      <point x="485.5" y="450.5" type="line"/>
      <point x="441.0" y="490.5" type="line"/>
      <point x="377.0" y="422.5" type="line"/>
      <point x="342.0" y="447.5"/>
      <point x="298.0" y="461.5"/>
      <point x="249.5" y="461.5" type="curve" smooth="yes"/>
      <point x="201.0" y="461.5"/>
      <point x="157.5" y="447.0"/>
      <point x="122.0" y="422.0" type="curve"/>
      <point x="57.5" y="490.0" type="line"/>
      <point x="12.5" y="451.0" type="line"/>
      <point x="78.5" y="382.0" type="line"/>
      <point x="49.0" y="344.0"/>
      <point x="32.0" y="297.5"/>
      <point x="32.0" y="244.5" type="curve" smooth="yes"/>
      <point x="32.0" y="192.0"/>
      <point x="49.5" y="145.0"/>
      <point x="78.5" y="108.5" type="curve"/>
      <point x="12.5" y="39.0" type="line"/>
    </contour>
    <contour>
      <point x="249.5" y="110.0" type="curve" smooth="yes"/>
      <point x="174.5" y="109.5"/>
      <point x="116.5" y="169.0"/>
      <point x="116.5" y="244.0" type="curve" smooth="yes"/>
      <point x="116.5" y="320.0"/>
      <point x="174.0" y="380.5"/>
      <point x="249.5" y="380.0" type="curve" smooth="yes"/>
      <point x="325.0" y="379.0"/>
      <point x="382.5" y="320.5"/>
      <point x="382.5" y="245.0" type="curve" smooth="yes"/>
      <point x="382.5" y="170.5"/>
      <point x="325.0" y="110.5"/>
    </contour>
  </outline>
</glyph>
<glyph name="yen" format="2">
  <advance width="498.0"/>
  <unicode hex="00A5"/>
  <outline>
    <contour>
      <point x="190.5" y="0.0" type="line"/>
      <point x="307.5" y="0.0" type="line"/>
      <point x="307.5" y="167.0" type="line"/>
      <point x="438.0" y="167.0" type="line"/>
      <point x="438.0" y="249.0" type="line"/>
      <point x="307.5" y="249.0" type="line"/>
      <point x="307.5" y="313.5" type="line"/>
      <point x="438.0" y="313.5" type="line"/>
      <point x="438.0" y="396.0" type="line"/>
      <point x="328.0" y="396.0" type="line"/>
      <point x="328.0" y="379.0" type="line"/>
      <point x="508.0" y="705.0" type="line"/>
      <point x="383.5" y="705.0" type="line"/>
      <point x="236.5" y="413.0" type="line"/>
      <point x="261.5" y="413.0" type="line"/>
      <point x="115.5" y="705.0" type="line"/>
      <point x="-10.0" y="705.0" type="line"/>
      <point x="171.0" y="379.0" type="line"/>
      <point x="171.0" y="396.0" type="line"/>
      <point x="60.0" y="396.0" type="line"/>
      <point x="60.0" y="313.5" type="line"/>
      <point x="190.5" y="313.5" type="line"/>
      <point x="190.5" y="249.0" type="line"/>
      <point x="60.0" y="249.0" type="line"/>
      <point x="60.0" y="167.0" type="line"/>
      <point x="190.5" y="167.0" type="line"/>
    </contour>
  </outline>
</glyph>
<glyph name="brokenbar" format="2">
  <advance width="253.0"/>
  <unicode hex="00A6"/>
  <outline>
    <contour>
      <point x="69.5" y="372.0" type="line"/>
      <point x="183.5" y="372.0" type="line"/>
      <point x="183.5" y="705.0" type="line"/>
      <point x="69.5" y="705.0" type="line"/>
    </contour>
    <contour>
      <point x="69.5" y="-180.0" type="line"/>
      <point x="183.5" y="-180.0" type="line"/>
      <point x="183.5" y="154.0" type="line"/>
      <point x="69.5" y="154.0" type="line"/>
    </contour>
  </outline>
</glyph>
<glyph name="section" format="2">
  <advance width="478.0"/>
  <unicode hex="00A7"/>
  <outline>
    <contour>
      <point x="216.5" y="-190.0" type="curve" smooth="yes"/>
      <point x="338.0" y="-190.0"/>
      <point x="414.0" y="-122.0"/>
      <point x="414.0" y="-12.0" type="curve" smooth="yes"/>
      <point x="414.0" y="31.5"/>
      <point x="402.0" y="69.0"/>
      <point x="379.0" y="91.5" type="curve"/>
      <point x="370.5" y="60.5" type="line"/>
      <point x="420.5" y="97.5"/>
      <point x="448.0" y="151.5"/>
      <point x="448.0" y="213.5" type="curve" smooth="yes"/>
      <point x="448.0" y="286.5"/>
      <point x="411.5" y="344.0"/>
      <point x="333.0" y="386.0" type="curve" smooth="yes"/>
      <point x="234.0" y="438.5" type="line" smooth="yes"/>
      <point x="196.5" y="458.5"/>
      <point x="173.5" y="488.5"/>
      <point x="173.5" y="539.5" type="curve" smooth="yes"/>
      <point x="173.5" y="597.0"/>
      <point x="206.5" y="633.0"/>
      <point x="263.5" y="633.0" type="curve" smooth="yes"/>
      <point x="307.0" y="633.0"/>
      <point x="357.0" y="615.0"/>
      <point x="393.5" y="586.0" type="curve"/>
      <point x="422.0" y="662.0" type="line"/>
      <point x="382.0" y="695.0"/>
      <point x="320.5" y="715.0"/>
      <point x="257.5" y="715.0" type="curve" smooth="yes"/>
      <point x="139.0" y="715.0"/>
      <point x="65.0" y="646.5"/>
      <point x="65.0" y="537.0" type="curve" smooth="yes"/>
      <point x="65.0" y="493.5"/>
      <point x="77.0" y="456.0"/>
      <point x="100.0" y="433.5" type="curve"/>
      <point x="108.5" y="464.5" type="line"/>
      <point x="58.5" y="427.5"/>
      <point x="31.0" y="373.5"/>
      <point x="31.0" y="311.5" type="curve" smooth="yes"/>
      <point x="31.0" y="235.5"/>
      <point x="71.0" y="179.0"/>
      <point x="146.0" y="139.0" type="curve" smooth="yes"/>
      <point x="245.0" y="86.5" type="line" smooth="yes"/>
      <point x="287.5" y="63.5"/>
      <point x="305.5" y="32.0"/>
      <point x="305.5" y="-13.5" type="curve" smooth="yes"/>
      <point x="305.5" y="-73.0"/>
      <point x="270.5" y="-108.0"/>
      <point x="213.5" y="-108.0" type="curve" smooth="yes"/>
      <point x="166.5" y="-108.0"/>
      <point x="109.5" y="-86.0"/>
      <point x="75.5" y="-55.5" type="curve"/>
      <point x="48.5" y="-134.0" type="line"/>
      <point x="85.5" y="-169.0"/>
      <point x="148.0" y="-190.0"/>
    </contour>
    <contour>
      <point x="132.0" y="332.5" type="curve" smooth="yes"/>
      <point x="132.0" y="362.0"/>
      <point x="140.0" y="389.0"/>
      <point x="157.0" y="412.5" type="curve"/>
      <point x="121.5" y="409.5" type="line"/>
      <point x="135.0" y="389.0"/>
      <point x="158.5" y="367.0"/>
      <point x="186.0" y="351.5" type="curve" smooth="yes"/>
      <point x="270.5" y="306.0" type="line" smooth="yes"/>
      <point x="325.5" y="276.0"/>
      <point x="347.0" y="240.0"/>
      <point x="347.0" y="192.5" type="curve" smooth="yes"/>
      <point x="347.0" y="163.0"/>
      <point x="339.0" y="136.0"/>
      <point x="322.0" y="112.5" type="curve"/>
      <point x="357.5" y="115.5" type="line"/>
      <point x="344.0" y="136.0"/>
      <point x="320.0" y="158.5"/>
      <point x="293.0" y="173.5" type="curve" smooth="yes"/>
      <point x="208.5" y="219.0" type="line" smooth="yes"/>
      <point x="154.5" y="248.0"/>
      <point x="132.0" y="283.5"/>
    </contour>
  </outline>
</glyph>
<glyph name="copyright" format="2">
  <advance width="670.0"/>
  <unicode hex="00A9"/>
  <outline>
    <contour>
      <point x="335.0" y="-10.0" type="curve" smooth="yes"/>
      <point x="513.5" y="-10.0"/>
      <point x="636.0" y="135.5"/>
      <point x="636.0" y="353.0" type="curve" smooth="yes"/>
      <point x="636.0" y="570.0"/>
      <point x="514.0" y="715.0"/>
      <point x="335.0" y="715.0" type="curve" smooth="yes"/>
      <point x="156.5" y="715.0"/>
      <point x="34.0" y="569.5"/>
      <point x="34.0" y="352.0" type="curve" smooth="yes"/>
      <point x="34.0" y="135.0"/>
      <point x="156.0" y="-10.0"/>
    </contour>
    <contour>
      <point x="344.0" y="136.0" type="curve" smooth="yes"/>
      <point x="394.0" y="136.0"/>
      <point x="437.0" y="153.0"/>
      <point x="465.0" y="181.5" type="curve"/>
      <point x="438.5" y="244.0" type="line"/>
      <point x="416.5" y="224.5"/>
      <point x="394.0" y="213.5"/>
      <point x="361.0" y="213.5" type="curve" smooth="yes"/>
      <point x="297.0" y="213.5"/>
      <point x="267.5" y="256.5"/>
      <point x="267.5" y="353.0" type="curve" smooth="yes"/>
      <point x="267.5" y="448.0"/>
      <point x="297.5" y="491.5"/>
      <point x="363.5" y="491.5" type="curve" smooth="yes"/>
      <point x="392.0" y="491.5"/>
      <point x="415.0" y="482.0"/>
      <point x="439.0" y="461.5" type="curve"/>
      <point x="465.0" y="525.5" type="line"/>
      <point x="438.0" y="553.5"/>
      <point x="395.5" y="569.0"/>
      <point x="346.5" y="569.0" type="curve" smooth="yes"/>
      <point x="235.5" y="569.0"/>
      <point x="172.5" y="492.0"/>
      <point x="172.5" y="352.5" type="curve" smooth="yes"/>
      <point x="172.5" y="214.0"/>
      <point x="235.0" y="136.0"/>
    </contour>
    <contour>
      <point x="335.0" y="38.5" type="curve" smooth="yes"/>
      <point x="184.5" y="38.5"/>
      <point x="86.0" y="159.5"/>
      <point x="86.0" y="352.0" type="curve" smooth="yes"/>
      <point x="86.0" y="544.5"/>
      <point x="184.5" y="666.5"/>
      <point x="335.0" y="666.5" type="curve" smooth="yes"/>
      <point x="486.5" y="666.5"/>
      <point x="584.0" y="545.5"/>
      <point x="584.0" y="353.0" type="curve" smooth="yes"/>
      <point x="584.0" y="160.5"/>
      <point x="486.5" y="38.5"/>
    </contour>
  </outline>
</glyph>
<glyph name="ordfeminine" format="2">
  <advance width="284.0"/>
  <unicode hex="00AA"/>
  <outline>
    <contour>
      <point x="113.5" y="409.5" type="curve" smooth="yes"/>
      <point x="153.5" y="409.5"/>
      <point x="179.5" y="433.0"/>
      <point x="191.0" y="482.0" type="curve"/>
      <point x="189.0" y="482.0" type="line"/>
      <point x="189.0" y="414.5" type="line"/>
      <point x="258.0" y="414.5" type="line"/>
      <point x="258.0" y="602.5" type="line" smooth="yes"/>
      <point x="258.0" y="678.5"/>
      <point x="221.5" y="715.0"/>
      <point x="147.0" y="715.0" type="curve" smooth="yes"/>
      <point x="105.0" y="715.0"/>
      <point x="58.5" y="702.5"/>
      <point x="27.0" y="681.5" type="curve"/>
      <point x="50.0" y="632.0" type="line"/>
      <point x="72.5" y="648.0"/>
      <point x="106.5" y="658.0"/>
      <point x="135.5" y="658.0" type="curve" smooth="yes"/>
      <point x="172.0" y="658.0"/>
      <point x="186.5" y="646.0"/>
      <point x="186.5" y="607.0" type="curve" smooth="yes"/>
      <point x="186.5" y="529.5" type="line" smooth="yes"/>
      <point x="186.5" y="489.5"/>
      <point x="164.5" y="459.5"/>
      <point x="134.5" y="459.5" type="curve" smooth="yes"/>
      <point x="109.0" y="459.5"/>
      <point x="91.5" y="478.5"/>
      <point x="91.5" y="504.5" type="curve" smooth="yes"/>
      <point x="91.5" y="536.0"/>
      <point x="112.5" y="547.0"/>
      <point x="175.5" y="547.0" type="curve" smooth="yes"/>
      <point x="196.5" y="547.0" type="line"/>
      <point x="196.5" y="588.0" type="line"/>
      <point x="166.5" y="588.0" type="line" smooth="yes"/>
      <point x="63.5" y="588.0"/>
      <point x="19.0" y="562.5"/>
      <point x="19.0" y="504.5" type="curve" smooth="yes"/>
      <point x="19.0" y="450.5"/>
      <point x="60.5" y="409.5"/>
    </contour>
  </outline>
</glyph>
<glyph name="logicalnot" format="2">
  <advance width="498.0"/>
  <unicode hex="00AC"/>
  <outline>
    <contour>
      <point x="381.0" y="164.5" type="line"/>
      <point x="466.0" y="164.5" type="line"/>
      <point x="466.0" y="428.5" type="line"/>
      <point x="32.0" y="428.5" type="line"/>
      <point x="32.0" y="348.5" type="line"/>
      <point x="381.0" y="348.5" type="line"/>
    </contour>
  </outline>
</glyph>
<glyph name="registered" format="2">
  <advance width="670.0"/>
  <unicode hex="00AE"/>
  <outline>
    <contour>
      <point x="335.0" y="-10.0" type="curve" smooth="yes"/>
      <point x="515.0" y="-10.0"/>
      <point x="636.0" y="137.0"/>
      <point x="636.0" y="353.0" type="curve" smooth="yes"/>
      <point x="636.0" y="569.0"/>
      <point x="515.0" y="715.0"/>
      <point x="335.0" y="715.0" type="curve" smooth="yes"/>
      <point x="155.0" y="715.0"/>
      <point x="34.0" y="568.0"/>
      <point x="34.0" y="352.0" type="curve" smooth="yes"/>
      <point x="34.0" y="136.0"/>
      <point x="155.0" y="-10.0"/>
    </contour>
    <contour>
      <point x="335.0" y="38.5" type="curve" smooth="yes"/>
      <point x="183.5" y="38.5"/>
      <point x="86.0" y="160.5"/>
      <point x="86.0" y="352.0" type="curve" smooth="yes"/>
      <point x="86.0" y="543.5"/>
      <point x="183.5" y="666.5"/>
      <point x="335.0" y="666.5" type="curve" smooth="yes"/>
      <point x="487.5" y="666.5"/>
      <point x="584.0" y="544.5"/>
      <point x="584.0" y="353.0" type="curve" smooth="yes"/>
      <point x="584.0" y="161.5"/>
      <point x="487.5" y="38.5"/>
    </contour>
    <contour>
      <point x="204.5" y="141.5" type="line"/>
      <point x="287.5" y="141.5" type="line"/>
      <point x="287.5" y="320.0" type="line"/>
      <point x="277.5" y="310.0" type="line"/>
      <point x="319.0" y="310.0" type="line" smooth="yes"/>
      <point x="343.5" y="310.0"/>
      <point x="355.5" y="301.0"/>
      <point x="365.0" y="271.5" type="curve" smooth="yes"/>
      <point x="402.0" y="141.5" type="line"/>
      <point x="492.0" y="141.5" type="line"/>
      <point x="451.5" y="269.0" type="line" smooth="yes"/>
      <point x="440.5" y="304.0"/>
      <point x="421.0" y="321.5"/>
      <point x="392.5" y="321.5" type="curve"/>
      <point x="356.5" y="312.5" type="line"/>
      <point x="431.5" y="312.5"/>
      <point x="482.0" y="361.0"/>
      <point x="482.0" y="439.5" type="curve" smooth="yes"/>
      <point x="482.0" y="517.5"/>
      <point x="433.0" y="565.0"/>
      <point x="355.0" y="565.0" type="curve" smooth="yes"/>
      <point x="204.5" y="565.0" type="line"/>
    </contour>
    <contour>
      <point x="287.5" y="371.0" type="line"/>
      <point x="287.5" y="501.0" type="line"/>
      <point x="344.0" y="501.0" type="line" smooth="yes"/>
      <point x="379.5" y="501.0"/>
      <point x="401.0" y="477.5"/>
      <point x="401.0" y="437.5" type="curve" smooth="yes"/>
      <point x="401.0" y="396.0"/>
      <point x="379.5" y="371.0"/>
      <point x="344.0" y="371.0" type="curve" smooth="yes"/>
    </contour>
  </outline>
</glyph>
<glyph name="degree" format="2">
  <advance width="354.0"/>
  <unicode hex="00B0"/>
  <outline>
    <contour>
      <point x="177.5" y="431.0" type="curve" smooth="yes"/>
      <point x="259.5" y="431.0"/>
      <point x="322.0" y="492.5"/>
      <point x="322.0" y="573.5" type="curve" smooth="yes"/>
      <point x="322.0" y="654.0"/>
      <point x="260.0" y="715.5"/>
      <point x="177.5" y="715.5" type="curve" smooth="yes"/>
      <point x="94.5" y="715.5"/>
      <point x="32.5" y="653.5"/>
      <point x="32.5" y="573.5" type="curve" smooth="yes"/>
      <point x="32.5" y="493.0"/>
      <point x="95.0" y="431.0"/>
    </contour>
    <contour>
      <point x="177.5" y="495.0" type="curve" smooth="yes"/>
      <point x="133.5" y="495.0"/>
      <point x="103.0" y="528.5"/>
      <point x="103.0" y="573.5" type="curve" smooth="yes"/>
      <point x="103.0" y="618.0"/>
      <point x="133.5" y="651.5"/>
      <point x="177.5" y="651.5" type="curve" smooth="yes"/>
      <point x="221.0" y="651.5"/>
      <point x="251.0" y="618.0"/>
      <point x="251.0" y="573.5" type="curve" smooth="yes"/>
      <point x="251.0" y="528.5"/>
      <point x="221.0" y="495.0"/>
    </contour>
  </outline>
</glyph>
<glyph name="plusminus" format="2">
  <advance width="498.0"/>
  <unicode hex="00B1"/>
  <outline>
    <contour>
      <point x="206.5" y="131.0" type="line"/>
      <point x="291.5" y="131.0" type="line"/>
      <point x="291.5" y="295.5" type="line"/>
      <point x="466.0" y="295.5" type="line"/>
      <point x="466.0" y="374.5" type="line"/>
      <point x="291.5" y="374.5" type="line"/>
      <point x="291.5" y="535.5" type="line"/>
      <point x="206.5" y="535.5" type="line"/>
      <point x="206.5" y="374.5" type="line"/>
      <point x="32.0" y="374.5" type="line"/>
      <point x="32.0" y="295.5" type="line"/>
      <point x="206.5" y="295.5" type="line"/>
    </contour>
    <contour>
      <point x="32.0" y="0.0" type="line"/>
      <point x="466.0" y="0.0" type="line"/>
      <point x="466.0" y="80.0" type="line"/>
      <point x="32.0" y="80.0" type="line"/>
    </contour>
  </outline>
</glyph>
<glyph name="micro" format="2">
  <advance width="484.0"/>
  <unicode hex="00B5"/>
  <outline>
    <contour>
      <point x="53.0" y="-180.0" type="line"/>
      <point x="167.0" y="-180.0" type="line"/>
      <point x="155.5" y="55.0" type="line"/>
      <point x="148.5" y="55.0" type="line"/>
      <point x="162.5" y="9.0"/>
      <point x="189.5" y="-10.0"/>
      <point x="226.0" y="-10.0" type="curve" smooth="yes"/>
      <point x="275.0" y="-10.0"/>
      <point x="307.0" y="25.0"/>
      <point x="322.5" y="91.0" type="curve"/>
      <point x="320.0" y="91.0" type="line"/>
      <point x="320.0" y="0.0" type="line"/>
      <point x="430.5" y="0.0" type="line"/>
      <point x="430.5" y="489.0" type="line"/>
      <point x="316.5" y="489.0" type="line"/>
      <point x="316.5" y="184.5" type="line" smooth="yes"/>
      <point x="316.5" y="119.0"/>
      <point x="278.5" y="81.5"/>
      <point x="229.5" y="81.5" type="curve" smooth="yes"/>
      <point x="190.5" y="81.5"/>
      <point x="167.0" y="102.5"/>
      <point x="167.0" y="171.0" type="curve" smooth="yes"/>
      <point x="167.0" y="489.0" type="line"/>
      <point x="53.0" y="489.0" type="line"/>
    </contour>
  </outline>
</glyph>
<glyph name="paragraph" format="2">
  <advance width="529.0"/>
  <unicode hex="00B6"/>
  <outline>
    <contour>
      <point x="204.5" y="-180.0" type="line"/>
      <point x="288.5" y="-180.0" type="line"/>
      <point x="288.5" y="624.0" type="line"/>
      <point x="380.5" y="624.0" type="line"/>
      <point x="380.5" y="-180.0" type="line"/>
      <point x="464.5" y="-180.0" type="line"/>
      <point x="464.5" y="705.0" type="line"/>
      <point x="206.5" y="705.0" type="line" smooth="yes"/>
      <point x="98.5" y="705.0"/>
      <point x="23.0" y="622.0"/>
      <point x="23.0" y="497.5" type="curve" smooth="yes"/>
      <point x="23.0" y="374.0"/>
      <point x="98.5" y="289.5"/>
      <point x="204.5" y="289.5" type="curve"/>
    </contour>
  </outline>
</glyph>
<glyph name="periodcentered" format="2">
  <advance width="216.5"/>
  <unicode hex="00B7"/>
  <outline>
    <contour>
      <point x="46.0" y="203.0" type="line"/>
      <point x="171.0" y="203.0" type="line"/>
      <point x="171.0" y="331.5" type="line"/>
      <point x="46.0" y="331.5" type="line"/>
    </contour>
  </outline>
</glyph>
<glyph name="ordmasculine" format="2">
  <advance width="295.0"/>
  <unicode hex="00BA"/>
  <outline>
    <contour>
      <point x="148.0" y="410.0" type="curve" smooth="yes"/>
      <point x="225.0" y="410.0"/>
      <point x="278.0" y="460.0"/>
      <point x="278.0" y="563.0" type="curve" smooth="yes"/>
      <point x="278.0" y="665.0"/>
      <point x="225.0" y="715.0"/>
      <point x="148.0" y="715.0" type="curve" smooth="yes"/>
      <point x="70.0" y="715.0"/>
      <point x="17.0" y="665.0"/>
      <point x="17.0" y="563.0" type="curve" smooth="yes"/>
      <point x="17.0" y="460.0"/>
      <point x="70.0" y="410.0"/>
    </contour>
    <contour>
      <point x="148.0" y="468.5" type="curve" smooth="yes"/>
      <point x="113.11449999999999" y="468.5"/>
      <point x="91.0" y="492.5"/>
      <point x="91.0" y="563.0" type="curve" smooth="yes"/>
      <point x="91.0" y="633.0"/>
      <point x="113.11449999999999" y="657.0"/>
      <point x="148.0" y="657.0" type="curve" smooth="yes"/>
      <point x="181.88549999999998" y="657.0"/>
      <point x="204.0" y="633.0"/>
      <point x="204.0" y="563.0" type="curve" smooth="yes"/>
      <point x="204.0" y="492.5"/>
      <point x="181.88549999999998" y="468.5"/>
    </contour>
  </outline>
</glyph>
<glyph name="questiondown" format="2">
  <advance width="386.5"/>
  <unicode hex="00BF"/>
  <outline>
    <contour>
      <point x="187.5" y="-189.0" type="curve" smooth="yes"/>
      <point x="262.5" y="-189.0"/>
      <point x="334.5" y="-160.5"/>
      <point x="380.5" y="-114.0" type="curve"/>
      <point x="345.5" y="-27.0" type="line"/>
      <point x="298.5" y="-70.0"/>
      <point x="254.5" y="-90.0"/>
      <point x="208.0" y="-90.0" type="curve" smooth="yes"/>
      <point x="157.0" y="-90.0"/>
      <point x="131.5" y="-64.5"/>
      <point x="131.5" y="-16.5" type="curve" smooth="yes"/>
      <point x="131.5" y="18.5"/>
      <point x="145.5" y="48.5"/>
      <point x="180.0" y="98.0" type="curve" smooth="yes"/>
      <point x="231.0" y="174.5"/>
      <point x="233.0" y="211.5"/>
      <point x="233.0" y="254.0" type="curve" smooth="yes"/>
      <point x="233.0" y="287.0" type="line"/>
      <point x="165.5" y="287.0" type="line"/>
      <point x="162.5" y="263.5" type="line" smooth="yes"/>
      <point x="157.0" y="218.5"/>
      <point x="147.0" y="195.5"/>
      <point x="98.5" y="137.5" type="curve" smooth="yes"/>
      <point x="36.5" y="70.0"/>
      <point x="15.5" y="26.0"/>
      <point x="15.5" y="-32.5" type="curve" smooth="yes"/>
      <point x="15.5" y="-130.5"/>
      <point x="80.5" y="-189.0"/>
    </contour>
    <contour>
      <point x="137.0" y="360.5" type="line"/>
      <point x="261.5" y="360.5" type="line"/>
      <point x="261.5" y="489.0" type="line"/>
      <point x="137.0" y="489.0" type="line"/>
    </contour>
  </outline>
</glyph>
<glyph name="AE" format="2">
  <advance width="823.0"/>
  <unicode hex="00C6"/>
  <anchor x="399.5" y="0.0" name="bottom"/>
  <anchor x="399.5" y="705.0" name="top"/>
  <outline>
    <contour>
      <point x="-29.0" y="0.0" type="line"/>
      <point x="93.0" y="0.0" type="line"/>
      <point x="184.0" y="197.5" type="line"/>
      <point x="143.5" y="167.5" type="line"/>
      <point x="454.5" y="167.5" type="line"/>
      <point x="418.0" y="201.0" type="line"/>
      <point x="452.0" y="0.0" type="line"/>
      <point x="776.5" y="0.0" type="line"/>
      <point x="776.5" y="93.5" type="line"/>
      <point x="510.0" y="93.5" type="line"/>
      <point x="551.0" y="59.0" type="line"/>
      <point x="504.0" y="342.0" type="line"/>
      <point x="478.5" y="311.0" type="line"/>
      <point x="759.5" y="311.0" type="line"/>
      <point x="759.5" y="404.5" type="line"/>
      <point x="458.5" y="404.5" type="line"/>
      <point x="499.0" y="372.5" type="line"/>
      <point x="453.0" y="644.5" type="line"/>
      <point x="425.5" y="611.5" type="line"/>
      <point x="776.5" y="611.5" type="line"/>
      <point x="776.5" y="705.0" type="line"/>
      <point x="313.5" y="705.0" type="line"/>
    </contour>
    <contour>
      <point x="355.0" y="569.0" type="line"/>
      <point x="356.0" y="569.0" type="line"/>
      <point x="413.5" y="230.0" type="line"/>
      <point x="434.0" y="261.0" type="line"/>
      <point x="198.0" y="261.0" type="line"/>
      <point x="199.5" y="233.5" type="line"/>
    </contour>
  </outline>
</glyph>
<glyph name="multiply" format="2">
  <advance width="498.0"/>
  <unicode hex="00D7"/>
  <outline>
    <contour>
      <point x="98.0" y="79.0" type="line"/>
      <point x="249.0" y="231.0" type="line"/>
      <point x="400.0" y="79.0" type="line"/>
      <point x="455.0" y="133.0" type="line"/>
      <point x="303.0" y="285.0" type="line"/>
      <point x="455.0" y="438.0" type="line"/>
      <point x="400.0" y="493.0" type="line"/>
      <point x="249.0" y="341.5" type="line"/>
      <point x="98.0" y="493.0" type="line"/>
      <point x="43.0" y="438.0" type="line"/>
      <point x="195.0" y="285.0" type="line"/>
      <point x="43.0" y="133.0" type="line"/>
    </contour>
  </outline>
</glyph>
<glyph name="Thorn" format="2">
  <advance width="545.5"/>
  <unicode hex="00DE"/>
  <anchor x="278.5" y="0.0" name="bottom"/>
  <anchor x="279.0" y="705.0" name="top"/>
  <outline>
    <contour>
      <point x="64.5" y="0.0" type="line"/>
      <point x="181.5" y="0.0" type="line"/>
      <point x="181.5" y="148.0" type="line"/>
      <point x="315.5" y="148.0" type="line" smooth="yes"/>
      <point x="442.5" y="148.0"/>
      <point x="518.0" y="229.5"/>
      <point x="518.0" y="366.5" type="curve" smooth="yes"/>
      <point x="518.0" y="504.0"/>
      <point x="443.0" y="584.5"/>
      <point x="315.5" y="584.5" type="curve" smooth="yes"/>
      <point x="181.5" y="584.5" type="line"/>
      <point x="181.5" y="705.0" type="line"/>
      <point x="64.5" y="705.0" type="line"/>
    </contour>
    <contour>
      <point x="181.5" y="240.5" type="line"/>
      <point x="181.5" y="492.0" type="line"/>
      <point x="296.5" y="492.0" type="line" smooth="yes"/>
      <point x="367.0" y="492.0"/>
      <point x="405.0" y="447.0"/>
      <point x="405.0" y="366.5" type="curve" smooth="yes"/>
      <point x="405.0" y="286.0"/>
      <point x="367.0" y="240.5"/>
      <point x="296.5" y="240.5" type="curve" smooth="yes"/>
    </contour>
  </outline>
</glyph>
<glyph name="germandbls" format="2">
  <advance width="550.0"/>
  <unicode hex="00DF"/>
  <outline>
    <contour>
      <point x="363.0" y="-10.0" type="curve" smooth="yes"/>
      <point x="463.5" y="-10.0"/>
      <point x="529.5" y="50.5"/>
      <point x="529.5" y="149.5" type="curve" smooth="yes"/>
      <point x="529.5" y="219.75549999999998"/>
      <point x="493.46950000000004" y="267.01"/>
      <point x="415.5" y="293.5" type="curve" smooth="yes"/>
      <point x="359.96799999999996" y="312.5105"/>
      <point x="340.0" y="329.7475"/>
      <point x="340.0" y="365.0" type="curve" smooth="yes"/>
      <point x="340.0" y="388.5"/>
      <point x="350.521" y="406.0085"/>
      <point x="383.0" y="448.5" type="curve" smooth="yes"/>
      <point x="412.9385" y="488.9365"/>
      <point x="437.0" y="521.2574999999999"/>
      <point x="437.0" y="574.5" type="curve" smooth="yes"/>
      <point x="437.0" y="664.5"/>
      <point x="377.0" y="715.0"/>
      <point x="265.5" y="715.0" type="curve" smooth="yes"/>
      <point x="129.0" y="715.0"/>
      <point x="54.5" y="638.5"/>
      <point x="54.5" y="494.5" type="curve" smooth="yes"/>
      <point x="54.5" y="0.0" type="line"/>
      <point x="168.5" y="0.0" type="line"/>
      <point x="168.5" y="511.5" type="line" smooth="yes"/>
      <point x="168.5" y="591.0"/>
      <point x="199.0" y="630.5"/>
      <point x="262.0" y="630.5" type="curve" smooth="yes"/>
      <point x="308.178" y="630.5"/>
      <point x="330.0" y="610.0"/>
      <point x="330.0" y="565.0" type="curve" smooth="yes"/>
      <point x="330.0" y="530.769"/>
      <point x="316.578" y="511.0805"/>
      <point x="293.5" y="482.0" type="curve" smooth="yes"/>
      <point x="258.0775" y="438.0795"/>
      <point x="237.0" y="401.0"/>
      <point x="237.0" y="350.5" type="curve" smooth="yes"/>
      <point x="237.0" y="289.746"/>
      <point x="269.534" y="244.9885"/>
      <point x="352.5" y="214.5" type="curve" smooth="yes"/>
      <point x="407.3625" y="194.3775"/>
      <point x="427.0" y="175.5"/>
      <point x="427.0" y="139.5" type="curve" smooth="yes"/>
      <point x="427.0" y="98.5"/>
      <point x="400.5" y="75.5"/>
      <point x="355.5" y="75.5" type="curve" smooth="yes"/>
      <point x="315.5" y="75.5"/>
      <point x="273.0" y="92.5"/>
      <point x="234.0" y="124.0" type="curve"/>
      <point x="207.0" y="46.5" type="line"/>
      <point x="242.5" y="12.5"/>
      <point x="302.5" y="-10.0"/>
    </contour>
  </outline>
</glyph>
<glyph name="ae" format="2">
  <advance width="711.5"/>
  <unicode hex="00E6"/>
  <anchor x="344.0" y="0.0" name="bottom"/>
  <anchor x="344.0" y="484.0" name="top"/>
  <outline>
    <contour>
      <point x="194.5" y="-10.0" type="curve" smooth="yes"/>
      <point x="276.0" y="-10.0"/>
      <point x="337.5" y="45.0"/>
      <point x="349.0" y="129.0" type="curve"/>
      <point x="332.0" y="129.0" type="line"/>
      <point x="357.0" y="36.5"/>
      <point x="423.5" y="-10.0"/>
      <point x="514.5" y="-10.0" type="curve" smooth="yes"/>
      <point x="571.0" y="-10.0"/>
      <point x="626.5" y="9.5"/>
      <point x="675.5" y="47.0" type="curve"/>
      <point x="642.0" y="124.5" type="line"/>
      <point x="608.0" y="95.0"/>
      <point x="563.5" y="78.5"/>
      <point x="518.5" y="78.5" type="curve" smooth="yes"/>
      <point x="441.0" y="78.5"/>
      <point x="406.5" y="125.0"/>
      <point x="406.5" y="227.5" type="curve" smooth="yes"/>
      <point x="406.5" y="254.5" type="line" smooth="yes"/>
      <point x="406.5" y="363.5"/>
      <point x="437.0" y="419.0"/>
      <point x="502.5" y="419.0" type="curve" smooth="yes"/>
      <point x="559.0" y="419.0"/>
      <point x="585.0" y="374.0"/>
      <point x="585.0" y="271.5" type="curve"/>
      <point x="599.0" y="289.0" type="line"/>
      <point x="391.5" y="289.0" type="line"/>
      <point x="391.5" y="219.0" type="line"/>
      <point x="681.5" y="219.0" type="line"/>
      <point x="681.5" y="261.0" type="line" smooth="yes"/>
      <point x="681.5" y="415.0"/>
      <point x="616.5" y="499.0"/>
      <point x="502.0" y="499.0" type="curve" smooth="yes"/>
      <point x="437.5" y="499.0"/>
      <point x="377.0" y="460.5"/>
      <point x="351.5" y="384.5" type="curve"/>
      <point x="372.5" y="384.5" type="line"/>
      <point x="358.0" y="462.5"/>
      <point x="314.0" y="499.0"/>
      <point x="231.5" y="499.0" type="curve" smooth="yes"/>
      <point x="168.5" y="499.0"/>
      <point x="98.5" y="478.5"/>
      <point x="52.0" y="444.0" type="curve"/>
      <point x="87.0" y="364.0" type="line"/>
      <point x="126.5" y="393.5"/>
      <point x="175.5" y="410.0"/>
      <point x="219.0" y="410.0" type="curve" smooth="yes"/>
      <point x="275.5" y="410.0"/>
      <point x="297.5" y="379.5"/>
      <point x="297.5" y="331.5" type="curve" smooth="yes"/>
      <point x="297.5" y="183.5" type="line" smooth="yes"/>
      <point x="297.5" y="120.5"/>
      <point x="262.5" y="71.5"/>
      <point x="214.5" y="71.5" type="curve" smooth="yes"/>
      <point x="176.0" y="71.5"/>
      <point x="147.0" y="103.0"/>
      <point x="147.0" y="148.0" type="curve" smooth="yes"/>
      <point x="147.0" y="201.5"/>
      <point x="186.0" y="219.0"/>
      <point x="266.0" y="219.0" type="curve" smooth="yes"/>
      <point x="310.5" y="219.0" type="line"/>
      <point x="310.5" y="289.0" type="line"/>
      <point x="255.0" y="289.0" type="line" smooth="yes"/>
      <point x="113.5" y="289.0"/>
      <point x="36.5" y="246.5"/>
      <point x="36.5" y="148.0" type="curve" smooth="yes"/>
      <point x="36.5" y="57.0"/>
      <point x="104.0" y="-10.0"/>
    </contour>
  </outline>
</glyph>
<glyph name="eth" format="2">
  <advance width="485.5"/>
  <unicode hex="00F0"/>
  <outline>
    <contour>
      <point x="241.0" y="-10.0" type="curve" smooth="yes"/>
      <point x="381.5" y="-10.0"/>
      <point x="453.5" y="81.5"/>
      <point x="453.5" y="260.5" type="curve" smooth="yes"/>
      <point x="453.5" y="419.5"/>
      <point x="406.5" y="532.0"/>
      <point x="335.0" y="607.5" type="curve"/>
      <point x="336.0" y="597.5" type="line"/>
      <point x="431.0" y="650.0" type="line"/>
      <point x="399.0" y="715.5" type="line"/>
      <point x="266.0" y="643.5" type="line"/>
      <point x="297.0" y="639.5" type="line"/>
      <point x="255.0" y="671.0"/>
      <point x="197.0" y="700.5"/>
      <point x="123.0" y="715.5" type="curve"/>
      <point x="104.5" y="647.5" type="line"/>
      <point x="151.5" y="636.5"/>
      <point x="195.0" y="616.0"/>
      <point x="211.0" y="602.5" type="curve"/>
      <point x="210.5" y="615.0" type="line"/>
      <point x="94.0" y="551.5" type="line"/>
      <point x="126.0" y="486.0" type="line"/>
      <point x="267.5" y="563.0" type="line"/>
      <point x="258.0" y="565.5" type="line"/>
      <point x="305.0" y="515.5"/>
      <point x="348.5" y="432.0"/>
      <point x="349.0" y="309.5" type="curve"/>
      <point x="375.0" y="309.5" type="line"/>
      <point x="354.0" y="415.5"/>
      <point x="294.5" y="453.5"/>
      <point x="217.5" y="453.5" type="curve" smooth="yes"/>
      <point x="103.5" y="453.5"/>
      <point x="33.5" y="366.0"/>
      <point x="33.5" y="222.0" type="curve" smooth="yes"/>
      <point x="33.5" y="74.0"/>
      <point x="108.5" y="-10.0"/>
    </contour>
    <contour>
      <point x="241.0" y="76.0" type="curve" smooth="yes"/>
      <point x="178.5" y="76.0"/>
      <point x="148.5" y="124.0"/>
      <point x="148.5" y="222.0" type="curve" smooth="yes"/>
      <point x="148.5" y="319.5"/>
      <point x="179.0" y="367.0"/>
      <point x="241.0" y="367.0" type="curve" smooth="yes"/>
      <point x="304.0" y="367.0"/>
      <point x="334.5" y="319.5"/>
      <point x="334.5" y="222.0" type="curve" smooth="yes"/>
      <point x="334.5" y="123.5"/>
      <point x="304.0" y="76.0"/>
    </contour>
  </outline>
</glyph>
<glyph name="divide" format="2">
  <advance width="498.0"/>
  <unicode hex="00F7"/>
  <outline>
    <contour>
      <point x="32.0" y="246.0" type="line"/>
      <point x="466.0" y="246.0" type="line"/>
      <point x="466.0" y="326.0" type="line"/>
      <point x="32.0" y="326.0" type="line"/>
    </contour>
    <contour>
      <point x="201.0" y="41.0" type="line"/>
      <point x="297.5" y="41.0" type="line"/>
      <point x="297.5" y="138.5" type="line"/>
      <point x="201.0" y="138.5" type="line"/>
    </contour>
    <contour>
      <point x="201.0" y="433.5" type="line"/>
      <point x="297.5" y="433.5" type="line"/>
      <point x="297.5" y="531.0" type="line"/>
      <point x="201.0" y="531.0" type="line"/>
    </contour>
  </outline>
</glyph>
<glyph name="dcroat" format="2">
  <advance width="501.0"/>
  <unicode hex="0111"/>
  <outline>
    <contour>
      <point x="207.5" y="-10.0" type="curve" smooth="yes"/>
      <point x="279.0" y="-10.0"/>
      <point x="328.5" y="31.0"/>
      <point x="344.5" y="104.5" type="curve"/>
      <point x="333.5" y="104.5" type="line"/>
      <point x="333.5" y="0.0" type="line"/>
      <point x="447.5" y="0.0" type="line"/>
      <point x="447.5" y="546.0" type="line"/>
      <point x="516.0" y="546.0" type="line"/>
      <point x="516.0" y="626.5" type="line"/>
      <point x="447.5" y="626.5" type="line"/>
      <point x="447.5" y="705.0" type="line"/>
      <point x="333.5" y="705.0" type="line"/>
      <point x="333.5" y="626.5" type="line"/>
      <point x="181.0" y="626.5" type="line"/>
      <point x="181.0" y="546.0" type="line"/>
      <point x="333.5" y="546.0" type="line"/>
      <point x="333.5" y="386.0" type="line"/>
      <point x="344.5" y="386.0" type="line"/>
      <point x="328.5" y="458.5"/>
      <point x="279.5" y="499.0"/>
      <point x="208.0" y="499.0" type="curve" smooth="yes"/>
      <point x="99.5" y="499.0"/>
      <point x="34.5" y="405.5"/>
      <point x="34.5" y="245.0" type="curve" smooth="yes"/>
      <point x="34.5" y="84.5"/>
      <point x="99.5" y="-10.0"/>
    </contour>
    <contour>
      <point x="242.5" y="78.0" type="curve" smooth="yes"/>
      <point x="180.0" y="78.0"/>
      <point x="149.5" y="132.0"/>
      <point x="149.5" y="245.0" type="curve" smooth="yes"/>
      <point x="149.5" y="358.0"/>
      <point x="180.0" y="411.0"/>
      <point x="242.5" y="411.0" type="curve" smooth="yes"/>
      <point x="304.0" y="411.0"/>
      <point x="335.5" y="357.5"/>
      <point x="335.5" y="245.0" type="curve" smooth="yes"/>
      <point x="335.5" y="132.5"/>
      <point x="304.0" y="78.0"/>
    </contour>
  </outline>
</glyph>
<glyph name="Hbar" format="2">
  <advance width="675.5"/>
  <unicode hex="0126"/>
  <outline>
    <contour>
      <point x="83.0" y="0.0" type="line"/>
      <point x="200.0" y="0.0" type="line"/>
      <point x="200.0" y="303.5" type="line"/>
      <point x="475.5" y="303.5" type="line"/>
      <point x="475.5" y="0.0" type="line"/>
      <point x="592.5" y="0.0" type="line"/>
      <point x="592.5" y="516.0" type="line"/>
      <point x="659.5" y="516.0" type="line"/>
      <point x="659.5" y="601.5" type="line"/>
      <point x="592.5" y="601.5" type="line"/>
      <point x="592.5" y="705.0" type="line"/>
      <point x="475.5" y="705.0" type="line"/>
      <point x="475.5" y="601.5" type="line"/>
      <point x="200.0" y="601.5" type="line"/>
      <point x="200.0" y="705.0" type="line"/>
      <point x="83.0" y="705.0" type="line"/>
      <point x="83.0" y="601.5" type="line"/>
      <point x="16.0" y="601.5" type="line"/>
      <point x="16.0" y="516.0" type="line"/>
      <point x="83.0" y="516.0" type="line"/>
    </contour>
    <contour>
      <point x="200.0" y="401.5" type="line"/>
      <point x="200.0" y="516.0" type="line"/>
      <point x="475.5" y="516.0" type="line"/>
      <point x="475.5" y="401.5" type="line"/>
    </contour>
  </outline>
</glyph>
<glyph name="hbar" format="2">
  <advance width="488.5"/>
  <unicode hex="0127"/>
  <outline>
    <contour>
      <point x="54.5" y="0.0" type="line"/>
      <point x="168.5" y="0.0" type="line"/>
      <point x="168.5" y="292.0" type="line" smooth="yes"/>
      <point x="168.5" y="364.0"/>
      <point x="202.5" y="408.5"/>
      <point x="257.0" y="408.5" type="curve" smooth="yes"/>
      <point x="303.0" y="408.5"/>
      <point x="322.5" y="379.0"/>
      <point x="322.5" y="312.5" type="curve" smooth="yes"/>
      <point x="322.5" y="0.0" type="line"/>
      <point x="436.5" y="0.0" type="line"/>
      <point x="436.5" y="319.0" type="line" smooth="yes"/>
      <point x="436.5" y="439.5"/>
      <point x="391.5" y="499.0"/>
      <point x="299.0" y="499.0" type="curve" smooth="yes"/>
      <point x="229.0" y="499.0"/>
      <point x="180.5" y="462.5"/>
      <point x="157.0" y="392.0" type="curve"/>
      <point x="168.5" y="392.0" type="line"/>
      <point x="168.5" y="546.0" type="line"/>
      <point x="320.0" y="546.0" type="line"/>
      <point x="320.0" y="626.5" type="line"/>
      <point x="168.5" y="626.5" type="line"/>
      <point x="168.5" y="705.0" type="line"/>
      <point x="54.5" y="705.0" type="line"/>
      <point x="54.5" y="626.5" type="line"/>
      <point x="-15.0" y="626.5" type="line"/>
      <point x="-15.0" y="546.0" type="line"/>
      <point x="54.5" y="546.0" type="line"/>
    </contour>
  </outline>
</glyph>
<glyph name="idotless" format="2">
  <advance width="223.0"/>
  <unicode hex="0131"/>
  <anchor x="111.0" y="0.0" name="bottom"/>
  <anchor x="143.0" y="0.0" name="ogonek"/>
  <anchor x="111.0" y="484.0" name="top"/>
  <outline>
    <contour>
      <point x="54.5" y="0.0" type="line"/>
      <point x="168.5" y="0.0" type="line"/>
      <point x="168.5" y="489.0" type="line"/>
      <point x="54.5" y="489.0" type="line"/>
    </contour>
  </outline>
</glyph>
<glyph name="kgreenlandic" format="2">
  <advance width="451.5"/>
  <unicode hex="0138"/>
  <anchor x="227.0" y="0.0" name="bottom"/>
  <anchor x="227.0" y="484.0" name="top"/>
  <outline>
    <contour>
      <point x="54.5" y="0.0" type="line"/>
      <point x="168.5" y="0.0" type="line"/>
      <point x="168.5" y="220.5" type="line"/>
      <point x="170.5" y="220.5" type="line"/>
      <point x="329.0" y="0.0" type="line"/>
      <point x="467.0" y="0.0" type="line"/>
      <point x="266.5" y="280.0" type="line"/>
      <point x="264.5" y="230.0" type="line"/>
      <point x="458.0" y="489.0" type="line"/>
      <point x="325.0" y="489.0" type="line"/>
      <point x="170.5" y="278.5" type="line"/>
      <point x="168.5" y="278.5" type="line"/>
      <point x="168.5" y="489.0" type="line"/>
      <point x="54.5" y="489.0" type="line"/>
    </contour>
  </outline>
</glyph>
<glyph name="Eng" format="2">
  <advance width="618.5"/>
  <unicode hex="014A"/>
  <anchor x="309.0" y="0.0" name="bottom"/>
  <anchor x="309.5" y="705.0" name="top"/>
  <outline>
    <contour>
      <point x="351.5" y="-193.0" type="line"/>
      <point x="387.5" y="-190.0" type="line" smooth="yes"/>
      <point x="517.5" y="-178.5"/>
      <point x="554.0" y="-127.5"/>
      <point x="554.0" y="-11.5" type="curve" smooth="yes"/>
      <point x="554.0" y="705.0" type="line"/>
      <point x="446.0" y="705.0" type="line"/>
      <point x="446.0" y="154.5" type="line"/>
      <point x="483.5" y="154.5" type="line"/>
      <point x="153.0" y="705.0" type="line"/>
      <point x="64.5" y="705.0" type="line"/>
      <point x="64.5" y="0.0" type="line"/>
      <point x="172.5" y="0.0" type="line"/>
      <point x="172.5" y="551.5" type="line"/>
      <point x="135.0" y="551.5" type="line"/>
      <point x="466.0" y="0.0" type="line"/>
      <point x="445.5" y="76.0" type="line"/>
      <point x="445.5" y="-25.5" type="line" smooth="yes"/>
      <point x="445.5" y="-82.0"/>
      <point x="422.9385" y="-98.509"/>
      <point x="382.0" y="-104.5" type="curve" smooth="yes"/>
      <point x="344.0" y="-109.5" type="line"/>
    </contour>
  </outline>
</glyph>
<glyph name="eng" format="2">
  <advance width="488.5"/>
  <unicode hex="014B"/>
  <outline>
    <contour>
      <point x="234.5" y="-193.0" type="line"/>
      <point x="270.5" y="-190.0" type="line" smooth="yes"/>
      <point x="396.5" y="-179.0"/>
      <point x="435.0" y="-130.0"/>
      <point x="436.5" y="-20.0" type="curve" smooth="yes"/>
      <point x="436.5" y="328.5" type="line" smooth="yes"/>
      <point x="436.5" y="445.0"/>
      <point x="387.0" y="499.0"/>
      <point x="301.0" y="499.0" type="curve" smooth="yes"/>
      <point x="230.5" y="499.0"/>
      <point x="177.5" y="459.0"/>
      <point x="157.0" y="398.5" type="curve"/>
      <point x="165.0" y="398.5" type="line"/>
      <point x="165.0" y="489.0" type="line"/>
      <point x="54.5" y="489.0" type="line"/>
      <point x="54.5" y="0.0" type="line"/>
      <point x="168.5" y="0.0" type="line"/>
      <point x="168.5" y="304.5" type="line" smooth="yes"/>
      <point x="168.5" y="369.5"/>
      <point x="206.5" y="408.5"/>
      <point x="258.0" y="408.5" type="curve" smooth="yes"/>
      <point x="296.5" y="408.5"/>
      <point x="322.5" y="388.0"/>
      <point x="322.5" y="318.5" type="curve" smooth="yes"/>
      <point x="322.5" y="-25.5" type="line" smooth="yes"/>
      <point x="322.5" y="-82.0"/>
      <point x="301.5" y="-99.0"/>
      <point x="264.5" y="-104.5" type="curve" smooth="yes"/>
      <point x="227.0" y="-109.5" type="line"/>
    </contour>
  </outline>
</glyph>
<glyph name="OE" format="2">
  <advance width="867.5"/>
  <unicode hex="0152"/>
  <anchor x="490.5" y="0.0" name="bottom"/>
  <anchor x="490.5" y="705.0" name="top"/>
  <outline>
    <contour>
      <point x="352.0" y="0.0" type="curve" smooth="yes"/>
      <point x="821.0" y="0.0" type="line"/>
      <point x="821.0" y="93.5" type="line"/>
      <point x="546.5" y="93.5" type="line"/>
      <point x="546.5" y="311.0" type="line"/>
      <point x="803.0" y="311.0" type="line"/>
      <point x="803.0" y="404.5" type="line"/>
      <point x="546.5" y="404.5" type="line"/>
      <point x="546.5" y="611.5" type="line"/>
      <point x="821.0" y="611.5" type="line"/>
      <point x="821.0" y="705.0" type="line"/>
      <point x="352.0" y="705.0" type="line" smooth="yes"/>
      <point x="157.0" y="705.0"/>
      <point x="47.0" y="584.0"/>
      <point x="47.0" y="352.0" type="curve" smooth="yes"/>
      <point x="47.0" y="121.0"/>
      <point x="157.0" y="0.0"/>
    </contour>
    <contour>
      <point x="357.5" y="95.5" type="line" smooth="yes"/>
      <point x="230.0" y="95.5"/>
      <point x="169.0" y="174.5"/>
      <point x="169.0" y="352.0" type="curve" smooth="yes"/>
      <point x="169.0" y="529.5"/>
      <point x="230.0" y="609.5"/>
      <point x="357.5" y="609.5" type="curve" smooth="yes"/>
      <point x="434.5" y="609.5" type="line"/>
      <point x="434.5" y="95.5" type="line"/>
    </contour>
  </outline>
</glyph>
<glyph name="oe" format="2">
  <advance width="751.0"/>
  <unicode hex="0153"/>
  <anchor x="389.5" y="0.0" name="bottom"/>
  <anchor x="389.5" y="484.0" name="top"/>
  <outline>
    <contour>
      <point x="235.5" y="-10.0" type="curve" smooth="yes"/>
      <point x="322.0" y="-10.0"/>
      <point x="375.5" y="36.0"/>
      <point x="402.5" y="121.5" type="curve"/>
      <point x="372.0" y="121.5" type="line"/>
      <point x="396.5" y="35.5"/>
      <point x="465.5" y="-10.0"/>
      <point x="557.0" y="-10.0" type="curve" smooth="yes"/>
      <point x="615.5" y="-10.0"/>
      <point x="668.5" y="9.0"/>
      <point x="715.0" y="47.0" type="curve"/>
      <point x="681.5" y="124.5" type="line"/>
      <point x="647.5" y="95.0"/>
      <point x="604.0" y="78.5"/>
      <point x="556.0" y="78.5" type="curve" smooth="yes"/>
      <point x="473.0" y="78.5"/>
      <point x="440.5" y="127.5"/>
      <point x="440.5" y="229.5" type="curve" smooth="yes"/>
      <point x="440.5" y="256.0" type="line" smooth="yes"/>
      <point x="440.5" y="370.5"/>
      <point x="476.0" y="419.0"/>
      <point x="540.0" y="419.0" type="curve" smooth="yes"/>
      <point x="597.5" y="419.0"/>
      <point x="623.5" y="374.0"/>
      <point x="623.5" y="272.0" type="curve"/>
      <point x="638.5" y="288.0" type="line"/>
      <point x="426.0" y="288.0" type="line"/>
      <point x="426.0" y="216.0" type="line"/>
      <point x="721.0" y="216.0" type="line"/>
      <point x="721.0" y="261.0" type="line" smooth="yes"/>
      <point x="721.0" y="415.0"/>
      <point x="655.5" y="499.0"/>
      <point x="544.0" y="499.0" type="curve" smooth="yes"/>
      <point x="461.5" y="499.0"/>
      <point x="401.0" y="445.5"/>
      <point x="378.0" y="370.0" type="curve"/>
      <point x="401.0" y="370.0" type="line"/>
      <point x="374.5" y="454.5"/>
      <point x="319.5" y="499.0"/>
      <point x="235.5" y="499.0" type="curve" smooth="yes"/>
      <point x="109.0" y="499.0"/>
      <point x="33.5" y="408.0"/>
      <point x="33.5" y="244.5" type="curve" smooth="yes"/>
      <point x="33.5" y="81.5"/>
      <point x="109.0" y="-10.0"/>
    </contour>
    <contour>
      <point x="241.0" y="78.0" type="curve" smooth="yes"/>
      <point x="178.5" y="78.0"/>
      <point x="148.5" y="132.5"/>
      <point x="148.5" y="244.5" type="curve" smooth="yes"/>
      <point x="148.5" y="357.0"/>
      <point x="178.0" y="411.0"/>
      <point x="241.5" y="411.0" type="curve" smooth="yes"/>
      <point x="304.0" y="411.0"/>
      <point x="334.5" y="357.0"/>
      <point x="334.5" y="244.5" type="curve" smooth="yes"/>
      <point x="334.5" y="132.5"/>
      <point x="304.5" y="78.0"/>
    </contour>
  </outline>
</glyph>
<glyph name="Bhook" format="2">
  <advance width="695.0"/>
  <unicode hex="0181"/>
  <outline>
    <contour>
      <point x="188.5" y="0.0" type="line"/>
      <point x="446.0" y="0.0" type="line" smooth="yes"/>
      <point x="572.0" y="0.0"/>
      <point x="651.0" y="73.5"/>
      <point x="651.0" y="196.5" type="curve" smooth="yes"/>
      <point x="651.0" y="293.0"/>
      <point x="607.0" y="354.5"/>
      <point x="525.0" y="369.5" type="curve"/>
      <point x="525.0" y="354.5" type="line"/>
      <point x="596.5" y="375.0"/>
      <point x="635.5" y="435.5"/>
      <point x="635.5" y="523.0" type="curve" smooth="yes"/>
      <point x="635.5" y="637.5"/>
      <point x="560.5" y="705.0"/>
      <point x="437.5" y="705.0" type="curve" smooth="yes"/>
      <point x="176.5" y="705.0" type="line" smooth="yes"/>
      <point x="54.5" y="705.0"/>
      <point x="0.0" y="651.0"/>
      <point x="0.0" y="528.5" type="curve" smooth="yes"/>
      <point x="0.0" y="474.5" type="line"/>
      <point x="95.5" y="474.5" type="line"/>
      <point x="95.5" y="524.0" type="line" smooth="yes"/>
      <point x="95.5" y="594.5"/>
      <point x="117.5" y="621.5"/>
      <point x="172.5" y="621.5" type="curve" smooth="yes"/>
      <point x="188.5" y="621.5" type="line"/>
    </contour>
    <contour>
      <point x="300.5" y="89.0" type="line"/>
      <point x="300.5" y="313.0" type="line"/>
      <point x="431.5" y="313.0" type="line" smooth="yes"/>
      <point x="503.5" y="313.0"/>
      <point x="537.5" y="276.5"/>
      <point x="537.5" y="201.0" type="curve" smooth="yes"/>
      <point x="537.5" y="128.0"/>
      <point x="501.5" y="89.0"/>
      <point x="429.5" y="89.0" type="curve" smooth="yes"/>
    </contour>
    <contour>
      <point x="300.5" y="402.0" type="line"/>
      <point x="300.5" y="616.0" type="line"/>
      <point x="416.0" y="616.0" type="line" smooth="yes"/>
      <point x="486.5" y="616.0"/>
      <point x="522.5" y="579.5"/>
      <point x="522.5" y="510.5" type="curve" smooth="yes"/>
      <point x="522.5" y="441.0"/>
      <point x="485.0" y="402.0"/>
      <point x="417.5" y="402.0" type="curve" smooth="yes"/>
    </contour>
  </outline>
</glyph>
<glyph name="Dhook" format="2">
  <advance width="757.0"/>
  <unicode hex="018A"/>
  <outline>
    <contour>
      <point x="188.5" y="0.0" type="line"/>
      <point x="414.0" y="0.0" type="line" smooth="yes"/>
      <point x="609.0" y="0.0"/>
      <point x="711.0" y="121.5"/>
      <point x="711.0" y="353.0" type="curve" smooth="yes"/>
      <point x="711.0" y="584.5"/>
      <point x="609.0" y="705.0"/>
      <point x="414.0" y="705.0" type="curve" smooth="yes"/>
      <point x="176.5" y="705.0" type="line" smooth="yes"/>
      <point x="54.5" y="705.0"/>
      <point x="0.0" y="651.0"/>
      <point x="0.0" y="528.5" type="curve" smooth="yes"/>
      <point x="0.0" y="474.5" type="line"/>
      <point x="95.5" y="474.5" type="line"/>
      <point x="95.5" y="524.0" type="line" smooth="yes"/>
      <point x="95.5" y="594.5"/>
      <point x="117.5" y="621.5"/>
      <point x="172.5" y="621.5" type="curve" smooth="yes"/>
      <point x="188.5" y="621.5" type="line"/>
    </contour>
    <contour>
      <point x="305.5" y="98.0" type="line"/>
      <point x="305.5" y="607.0" type="line"/>
      <point x="407.0" y="607.0" type="line" smooth="yes"/>
      <point x="533.5" y="607.0"/>
      <point x="589.0" y="530.5"/>
      <point x="589.0" y="353.0" type="curve" smooth="yes"/>
      <point x="589.0" y="175.5"/>
      <point x="534.5" y="98.0"/>
      <point x="407.0" y="98.0" type="curve" smooth="yes"/>
    </contour>
  </outline>
</glyph>
<glyph name="Schwa" format="2">
  <advance width="651.5"/>
  <unicode hex="018F"/>
  <anchor x="327.0" y="0.0" name="bottom"/>
  <anchor x="327.0" y="705.0" name="top"/>
  <outline>
    <contour>
      <point x="322.5" y="-10.0" type="curve" smooth="yes"/>
      <point x="500.5" y="-10.0"/>
      <point x="605.5" y="126.0"/>
      <point x="605.5" y="358.0" type="curve" smooth="yes"/>
      <point x="605.5" y="591.5"/>
      <point x="501.0" y="715.0"/>
      <point x="305.5" y="715.0" type="curve" smooth="yes"/>
      <point x="217.0" y="715.0"/>
      <point x="131.0" y="688.5"/>
      <point x="71.0" y="640.5" type="curve"/>
      <point x="110.0" y="547.5" type="line"/>
      <point x="163.0" y="590.0"/>
      <point x="223.5" y="609.5"/>
      <point x="290.5" y="609.5" type="curve" smooth="yes"/>
      <point x="425.5" y="609.5"/>
      <point x="483.5" y="528.5"/>
      <point x="483.5" y="349.5" type="curve" smooth="yes"/>
      <point x="483.5" y="178.5"/>
      <point x="427.5" y="87.0"/>
      <point x="322.5" y="87.0" type="curve" smooth="yes"/>
      <point x="222.5" y="87.0"/>
      <point x="170.5" y="167.0"/>
      <point x="167.0" y="325.5" type="curve"/>
      <point x="151.5" y="306.5" type="line"/>
      <point x="497.0" y="306.5" type="line"/>
      <point x="497.0" y="402.0" type="line"/>
      <point x="47.0" y="402.0" type="line"/>
      <point x="47.0" y="350.5" type="line" smooth="yes"/>
      <point x="47.0" y="120.0"/>
      <point x="146.5" y="-10.0"/>
    </contour>
  </outline>
</glyph>
<glyph name="florin" format="2">
  <advance width="498.0"/>
  <unicode hex="0192"/>
  <outline>
    <contour>
      <point x="27.0" y="-190.0" type="line"/>
      <point x="65.0" y="-190.0" type="line" smooth="yes"/>
      <point x="182.5" y="-190.0"/>
      <point x="240.0" y="-132.5"/>
      <point x="257.5" y="-20.0" type="curve" smooth="yes"/>
      <point x="330.5" y="419.0" type="line"/>
      <point x="312.5" y="404.0" type="line"/>
      <point x="435.0" y="404.0" type="line"/>
      <point x="435.0" y="489.0" type="line"/>
      <point x="327.0" y="489.0" type="line"/>
      <point x="339.0" y="473.5" type="line"/>
      <point x="350.5" y="541.5" type="line" smooth="yes"/>
      <point x="361.0" y="607.0"/>
      <point x="388.0" y="624.5"/>
      <point x="444.0" y="624.5" type="curve" smooth="yes"/>
      <point x="468.5" y="624.5" type="line"/>
      <point x="468.5" y="715.0" type="line"/>
      <point x="431.0" y="715.0" type="line" smooth="yes"/>
      <point x="307.0" y="715.0"/>
      <point x="258.5" y="650.0"/>
      <point x="238.5" y="545.0" type="curve" smooth="yes"/>
      <point x="226.0" y="473.0" type="line"/>
      <point x="252.0" y="489.0" type="line"/>
      <point x="129.5" y="489.0" type="line"/>
      <point x="129.5" y="404.0" type="line"/>
      <point x="238.0" y="404.0" type="line"/>
      <point x="218.0" y="419.0" type="line"/>
      <point x="146.0" y="-16.5" type="line" smooth="yes"/>
      <point x="135.5" y="-83.0"/>
      <point x="107.5" y="-99.5"/>
      <point x="52.0" y="-99.5" type="curve" smooth="yes"/>
      <point x="27.0" y="-99.5" type="line"/>
    </contour>
  </outline>
</glyph>
<glyph name="Yhook" format="2">
  <advance width="482.0"/>
  <unicode hex="01B3"/>
  <outline>
    <contour>
      <point x="200.0" y="0.0" type="line"/>
      <point x="317.0" y="0.0" type="line"/>
      <point x="317.5" y="363.5" type="line"/>
      <point x="293.0" y="292.0" type="line"/>
      <point x="459.5" y="581.5" type="line" smooth="yes"/>
      <point x="477.5" y="612.5"/>
      <point x="494.5" y="629.0"/>
      <point x="527.5" y="629.0" type="curve" smooth="yes"/>
      <point x="540.5" y="629.0"/>
      <point x="553.0" y="626.5"/>
      <point x="563.0" y="622.5" type="curve"/>
      <point x="563.0" y="703.5" type="line"/>
      <point x="548.0" y="710.0"/>
      <point x="523.0" y="715.0"/>
      <point x="498.0" y="715.0" type="curve" smooth="yes"/>
      <point x="437.0" y="715.0"/>
      <point x="393.0" y="683.5"/>
      <point x="359.0" y="617.5" type="curve" smooth="yes"/>
      <point x="249.0" y="412.5" type="line"/>
      <point x="272.5" y="412.5" type="line"/>
      <point x="115.0" y="705.0" type="line"/>
      <point x="-20.0" y="705.0" type="line"/>
      <point x="225.5" y="292.0" type="line"/>
      <point x="200.5" y="363.5" type="line"/>
    </contour>
  </outline>
</glyph>
<glyph name="yhook" format="2">
  <advance width="499.5"/>
  <unicode hex="01B4"/>
  <outline>
    <contour>
      <point x="286.5" y="340.0" type="curve" smooth="yes"/>
      <point x="210.0" y="101.5" type="line"/>
      <point x="235.5" y="101.5" type="line"/>
      <point x="118.0" y="489.0" type="line"/>
      <point x="-3.0" y="489.0" type="line"/>
      <point x="172.5" y="-7.5" type="line"/>
      <point x="175.5" y="39.5" type="line"/>
      <point x="88.5" y="-180.0" type="line"/>
      <point x="206.0" y="-180.0" type="line"/>
      <point x="387.0" y="333.5" type="line" smooth="yes"/>
      <point x="404.5" y="384.0"/>
      <point x="420.5" y="409.0"/>
      <point x="454.0" y="409.0" type="curve" smooth="yes"/>
      <point x="466.0" y="409.0"/>
      <point x="476.5" y="407.0"/>
      <point x="485.5" y="404.0" type="curve"/>
      <point x="497.5" y="490.5" type="line"/>
      <point x="482.5" y="496.5"/>
      <point x="461.0" y="499.0"/>
      <point x="440.0" y="499.0" type="curve" smooth="yes"/>
      <point x="354.0" y="499.0"/>
      <point x="318.0" y="450.0"/>
    </contour>
  </outline>
</glyph>
<glyph name="gstroke" format="2">
  <advance width="503.5"/>
  <unicode hex="01E5"/>
  <outline>
    <contour>
      <point x="239.0" y="-190.0" type="curve" smooth="yes"/>
      <point x="351.0" y="-190.0"/>
      <point x="418.5" y="-143.0"/>
      <point x="441.0" y="-42.5" type="curve"/>
      <point x="421.5" y="-51.5" type="line"/>
      <point x="495.5" y="-51.5" type="line"/>
      <point x="495.5" y="17.0" type="line"/>
      <point x="432.5" y="17.0" type="line"/>
      <point x="445.5" y="-18.5" type="line"/>
      <point x="447.0" y="-6.5"/>
      <point x="449.0" y="10.5"/>
      <point x="449.0" y="34.0" type="curve" smooth="yes"/>
      <point x="449.0" y="489.0" type="line"/>
      <point x="337.0" y="489.0" type="line"/>
      <point x="337.0" y="386.0" type="line"/>
      <point x="344.0" y="382.0" type="line"/>
      <point x="331.0" y="455.0"/>
      <point x="280.0" y="499.0"/>
      <point x="208.5" y="499.0" type="curve" smooth="yes"/>
      <point x="97.0" y="499.0"/>
      <point x="33.5" y="408.5"/>
      <point x="33.5" y="271.5" type="curve" smooth="yes"/>
      <point x="33.5" y="134.5"/>
      <point x="97.0" y="43.5"/>
      <point x="208.0" y="43.5" type="curve" smooth="yes"/>
      <point x="279.5" y="43.5"/>
      <point x="331.0" y="88.0"/>
      <point x="344.0" y="161.5" type="curve"/>
      <point x="337.5" y="161.5" type="line"/>
      <point x="337.5" y="32.0" type="line" smooth="yes"/>
      <point x="337.5" y="20.0"/>
      <point x="337.5" y="13.0"/>
      <point x="336.0" y="3.5" type="curve"/>
      <point x="345.0" y="17.0" type="line"/>
      <point x="237.0" y="17.0" type="line"/>
      <point x="237.0" y="-51.5" type="line"/>
      <point x="321.5" y="-51.5" type="line"/>
      <point x="322.5" y="-45.0" type="line"/>
      <point x="307.0" y="-78.0"/>
      <point x="280.5" y="-93.5"/>
      <point x="234.0" y="-93.5" type="curve" smooth="yes"/>
      <point x="185.0" y="-93.5"/>
      <point x="134.5" y="-80.0"/>
      <point x="82.5" y="-50.5" type="curve"/>
      <point x="50.5" y="-133.0" type="line"/>
      <point x="103.5" y="-170.0"/>
      <point x="168.5" y="-190.0"/>
    </contour>
    <contour>
      <point x="243.0" y="133.5" type="curve" smooth="yes"/>
      <point x="182.0" y="133.5"/>
      <point x="148.5" y="184.4615"/>
      <point x="148.5" y="272.5" type="curve" smooth="yes"/>
      <point x="148.5" y="361.0385"/>
      <point x="182.0" y="411.0"/>
      <point x="243.0" y="411.0" type="curve" smooth="yes"/>
      <point x="303.0" y="411.0"/>
      <point x="336.5" y="360.0935"/>
      <point x="336.5" y="272.5" type="curve" smooth="yes"/>
      <point x="336.5" y="184.4065"/>
      <point x="302.5" y="133.5"/>
    </contour>
  </outline>
</glyph>
<glyph name="jdotless" format="2">
  <advance width="226.5"/>
  <unicode hex="0237"/>
  <anchor x="114.5" y="0.0" name="bottom"/>
  <anchor x="114.5" y="484.0" name="top"/>
  <outline>
    <contour>
      <point x="-30.0" y="-193.0" type="line"/>
      <point x="5.0" y="-190.0" type="line" smooth="yes"/>
      <point x="136.0" y="-178.5"/>
      <point x="172.0" y="-127.5"/>
      <point x="172.0" y="-11.5" type="curve" smooth="yes"/>
      <point x="172.0" y="489.0" type="line"/>
      <point x="58.0" y="489.0" type="line"/>
      <point x="58.0" y="-25.5" type="line" smooth="yes"/>
      <point x="58.0" y="-82.0"/>
      <point x="37.0" y="-99.0"/>
      <point x="0.0" y="-104.5" type="curve" smooth="yes"/>
      <point x="-38.5" y="-109.5" type="line"/>
    </contour>
  </outline>
</glyph>
<glyph name="bhook" format="2">
  <advance width="501.0"/>
  <unicode hex="0253"/>
  <outline>
    <contour>
      <point x="294.5" y="-10.0" type="curve" smooth="yes"/>
      <point x="402.5" y="-10.0"/>
      <point x="467.5" y="84.5"/>
      <point x="467.5" y="245.0" type="curve" smooth="yes"/>
      <point x="467.5" y="405.5"/>
      <point x="402.5" y="499.0"/>
      <point x="294.0" y="499.0" type="curve" smooth="yes"/>
      <point x="227.0" y="499.0"/>
      <point x="174.0" y="459.0"/>
      <point x="156.0" y="387.5" type="curve"/>
      <point x="168.5" y="387.5" type="line"/>
      <point x="168.5" y="549.0" type="line" smooth="yes"/>
      <point x="168.5" y="597.5"/>
      <point x="189.5" y="624.0"/>
      <point x="233.0" y="624.0" type="curve" smooth="yes"/>
      <point x="243.5" y="624.0"/>
      <point x="255.5" y="622.0"/>
      <point x="264.0" y="620.0" type="curve"/>
      <point x="276.0" y="706.0" type="line"/>
      <point x="263.0" y="710.5"/>
      <point x="242.0" y="715.0"/>
      <point x="217.0" y="715.0" type="curve" smooth="yes"/>
      <point x="112.0" y="715.0"/>
      <point x="54.5" y="659.0"/>
      <point x="54.5" y="550.0" type="curve" smooth="yes"/>
      <point x="54.5" y="0.0" type="line"/>
      <point x="166.5" y="0.0" type="line"/>
      <point x="166.5" y="102.5" type="line"/>
      <point x="156.0" y="102.5" type="line"/>
      <point x="174.0" y="30.5"/>
      <point x="226.5" y="-10.0"/>
    </contour>
    <contour>
      <point x="259.5" y="78.0" type="curve" smooth="yes"/>
      <point x="198.0" y="78.0"/>
      <point x="166.5" y="129.5"/>
      <point x="166.5" y="245.0" type="curve" smooth="yes"/>
      <point x="166.5" y="360.5"/>
      <point x="198.0" y="411.0"/>
      <point x="259.5" y="411.0" type="curve" smooth="yes"/>
      <point x="320.0" y="411.0"/>
      <point x="352.5" y="360.5"/>
      <point x="352.5" y="245.0" type="curve" smooth="yes"/>
      <point x="352.5" y="129.5"/>
      <point x="320.0" y="78.0"/>
    </contour>
  </outline>
</glyph>
<glyph name="dhook" format="2">
  <advance width="501.0"/>
  <unicode hex="0257"/>
  <outline>
    <contour>
      <point x="206.5" y="-10.0" type="curve" smooth="yes"/>
      <point x="278.0" y="-10.0"/>
      <point x="326.5" y="30.5"/>
      <point x="342.5" y="102.5" type="curve"/>
      <point x="334.5" y="102.5" type="line"/>
      <point x="334.5" y="0.0" type="line"/>
      <point x="446.5" y="0.0" type="line"/>
      <point x="446.5" y="549.0" type="line" smooth="yes"/>
      <point x="446.5" y="597.5"/>
      <point x="468.0" y="624.0"/>
      <point x="511.0" y="624.0" type="curve" smooth="yes"/>
      <point x="521.5" y="624.0"/>
      <point x="533.5" y="622.0"/>
      <point x="542.0" y="620.0" type="curve"/>
      <point x="554.0" y="706.0" type="line"/>
      <point x="541.0" y="710.0"/>
      <point x="520.0" y="715.0"/>
      <point x="495.0" y="715.0" type="curve" smooth="yes"/>
      <point x="390.0" y="715.0"/>
      <point x="332.5" y="659.0"/>
      <point x="332.5" y="550.0" type="curve" smooth="yes"/>
      <point x="332.5" y="387.5" type="line"/>
      <point x="342.5" y="387.5" type="line"/>
      <point x="326.5" y="459.0"/>
      <point x="278.5" y="499.0"/>
      <point x="207.0" y="499.0" type="curve" smooth="yes"/>
      <point x="98.5" y="499.0"/>
      <point x="33.5" y="405.5"/>
      <point x="33.5" y="245.0" type="curve" smooth="yes"/>
      <point x="33.5" y="84.5"/>
      <point x="98.5" y="-10.0"/>
    </contour>
    <contour>
      <point x="241.5" y="78.0" type="curve" smooth="yes"/>
      <point x="179.0" y="78.0"/>
      <point x="148.5" y="133.5"/>
      <point x="148.5" y="245.0" type="curve" smooth="yes"/>
      <point x="148.5" y="356.5"/>
      <point x="179.0" y="411.0"/>
      <point x="241.5" y="411.0" type="curve" smooth="yes"/>
      <point x="303.0" y="411.0"/>
      <point x="334.5" y="356.0"/>
      <point x="334.5" y="245.0" type="curve" smooth="yes"/>
      <point x="334.5" y="134.0"/>
      <point x="303.0" y="78.0"/>
    </contour>
  </outline>
</glyph>
<glyph name="schwa" format="2">
  <advance width="453.0"/>
  <unicode hex="0259"/>
  <outline>
    <contour>
      <point x="214.0" y="-10.0" type="curve" smooth="yes"/>
      <point x="340.0" y="-10.0"/>
      <point x="419.5" y="87.0"/>
      <point x="419.5" y="246.0" type="curve" smooth="yes"/>
      <point x="419.5" y="414.0"/>
      <point x="335.5" y="499.0"/>
      <point x="197.0" y="499.0" type="curve" smooth="yes"/>
      <point x="137.5" y="499.0"/>
      <point x="82.5" y="480.5"/>
      <point x="36.0" y="443.0" type="curve"/>
      <point x="69.5" y="365.0" type="line"/>
      <point x="106.0" y="396.5"/>
      <point x="150.5" y="410.5"/>
      <point x="193.0" y="410.5" type="curve" smooth="yes"/>
      <point x="273.0" y="410.5"/>
      <point x="311.0" y="367.5"/>
      <point x="311.0" y="262.0" type="curve" smooth="yes"/>
      <point x="311.0" y="235.0" type="line" smooth="yes"/>
      <point x="311.0" y="122.5"/>
      <point x="276.5" y="70.0"/>
      <point x="215.5" y="70.0" type="curve" smooth="yes"/>
      <point x="156.0" y="70.0"/>
      <point x="127.5" y="107.5"/>
      <point x="127.5" y="218.0" type="curve"/>
      <point x="113.0" y="201.0" type="line"/>
      <point x="325.5" y="201.0" type="line"/>
      <point x="325.5" y="273.0" type="line"/>
      <point x="30.0" y="273.0" type="line"/>
      <point x="30.0" y="228.5" type="line" smooth="yes"/>
      <point x="30.0" y="74.5"/>
      <point x="94.0" y="-10.0"/>
    </contour>
  </outline>
</glyph>
<glyph name="commaturnedmod" format="2">
  <advance width="500.0"/>
  <unicode hex="02BB"/>
  <anchor x="250.0" y="484.0" name="_top"/>
  <anchor x="250.0" y="685.0" name="top"/>
  <outline>
    <contour>
      <point x="194.5" y="567.5" type="line"/>
      <point x="306.0" y="567.5" type="line"/>
      <point x="306.0" y="665.0" type="line"/>
      <point x="232.5" y="665.0" type="line"/>
      <point x="254.0" y="653.0" type="line"/>
      <point x="254.0" y="686.5"/>
      <point x="262.0" y="711.0"/>
      <point x="284.0" y="736.0" type="curve"/>
      <point x="242.5" y="766.5" type="line"/>
      <point x="207.0" y="730.5"/>
      <point x="194.5" y="688.0"/>
      <point x="194.5" y="635.5" type="curve" smooth="yes"/>
    </contour>
  </outline>
</glyph>
<glyph name="apostrophemod" format="2">
  <advance width="350.0"/>
  <unicode hex="02BC"/>
  <outline>
    <contour>
      <point x="183.0" y="569.0" type="line"/>
      <point x="218.5" y="605.0"/>
      <point x="231.0" y="646.5"/>
      <point x="231.0" y="700.0" type="curve" smooth="yes"/>
      <point x="231.0" y="767.0" type="line"/>
      <point x="119.5" y="767.0" type="line"/>
      <point x="119.5" y="669.5" type="line"/>
      <point x="193.0" y="669.5" type="line"/>
      <point x="171.5" y="681.5" type="line"/>
      <point x="171.5" y="648.0"/>
      <point x="163.5" y="623.5"/>
      <point x="141.5" y="598.5" type="curve"/>
    </contour>
  </outline>
</glyph>
<glyph name="ringhalfright" format="2">
  <advance width="500.0"/>
  <unicode hex="02BE"/>
  <anchor x="250.0" y="484.0" name="_top"/>
  <anchor x="250.0" y="685.0" name="top"/>
  <outline>
    <contour>
      <point x="250.0" y="555.5" type="line"/>
      <point x="306.0" y="555.5"/>
      <point x="350.5" y="601.0"/>
      <point x="350.5" y="656.0" type="curve" smooth="yes"/>
      <point x="350.5" y="711.5"/>
      <point x="305.5" y="757.0"/>
      <point x="250.0" y="757.0" type="curve"/>
      <point x="250.0" y="704.5" type="line"/>
      <point x="276.5" y="704.5"/>
      <point x="294.0" y="683.0"/>
      <point x="294.0" y="656.0" type="curve" smooth="yes"/>
      <point x="294.0" y="629.5"/>
      <point x="276.5" y="608.5"/>
      <point x="250.0" y="608.5" type="curve"/>
    </contour>
  </outline>
</glyph>
<glyph name="ringhalfleft" format="2">
  <advance width="500.0"/>
  <unicode hex="02BF"/>
  <anchor x="250.0" y="484.0" name="_top"/>
  <anchor x="250.0" y="685.0" name="top"/>
  <outline>
    <contour>
      <point x="250.0" y="555.5" type="curve"/>
      <point x="250.0" y="608.5" type="line"/>
      <point x="224.5" y="608.5"/>
      <point x="206.0" y="629.5"/>
      <point x="206.0" y="656.0" type="curve" smooth="yes"/>
      <point x="206.0" y="683.0"/>
      <point x="224.5" y="704.5"/>
      <point x="250.0" y="704.5" type="curve"/>
      <point x="250.0" y="757.0" type="line"/>
      <point x="195.5" y="757.0"/>
      <point x="150.5" y="711.5"/>
      <point x="150.5" y="656.0" type="curve" smooth="yes"/>
      <point x="150.5" y="601.0"/>
      <point x="195.0" y="555.5"/>
    </contour>
  </outline>
</glyph>
<glyph name="secondtonechinese" format="2">
  <advance width="500.0"/>
  <unicode hex="02CA"/>
  <anchor x="250.0" y="484.0" name="_top"/>
  <anchor x="250.0" y="685.0" name="top"/>
  <outline>
    <contour>
      <point x="211.5" y="554.0" type="line"/>
      <point x="286.5" y="554.0" type="line"/>
      <point x="405.0" y="741.0" type="line"/>
      <point x="294.5" y="741.0" type="line"/>
    </contour>
  </outline>
</glyph>
<glyph name="gravecomb" format="2">
  <unicode hex="0300"/>
  <anchor x="0.0" y="484.0" name="_top"/>
  <anchor x="0.0" y="685.0" name="top"/>
  <outline>
    <contour>
      <point x="-36.5" y="554.0" type="line"/>
      <point x="38.5" y="554.0" type="line"/>
      <point x="-43.5" y="741.0" type="line"/>
      <point x="-154.0" y="741.0" type="line"/>
    </contour>
  </outline>
</glyph>
<glyph name="acutecomb" format="2">
  <unicode hex="0301"/>
  <anchor x="0.0" y="484.0" name="_top"/>
  <anchor x="0.0" y="685.0" name="top"/>
  <outline>
    <contour>
      <point x="-38.5" y="554.0" type="line"/>
      <point x="36.5" y="554.0" type="line"/>
      <point x="155.0" y="741.0" type="line"/>
      <point x="44.5" y="741.0" type="line"/>
    </contour>
  </outline>
</glyph>
<glyph name="tildecomb" format="2">
  <unicode hex="0303"/>
  <anchor x="0.0" y="484.0" name="_top"/>
  <anchor x="0.0" y="685.0" name="top"/>
  <outline>
    <contour>
      <point x="-108.5" y="583.0" type="line"/>
      <point x="-105.5" y="625.5"/>
      <point x="-91.0" y="645.0"/>
      <point x="-67.5" y="645.0" type="curve" smooth="yes"/>
      <point x="-49.5" y="645.0"/>
      <point x="-33.0" y="633.0"/>
      <point x="-14.0" y="620.0" type="curve" smooth="yes"/>
      <point x="12.0" y="601.5"/>
      <point x="35.0" y="587.0"/>
      <point x="67.0" y="587.0" type="curve" smooth="yes"/>
      <point x="129.0" y="587.0"/>
      <point x="162.5" y="641.5"/>
      <point x="161.0" y="719.0" type="curve"/>
      <point x="108.0" y="723.0" type="line"/>
      <point x="107.5" y="682.0"/>
      <point x="92.5" y="661.0"/>
      <point x="68.5" y="661.0" type="curve" smooth="yes"/>
      <point x="51.5" y="661.0"/>
      <point x="34.5" y="672.5"/>
      <point x="14.5" y="685.5" type="curve" smooth="yes"/>
      <point x="-8.5" y="700.5"/>
      <point x="-32.5" y="719.0"/>
      <point x="-66.5" y="719.0" type="curve" smooth="yes"/>
      <point x="-127.5" y="719.0"/>
      <point x="-161.5" y="663.5"/>
      <point x="-161.0" y="587.0" type="curve"/>
    </contour>
  </outline>
</glyph>
<glyph name="brevecomb" format="2">
  <unicode hex="0306"/>
  <anchor x="0.0" y="484.0" name="_top"/>
  <anchor x="0.0" y="685.0" name="top"/>
  <outline>
    <contour>
      <point x="0.0" y="550.5" type="curve" smooth="yes"/>
      <point x="89.5" y="550.5"/>
      <point x="136.0" y="610.5"/>
      <point x="139.0" y="729.5" type="curve"/>
      <point x="76.0" y="735.5" type="line"/>
      <point x="72.0" y="653.5"/>
      <point x="49.0" y="619.0"/>
      <point x="0.0" y="619.0" type="curve" smooth="yes"/>
      <point x="-49.0" y="619.0"/>
      <point x="-72.0" y="653.5"/>
      <point x="-76.0" y="735.5" type="curve"/>
      <point x="-139.0" y="729.5" type="line"/>
      <point x="-135.0" y="610.5"/>
      <point x="-88.5" y="550.5"/>
    </contour>
  </outline>
</glyph>
<glyph name="dieresiscomb" format="2">
  <unicode hex="0308"/>
  <anchor x="0.0" y="484.0" name="_top"/>
  <anchor x="0.0" y="685.0" name="top"/>
  <outline>
    <contour>
      <point x="26.0" y="603.5" type="line"/>
      <point x="129.5" y="603.5" type="line"/>
      <point x="129.5" y="706.5" type="line"/>
      <point x="26.0" y="706.5" type="line"/>
    </contour>
    <contour>
      <point x="-129.5" y="603.5" type="line"/>
      <point x="-26.0" y="603.5" type="line"/>
      <point x="-26.0" y="706.5" type="line"/>
      <point x="-129.5" y="706.5" type="line"/>
    </contour>
  </outline>
</glyph>
<glyph name="hookabovecomb" format="2">
  <unicode hex="0309"/>
  <anchor x="0.0" y="484.0" name="_top"/>
  <anchor x="0.0" y="685.0" name="top"/>
  <outline>
    <contour>
      <point x="-34.0" y="554.0" type="line"/>
      <point x="34.0" y="554.0" type="line"/>
      <point x="34.0" y="570.0" type="line" smooth="yes"/>
      <point x="34.0" y="619.5"/>
      <point x="95.0" y="628.0"/>
      <point x="95.0" y="692.0" type="curve" smooth="yes"/>
      <point x="95.0" y="739.5"/>
      <point x="62.0" y="765.0"/>
      <point x="1.5" y="765.0" type="curve" smooth="yes"/>
      <point x="-32.0" y="765.0"/>
      <point x="-62.5" y="757.0"/>
      <point x="-85.5" y="743.5" type="curve"/>
      <point x="-69.5" y="693.5" type="line"/>
      <point x="-53.0" y="703.0"/>
      <point x="-37.0" y="706.5"/>
      <point x="-22.5" y="706.5" type="curve" smooth="yes"/>
      <point x="-0.5" y="706.5"/>
      <point x="10.0" y="697.5"/>
      <point x="10.0" y="679.0" type="curve" smooth="yes"/>
      <point x="10.0" y="641.0"/>
      <point x="-34.0" y="628.0"/>
      <point x="-34.0" y="575.0" type="curve" smooth="yes"/>
    </contour>
  </outline>
</glyph>
<glyph name="ringcomb" format="2">
  <unicode hex="030A"/>
  <anchor x="0.0" y="484.0" name="_top"/>
  <anchor x="0.0" y="685.0" name="top"/>
  <outline>
    <contour>
      <point x="0.0" y="553.0" type="curve" smooth="yes"/>
      <point x="64.5" y="553.0"/>
      <point x="116.5" y="604.5"/>
      <point x="116.5" y="670.0" type="curve" smooth="yes"/>
      <point x="116.5" y="735.5"/>
      <point x="64.5" y="786.0"/>
      <point x="0.0" y="786.0" type="curve" smooth="yes"/>
      <point x="-65.0" y="786.0"/>
      <point x="-116.0" y="736.0"/>
      <point x="-116.0" y="670.0" type="curve" smooth="yes"/>
      <point x="-116.0" y="604.5"/>
      <point x="-64.5" y="553.0"/>
    </contour>
    <contour>
      <point x="0.0" y="600.0" type="curve" smooth="yes"/>
      <point x="-37.0" y="600.0"/>
      <point x="-64.0" y="629.0"/>
      <point x="-64.0" y="670.0" type="curve" smooth="yes"/>
      <point x="-64.0" y="710.0"/>
      <point x="-37.0" y="739.5"/>
      <point x="0.0" y="739.5" type="curve" smooth="yes"/>
      <point x="38.0" y="739.5"/>
      <point x="64.5" y="710.0"/>
      <point x="64.5" y="670.0" type="curve" smooth="yes"/>
      <point x="64.5" y="629.0"/>
      <point x="38.0" y="600.0"/>
    </contour>
  </outline>
</glyph>
<glyph name="hungarumlautcomb" format="2">
  <unicode hex="030B"/>
  <anchor x="0.0" y="484.0" name="_top"/>
  <anchor x="0.0" y="685.0" name="top"/>
  <outline>
    <contour>
      <point x="32.5" y="554.0" type="line"/>
      <point x="91.5" y="554.0" type="line"/>
      <point x="164.5" y="741.0" type="line"/>
      <point x="70.5" y="741.0" type="line"/>
    </contour>
    <contour>
      <point x="-94.5" y="554.0" type="line"/>
      <point x="-35.5" y="554.0" type="line"/>
      <point x="38.5" y="741.0" type="line"/>
      <point x="-55.5" y="741.0" type="line"/>
    </contour>
  </outline>
</glyph>
<glyph name="caroncomb" format="2">
  <unicode hex="030C"/>
  <anchor x="0.0" y="484.0" name="_top"/>
  <anchor x="0.0" y="685.0" name="top"/>
  <outline>
    <contour>
      <point x="-49.0" y="554.0" type="line"/>
      <point x="49.0" y="554.0" type="line"/>
      <point x="137.5" y="741.0" type="line"/>
      <point x="65.5" y="741.0" type="line"/>
      <point x="0.0" y="618.5" type="line"/>
      <point x="-65.5" y="741.0" type="line"/>
      <point x="-137.5" y="741.0" type="line"/>
    </contour>
  </outline>
</glyph>
<glyph name="dblgravecomb" format="2">
  <unicode hex="030F"/>
  <anchor x="0.0" y="484.0" name="_top"/>
  <anchor x="0.0" y="685.0" name="top"/>
  <outline>
    <contour>
      <point x="36.0" y="554.0" type="line"/>
      <point x="95.0" y="554.0" type="line"/>
      <point x="57.0" y="741.0" type="line"/>
      <point x="-37.0" y="741.0" type="line"/>
    </contour>
    <contour>
      <point x="-90.0" y="554.0" type="line"/>
      <point x="-31.0" y="554.0" type="line"/>
      <point x="-70.0" y="741.0" type="line"/>
      <point x="-164.0" y="741.0" type="line"/>
    </contour>
  </outline>
</glyph>
<glyph name="breveinvertedcomb" format="2">
  <unicode hex="0311"/>
  <anchor x="0.0" y="484.0" name="_top"/>
  <anchor x="0.0" y="685.0" name="top"/>
  <outline>
    <contour>
      <point x="-76.0" y="550.5" type="line"/>
      <point x="-72.0" y="631.5"/>
      <point x="-49.0" y="667.0"/>
      <point x="0.0" y="667.0" type="curve" smooth="yes"/>
      <point x="49.0" y="667.0"/>
      <point x="72.0" y="631.5"/>
      <point x="76.0" y="550.5" type="curve"/>
      <point x="139.0" y="555.5" type="line"/>
      <point x="136.0" y="674.5"/>
      <point x="89.5" y="735.5"/>
      <point x="0.0" y="735.5" type="curve" smooth="yes"/>
      <point x="-88.5" y="735.5"/>
      <point x="-135.0" y="674.5"/>
      <point x="-139.0" y="555.5" type="curve"/>
    </contour>
  </outline>
</glyph>
<glyph name="commaturnedabovecomb" format="2">
  <unicode hex="0312"/>
  <anchor x="0.0" y="484.0" name="_top"/>
  <anchor x="0.0" y="685.0" name="top"/>
  <outline>
    <contour>
      <point x="-57.0" y="564.5" type="line"/>
      <point x="57.0" y="564.5" type="line"/>
      <point x="57.0" y="662.0" type="line"/>
      <point x="-22.5" y="662.0" type="line"/>
      <point x="1.0" y="647.5" type="line"/>
      <point x="1.0" y="679.5"/>
      <point x="8.5" y="705.5"/>
      <point x="32.0" y="735.0" type="curve"/>
      <point x="-9.5" y="765.5" type="line"/>
      <point x="-44.0" y="729.5"/>
      <point x="-57.0" y="683.5"/>
      <point x="-57.0" y="630.5" type="curve" smooth="yes"/>
    </contour>
  </outline>
</glyph>
<glyph name="horncomb" format="2">
  <unicode hex="031B"/>
  <anchor x="0.5" y="484.0" name="_topright"/>
  <outline>
    <contour>
      <point x="64.0" y="430.5" type="line"/>
      <point x="132.5" y="439.5"/>
      <point x="170.5" y="493.5"/>
      <point x="170.5" y="581.5" type="curve" smooth="yes"/>
      <point x="170.5" y="616.0" type="line"/>
      <point x="76.0" y="616.0" type="line"/>
      <point x="76.0" y="596.5" type="line" smooth="yes"/>
      <point x="76.0" y="518.0"/>
      <point x="56.5" y="490.5"/>
      <point x="0.5" y="489.0" type="curve"/>
      <point x="0.5" y="472.0" type="line"/>
    </contour>
  </outline>
</glyph>
<glyph name="dieresisbelowcomb" format="2">
  <unicode hex="0324"/>
  <anchor x="0.0" y="0.0" name="_bottom"/>
  <anchor x="0.0" y="-170.0" name="bottom"/>
  <outline>
    <contour>
      <point x="26.0" y="-188.0" type="line"/>
      <point x="129.5" y="-188.0" type="line"/>
      <point x="129.5" y="-85.0" type="line"/>
      <point x="26.0" y="-85.0" type="line"/>
    </contour>
    <contour>
      <point x="-129.5" y="-188.0" type="line"/>
      <point x="-26.0" y="-188.0" type="line"/>
      <point x="-26.0" y="-85.0" type="line"/>
      <point x="-129.5" y="-85.0" type="line"/>
    </contour>
  </outline>
</glyph>
<glyph name="commaaccentcomb" format="2">
  <unicode hex="0326"/>
  <anchor x="0.0" y="0.0" name="_bottom"/>
  <anchor x="0.0" y="-170.0" name="bottom"/>
  <outline>
    <contour>
      <point x="7.5" y="-276.5" type="line"/>
      <point x="43.0" y="-240.5"/>
      <point x="55.0" y="-197.0"/>
      <point x="55.0" y="-143.0" type="curve" smooth="yes"/>
      <point x="55.0" y="-75.5" type="line"/>
      <point x="-56.0" y="-75.5" type="line"/>
      <point x="-56.0" y="-172.5" type="line"/>
      <point x="17.0" y="-172.5" type="line"/>
      <point x="-4.5" y="-161.0" type="line"/>
      <point x="-4.5" y="-196.0"/>
      <point x="-12.5" y="-221.0"/>
      <point x="-34.0" y="-247.0" type="curve"/>
    </contour>
  </outline>
</glyph>
<glyph name="cedillacomb" format="2">
  <unicode hex="0327"/>
  <anchor x="0.0" y="0.0" name="_bottom"/>
  <outline>
    <contour>
      <point x="3.5" y="-195.0" type="curve" smooth="yes"/>
      <point x="67.5" y="-195.0"/>
      <point x="106.0" y="-161.0"/>
      <point x="106.0" y="-110.5" type="curve" smooth="yes"/>
      <point x="106.0" y="-66.5"/>
      <point x="77.5" y="-39.0"/>
      <point x="32.0" y="-39.0" type="curve" smooth="yes"/>
      <point x="17.0" y="-39.0"/>
      <point x="2.0" y="-42.0"/>
      <point x="-9.0" y="-47.5" type="curve"/>
      <point x="19.0" y="-56.0" type="line"/>
      <point x="31.5" y="20.0" type="line"/>
      <point x="-27.5" y="20.0" type="line"/>
      <point x="-40.5" y="-71.0" type="line"/>
      <point x="-23.0" y="-87.5" type="line"/>
      <point x="-12.5" y="-82.5"/>
      <point x="-2.5" y="-81.0"/>
      <point x="8.0" y="-81.0" type="curve" smooth="yes"/>
      <point x="29.5" y="-81.0"/>
      <point x="39.0" y="-90.0"/>
      <point x="39.0" y="-108.0" type="curve" smooth="yes"/>
      <point x="39.0" y="-128.5"/>
      <point x="25.0" y="-140.0"/>
      <point x="-5.5" y="-140.0" type="curve" smooth="yes"/>
      <point x="-26.5" y="-140.0"/>
      <point x="-46.0" y="-134.0"/>
      <point x="-65.5" y="-123.5" type="curve"/>
      <point x="-81.5" y="-175.0" type="line"/>
      <point x="-60.5" y="-188.5"/>
      <point x="-27.0" y="-195.0"/>
    </contour>
  </outline>
</glyph>
<glyph name="ogonekcomb" format="2">
  <unicode hex="0328"/>
  <anchor x="0.0" y="0.0" name="_ogonek"/>
  <outline>
    <contour>
      <point x="-16.5" y="-195.0" type="curve" smooth="yes"/>
      <point x="9.5" y="-195.0"/>
      <point x="32.0" y="-190.0"/>
      <point x="54.5" y="-179.5" type="curve"/>
      <point x="42.0" y="-122.5" type="line"/>
      <point x="26.0" y="-129.0"/>
      <point x="12.0" y="-132.5"/>
      <point x="0.5" y="-132.5" type="curve" smooth="yes"/>
      <point x="-30.5" y="-132.5"/>
      <point x="-46.5" y="-113.5"/>
      <point x="-46.5" y="-81.5" type="curve" smooth="yes"/>
      <point x="-46.5" y="-48.5"/>
      <point x="-28.5" y="-17.0"/>
      <point x="0.0" y="0.0" type="curve"/>
      <point x="-31.5" y="36.5" type="line"/>
      <point x="-86.0" y="3.0"/>
      <point x="-118.0" y="-44.0"/>
      <point x="-118.0" y="-97.5" type="curve" smooth="yes"/>
      <point x="-118.0" y="-160.0"/>
      <point x="-80.5" y="-195.0"/>
    </contour>
  </outline>
</glyph>
<glyph name="brevebelowcomb" format="2">
  <unicode hex="032E"/>
  <anchor x="0.0" y="0.0" name="_bottom"/>
  <anchor x="0.0" y="-170.0" name="bottom"/>
  <outline>
    <contour>
      <point x="0.0" y="-207.0" type="curve" smooth="yes"/>
      <point x="85.5" y="-207.0"/>
      <point x="137.0" y="-155.5"/>
      <point x="139.0" y="-69.0" type="curve"/>
      <point x="75.0" y="-63.0" type="line"/>
      <point x="73.0" y="-111.0"/>
      <point x="46.0" y="-137.0"/>
      <point x="0.0" y="-137.0" type="curve" smooth="yes"/>
      <point x="-45.5" y="-137.0"/>
      <point x="-73.0" y="-110.5"/>
      <point x="-75.0" y="-63.0" type="curve"/>
      <point x="-139.0" y="-69.0" type="line"/>
      <point x="-136.0" y="-155.5"/>
      <point x="-84.5" y="-207.0"/>
    </contour>
  </outline>
</glyph>
<glyph name="strokeshortcomb" format="2">
  <unicode hex="0335"/>
  <anchor x="0.0" y="570.5" name="_stroke"/>
  <outline>
    <contour>
      <point x="-166.5" y="529.5" type="line"/>
      <point x="167.5" y="529.5" type="line"/>
      <point x="167.5" y="610.5" type="line"/>
      <point x="-166.5" y="610.5" type="line"/>
    </contour>
  </outline>
</glyph>
<glyph name="slashshortcomb" format="2">
  <unicode hex="0337"/>
  <anchor x="0.0" y="358.0" name="_center"/>
  <outline>
    <contour>
      <point x="-101.5" y="234.5" type="line"/>
      <point x="153.0" y="409.5" type="line"/>
      <point x="103.0" y="481.5" type="line"/>
      <point x="-151.5" y="306.5" type="line"/>
    </contour>
  </outline>
</glyph>
<glyph name="slashlongcomb" format="2">
  <unicode hex="0338"/>
  <anchor x="0.0" y="247.0" name="_center"/>
  <outline>
    <contour>
      <point x="-104.0" y="-57.5" type="line"/>
      <point x="167.5" y="521.0" type="line"/>
      <point x="104.0" y="551.5" type="line"/>
      <point x="-167.5" y="-27.0" type="line"/>
    </contour>
  </outline>
</glyph>
<glyph name="Delta" format="2">
  <advance width="615.5"/>
  <unicode hex="0394"/>
  <outline>
    <contour>
      <point x="30.5" y="0.0" type="line"/>
      <point x="586.0" y="0.0" type="line"/>
      <point x="586.0" y="74.5" type="line"/>
      <point x="360.5" y="705.0" type="line"/>
      <point x="256.0" y="705.0" type="line"/>
      <point x="30.5" y="74.5" type="line"/>
    </contour>
    <contour>
      <point x="307.0" y="574.0" type="line"/>
      <point x="309.0" y="574.0" type="line"/>
      <point x="484.5" y="56.5" type="line"/>
      <point x="484.5" y="93.5" type="line"/>
      <point x="132.5" y="93.5" type="line"/>
      <point x="132.5" y="56.5" type="line"/>
    </contour>
  </outline>
</glyph>
<glyph name="Sigma" format="2">
  <advance width="498.0"/>
  <unicode hex="03A3"/>
  <outline>
    <contour>
      <point x="31.5" y="-180.0" type="line"/>
      <point x="466.5" y="-180.0" type="line"/>
      <point x="466.5" y="-83.0" type="line"/>
      <point x="145.5" y="-83.0" type="line"/>
      <point x="145.5" y="-109.5" type="line"/>
      <point x="351.5" y="235.5" type="line"/>
      <point x="351.5" y="290.0" type="line"/>
      <point x="145.5" y="634.5" type="line"/>
      <point x="145.5" y="608.0" type="line"/>
      <point x="466.5" y="608.0" type="line"/>
      <point x="466.5" y="705.0" type="line"/>
      <point x="31.5" y="705.0" type="line"/>
      <point x="31.5" y="620.0" type="line"/>
      <point x="261.0" y="239.5" type="line"/>
      <point x="261.0" y="287.0" type="line"/>
      <point x="31.5" y="-95.0" type="line"/>
    </contour>
  </outline>
</glyph>
<glyph name="Omega" format="2">
  <advance width="662.5"/>
  <unicode hex="03A9"/>
  <outline>
    <contour>
      <point x="33.5" y="0.0" type="line"/>
      <point x="289.5" y="0.0" type="line"/>
      <point x="289.5" y="92.5" type="line"/>
      <point x="204.0" y="170.5"/>
      <point x="166.0" y="258.0"/>
      <point x="166.0" y="385.5" type="curve" smooth="yes"/>
      <point x="166.0" y="538.5"/>
      <point x="220.5" y="614.5"/>
      <point x="331.5" y="614.5" type="curve" smooth="yes"/>
      <point x="443.0" y="614.5"/>
      <point x="496.0" y="538.0"/>
      <point x="496.0" y="385.5" type="curve" smooth="yes"/>
      <point x="496.0" y="258.0"/>
      <point x="458.0" y="170.5"/>
      <point x="372.5" y="92.5" type="curve"/>
      <point x="372.5" y="0.0" type="line"/>
      <point x="628.5" y="0.0" type="line"/>
      <point x="628.5" y="94.0" type="line"/>
      <point x="435.5" y="94.0" type="line"/>
      <point x="435.5" y="70.0" type="line"/>
      <point x="555.5" y="134.5"/>
      <point x="618.0" y="245.5"/>
      <point x="618.0" y="400.0" type="curve" smooth="yes"/>
      <point x="618.0" y="599.0"/>
      <point x="512.0" y="715.5"/>
      <point x="331.5" y="715.5" type="curve" smooth="yes"/>
      <point x="149.5" y="715.5"/>
      <point x="44.0" y="599.5"/>
      <point x="44.0" y="400.5" type="curve" smooth="yes"/>
      <point x="44.0" y="245.5"/>
      <point x="107.5" y="134.5"/>
      <point x="227.5" y="70.0" type="curve"/>
      <point x="227.5" y="94.0" type="line"/>
      <point x="33.5" y="94.0" type="line"/>
    </contour>
  </outline>
</glyph>
<glyph name="mu" format="2">
  <advance width="484.0"/>
  <unicode hex="03BC"/>
  <outline>
    <contour>
      <point x="52.0" y="-180.0" type="line"/>
      <point x="166.0" y="-180.0" type="line"/>
      <point x="154.5" y="55.0" type="line"/>
      <point x="147.5" y="55.0" type="line"/>
      <point x="161.5" y="9.0"/>
      <point x="188.5" y="-10.0"/>
      <point x="225.0" y="-10.0" type="curve" smooth="yes"/>
      <point x="274.0" y="-10.0"/>
      <point x="306.0" y="25.0"/>
      <point x="321.5" y="91.0" type="curve"/>
      <point x="319.0" y="91.0" type="line"/>
      <point x="319.0" y="0.0" type="line"/>
      <point x="429.5" y="0.0" type="line"/>
      <point x="429.5" y="489.0" type="line"/>
      <point x="315.5" y="489.0" type="line"/>
      <point x="315.5" y="184.5" type="line" smooth="yes"/>
      <point x="315.5" y="119.0"/>
      <point x="278.0" y="81.5"/>
      <point x="228.5" y="81.5" type="curve" smooth="yes"/>
      <point x="189.5" y="81.5"/>
      <point x="166.0" y="102.5"/>
      <point x="166.0" y="171.0" type="curve" smooth="yes"/>
      <point x="166.0" y="489.0" type="line"/>
      <point x="52.0" y="489.0" type="line"/>
    </contour>
  </outline>
</glyph>
<glyph name="pi" format="2">
  <advance width="524.0"/>
  <unicode hex="03C0"/>
  <outline>
    <contour>
      <point x="450.5" y="-8.0" type="curve" smooth="yes"/>
      <point x="467.5" y="-8.0"/>
      <point x="487.0" y="-7.0"/>
      <point x="509.5" y="-2.5" type="curve"/>
      <point x="513.5" y="90.5" type="line"/>
      <point x="506.5" y="88.5"/>
      <point x="494.5" y="86.5"/>
      <point x="482.0" y="86.5" type="curve" smooth="yes"/>
      <point x="428.5" y="86.5"/>
      <point x="406.0" y="113.0"/>
      <point x="406.0" y="177.5" type="curve" smooth="yes"/>
      <point x="406.0" y="404.0" type="line"/>
      <point x="491.5" y="404.0" type="line"/>
      <point x="491.5" y="489.0" type="line"/>
      <point x="8.0" y="489.0" type="line"/>
      <point x="8.0" y="404.0" type="line"/>
      <point x="82.5" y="404.0" type="line"/>
      <point x="82.0" y="247.5"/>
      <point x="64.0" y="116.5"/>
      <point x="27.0" y="0.0" type="curve"/>
      <point x="147.0" y="0.0" type="line"/>
      <point x="179.0" y="110.5"/>
      <point x="195.5" y="246.0"/>
      <point x="196.5" y="404.0" type="curve"/>
      <point x="292.0" y="404.0" type="line"/>
      <point x="292.0" y="166.5" type="line" smooth="yes"/>
      <point x="292.0" y="50.0"/>
      <point x="344.0" y="-8.0"/>
    </contour>
  </outline>
</glyph>
<glyph name="Dje-cy" format="2">
  <advance width="722.5"/>
  <unicode hex="0402"/>
  <outline>
    <contour>
      <point x="487.5" y="-190.0" type="curve" smooth="yes"/>
      <point x="611.0" y="-190.0"/>
      <point x="677.5" y="-112.0"/>
      <point x="677.5" y="34.5" type="curve" smooth="yes"/>
      <point x="677.5" y="172.5" type="line" smooth="yes"/>
      <point x="677.5" y="354.0"/>
      <point x="605.0" y="439.0"/>
      <point x="450.5" y="439.0" type="curve" smooth="yes"/>
      <point x="399.0" y="439.0"/>
      <point x="351.5" y="427.5"/>
      <point x="318.0" y="407.5" type="curve"/>
      <point x="318.0" y="606.5" type="line"/>
      <point x="509.5" y="606.5" type="line"/>
      <point x="509.5" y="705.0" type="line"/>
      <point x="9.5" y="705.0" type="line"/>
      <point x="9.5" y="606.5" type="line"/>
      <point x="201.0" y="606.5" type="line"/>
      <point x="201.0" y="0.0" type="line"/>
      <point x="318.0" y="0.0" type="line"/>
      <point x="318.0" y="307.0" type="line"/>
      <point x="347.0" y="327.5"/>
      <point x="385.0" y="338.5"/>
      <point x="427.5" y="338.5" type="curve" smooth="yes"/>
      <point x="525.0" y="338.5"/>
      <point x="561.0" y="291.5"/>
      <point x="560.5" y="168.5" type="curve" smooth="yes"/>
      <point x="560.0" y="29.5" type="line" smooth="yes"/>
      <point x="559.5" y="-59.0"/>
      <point x="533.5" y="-96.5"/>
      <point x="472.5" y="-96.5" type="curve" smooth="yes"/>
      <point x="451.0" y="-96.5"/>
      <point x="427.5" y="-92.0"/>
      <point x="405.5" y="-83.5" type="curve"/>
      <point x="385.0" y="-171.0" type="line"/>
      <point x="416.5" y="-183.5"/>
      <point x="453.0" y="-190.0"/>
    </contour>
  </outline>
</glyph>
<glyph name="E-cy" format="2">
  <advance width="562.0"/>
  <unicode hex="0404"/>
  <anchor x="323.0" y="0.0" name="bottom"/>
  <anchor x="324.0" y="705.0" name="top"/>
  <outline>
    <contour>
      <point x="332.5" y="-10.0" type="curve" smooth="yes"/>
      <point x="414.5" y="-10.0"/>
      <point x="483.0" y="17.0"/>
      <point x="530.5" y="66.0" type="curve"/>
      <point x="496.0" y="158.5" type="line"/>
      <point x="449.5" y="114.5"/>
      <point x="400.5" y="94.0"/>
      <point x="342.5" y="94.0" type="curve" smooth="yes"/>
      <point x="228.0" y="94.0"/>
      <point x="169.5" y="172.5"/>
      <point x="167.5" y="341.5" type="curve"/>
      <point x="147.0" y="311.5" type="line"/>
      <point x="420.0" y="311.5" type="line"/>
      <point x="420.0" y="405.0" type="line"/>
      <point x="147.5" y="405.0" type="line"/>
      <point x="167.5" y="367.0" type="line"/>
      <point x="170.5" y="533.5"/>
      <point x="228.0" y="611.0"/>
      <point x="342.0" y="611.0" type="curve" smooth="yes"/>
      <point x="400.0" y="611.0"/>
      <point x="449.5" y="590.5"/>
      <point x="496.5" y="546.5" type="curve"/>
      <point x="530.5" y="639.0" type="line"/>
      <point x="483.5" y="689.0"/>
      <point x="415.0" y="715.0"/>
      <point x="333.0" y="715.0" type="curve" smooth="yes"/>
      <point x="151.0" y="715.0"/>
      <point x="47.0" y="584.0"/>
      <point x="47.0" y="352.5" type="curve" smooth="yes"/>
      <point x="47.0" y="121.0"/>
      <point x="150.5" y="-10.0"/>
    </contour>
  </outline>
</glyph>
<glyph name="Lje-cy" format="2">
  <advance width="929.5"/>
  <unicode hex="0409"/>
  <outline>
    <contour>
      <point x="74.5" y="-16.5" type="line"/>
      <point x="197.5" y="58.0"/>
      <point x="253.5" y="204.5"/>
      <point x="253.5" y="462.0" type="curve" smooth="yes"/>
      <point x="253.5" y="607.5" type="line"/>
      <point x="434.5" y="607.5" type="line"/>
      <point x="434.5" y="0.0" type="line"/>
      <point x="690.0" y="0.0" type="line" smooth="yes"/>
      <point x="818.0" y="0.0"/>
      <point x="897.0" y="77.0"/>
      <point x="897.0" y="204.0" type="curve" smooth="yes"/>
      <point x="897.0" y="330.0"/>
      <point x="819.0" y="406.5"/>
      <point x="691.0" y="406.5" type="curve" smooth="yes"/>
      <point x="551.5" y="406.5" type="line"/>
      <point x="551.5" y="705.0" type="line"/>
      <point x="145.0" y="705.0" type="line"/>
      <point x="145.0" y="486.5" type="line" smooth="yes"/>
      <point x="145.0" y="243.5"/>
      <point x="111.0" y="136.0"/>
      <point x="13.0" y="69.5" type="curve"/>
    </contour>
    <contour>
      <point x="551.5" y="93.5" type="line"/>
      <point x="551.5" y="313.0" type="line"/>
      <point x="678.5" y="313.0" type="line" smooth="yes"/>
      <point x="748.5" y="313.0"/>
      <point x="784.0" y="275.5"/>
      <point x="784.0" y="204.0" type="curve" smooth="yes"/>
      <point x="784.0" y="131.0"/>
      <point x="747.5" y="93.5"/>
      <point x="677.5" y="93.5" type="curve" smooth="yes"/>
    </contour>
  </outline>
</glyph>
<glyph name="Nje-cy" format="2">
  <advance width="952.0"/>
  <unicode hex="040A"/>
  <outline>
    <contour>
      <point x="64.5" y="0.0" type="line"/>
      <point x="181.5" y="0.0" type="line"/>
      <point x="181.5" y="308.5" type="line"/>
      <point x="457.0" y="308.5" type="line"/>
      <point x="457.0" y="0.0" type="line"/>
      <point x="712.5" y="0.0" type="line" smooth="yes"/>
      <point x="840.5" y="0.0"/>
      <point x="919.5" y="77.0"/>
      <point x="919.5" y="204.0" type="curve" smooth="yes"/>
      <point x="919.5" y="330.0"/>
      <point x="841.5" y="406.5"/>
      <point x="713.5" y="406.5" type="curve" smooth="yes"/>
      <point x="574.0" y="406.5" type="line"/>
      <point x="574.0" y="705.0" type="line"/>
      <point x="457.0" y="705.0" type="line"/>
      <point x="457.0" y="406.5" type="line"/>
      <point x="181.5" y="406.5" type="line"/>
      <point x="181.5" y="705.0" type="line"/>
      <point x="64.5" y="705.0" type="line"/>
    </contour>
    <contour>
      <point x="574.0" y="93.5" type="line"/>
      <point x="574.0" y="313.0" type="line"/>
      <point x="701.0" y="313.0" type="line" smooth="yes"/>
      <point x="771.0" y="313.0"/>
      <point x="806.5" y="275.5"/>
      <point x="806.5" y="204.0" type="curve" smooth="yes"/>
      <point x="806.5" y="131.0"/>
      <point x="770.0" y="93.5"/>
      <point x="700.0" y="93.5" type="curve" smooth="yes"/>
    </contour>
  </outline>
</glyph>
